<svg preserveAspectRatio="none" width="100%" height="100%" overflow="visible" style="display: block;" viewBox="0 0 474.001 231" fill="none" xmlns="http://www.w3.org/2000/svg">
<path id="Line 21" d="M36.6762 229.155C36.9695 228.862 38.1492 229.575 38.6598 229.451C38.0809 232.55 35.6183 230.219 36.6762 229.155ZM89.059 4.13866C88.6353 4.90474 88.2116 5.67082 87.7879 6.4369C88.992 6.93468 90.6105 6.37239 91.7279 7.09959C91.9106 7.22171 91.4365 9.43979 91.8689 9.53883C92.3015 9.63725 92.2181 6.60603 92.8472 6.28181C93.5528 5.92734 96.7839 8.03909 97.9028 7.98787C102.088 7.78325 106.309 6.05217 110.502 7.31108C106.173 9.55367 110.535 11.8361 111.748 10.8642C112.017 10.6392 111.974 5.00391 116.317 6.42281C119.078 7.32324 116.528 15.3796 121.134 11.3436C117.592 5.70757 121.075 6.10257 123.852 5.91522C124.331 5.88203 128.196 6.72881 129.904 6.4792C130.488 6.3924 131.378 3.44064 132.153 3.36319C132.687 3.31209 133.09 4.92583 133.882 4.84364C137.574 4.4799 141.204 4.35443 144.903 4.90004C142.742 12.4854 146.599 8.13281 146.772 8.49545C147.653 10.5549 143.669 11.1412 145.244 12.4293C147.447 12.1943 149.649 11.9593 151.852 11.7243C150.044 10.793 154.245 5.33672 155.018 7.81868C154.677 1.116 165.055 13.6524 166.635 11.4141C166.964 10.9413 164.81 7.6286 169.807 9.14404C170.348 9.31242 170.143 11.3347 170.427 11.1462C170.597 11.0328 171.626 4.60529 172.722 8.15706C173.122 9.45341 170.561 13.6749 176.184 11.9781C173.945 5.4361 183.981 8.4352 185.827 10.0746C185.458 9.19574 185.089 8.31686 184.721 7.43799C186.546 9.80888 186.875 7.58466 187.286 7.70587C188.943 8.19275 191.222 10.4343 192.765 10.2297C194.571 9.99437 194.578 5.92589 196.683 7.50848C196.184 6.61081 195.684 5.71312 195.184 4.81544C196.639 5.03165 198.093 5.24783 199.548 5.46404C196.18 10.8496 200.274 5.72098 200.544 5.60503C200.974 5.40903 200.356 7.61383 201.076 7.33928C201.15 7.2941 201.042 5.21783 202.151 4.98465C204.469 4.50452 204.102 7.11502 205.075 7.08549C205.164 7.07204 204.852 5.20155 206.533 4.75905C211.873 3.35034 206.506 6.19246 206.301 6.451C206.032 6.79201 207.863 14.6088 203.327 11.8371C204.85 12.7195 205.003 16.1785 205.175 16.2644C205.326 16.335 207.966 15.8477 208.111 15.7286C209.409 14.554 208.267 12.1902 208.52 11.7666C208.727 11.4251 211.906 14.5056 212.651 7.39569C214.173 13.9537 211.776 13.3529 209.225 14.3609C208.853 15.7067 211.654 17.0152 211.802 17.0116C215.415 16.9997 213.415 11.6053 214.205 8.15706C214.62 6.35287 216.092 10.0331 214.733 5.19614C218.013 4.68556 216.023 7.48846 216.235 7.90327C216.555 8.51271 217.703 7.12642 217.846 7.31108C218.057 7.58446 217.324 9.25914 218.156 9.84903C218.294 9.9348 219.633 7.05298 217.906 5.67552C220.214 6.08521 220.024 3.62787 220.806 8.58006C222.396 -0.788879 221.96 14.118 222.586 14.6429C224.25 16.0267 223.767 8.67087 223.855 8.31216C224.46 6.0135 229.068 8.54039 230.209 7.48029C229.759 12.7784 226.556 7.53813 225.84 8.56595C223.453 11.9855 229.205 11.2148 227.471 17.8717C228.198 16.0435 228.925 14.2152 229.652 12.387C230.985 16.6671 229.094 18.5334 232.681 16.9693C233.267 13.275 230.145 17.5529 230.771 14.6429C231.14 12.9351 233.22 12.5683 233.261 11.6679C233.302 10.584 231.422 11.8685 231.719 10.2015C232.365 6.6041 239.221 10.0288 234.002 11.9922C235.458 11.9307 236.208 19.086 237.47 16.8566C238.287 15.4094 233.694 5.5271 240.584 7.33928C240.731 10.7181 237.829 8.33702 237.754 8.59416C237.648 8.96844 238.173 16.593 238.264 16.9693C238.585 18.2084 245.621 14.1256 247.108 17.9563C246.52 13.5496 252.425 17.17 253.068 15.8273C253.239 15.4566 252.599 12.7573 252.782 12.4716C253.924 10.7711 257.013 15.5896 258.445 15.7145C260.049 15.856 259.846 13.5246 259.935 13.529C260.641 13.6591 260.077 15.2395 260.508 15.2351C261.16 15.2275 265.638 15.5508 265.862 15.221C265.928 15.1182 265.197 12.455 266.173 11.9499C266.343 11.8624 266.235 15.0198 269.126 13.6559C272.608 12.0155 266.709 9.7294 268.155 6.42281C270.391 11.1309 270.319 6.46536 270.925 6.8317C271.135 6.96513 272.698 10.9319 274.395 10.6809C273.177 11.3248 271.959 11.9687 270.741 12.6126C271.938 13.3081 274.264 12.4472 275.25 13.2329C275.732 13.6154 275.335 16.8741 276.381 16.7861C276.603 16.7496 277.483 8.81056 274.744 12.3729C274.525 9.53806 275.828 11.3841 276.433 10.5822C276.525 10.4573 276.885 5.72139 277.657 8.66466C277.842 9.38878 275.824 23.2037 281.029 13.2047C281.197 12.8825 280.614 11.1524 280.778 10.7937C280.89 10.5508 282.219 11.2507 282.366 11.0052C282.516 10.7418 281.874 8.85301 282.053 8.48135C282.969 6.56622 284.172 14.0575 282.282 13.4867C282.914 14.4126 283.546 15.3385 284.177 16.2644C283.501 10.6184 285.169 14.6758 286.043 14.5019C291.645 13.3907 287.894 9.71858 288.857 7.81868C290.406 4.76817 289.223 14.4301 291.522 11.5269C291.735 11.2554 288.955 7.15411 294.383 9.46834C293.582 9.62813 292.781 9.78793 291.98 9.94772C292.442 15.4086 294.872 9.57312 295.059 9.49654C297.19 8.74672 295.749 10.7154 298.914 7.90327C299.197 7.6508 299.812 8.99852 300.417 8.32626C302.922 5.55666 297.111 6.64561 296.952 4.43475C296.877 3.35146 303.126 3.62427 303.34 4.13866C304.251 6.41885 300.508 5.14297 301.221 7.97377C301.482 8.9789 310.388 6.91449 312.175 8.01607C314.237 9.29794 315.165 16.7019 315.179 8.38266C315.76 16.5487 316.275 10.9772 316.538 11.0334C319.727 11.7893 319.733 11.8717 322.467 11.0898C323.071 10.9198 323.581 13.3975 323.795 12.9791C323.919 12.7265 323.686 10.0749 324.295 9.25684C325.141 8.13765 330.224 10.8648 330.602 12.3306C330.98 13.7963 328.456 12.9662 328.908 15.3761C330.735 15.6197 332.488 15.0234 334.327 15.2774C335.091 15.3901 334.699 17.0768 335.029 17.1104C335.169 17.1311 337.808 15.6458 337.696 15.0236C337.434 13.5769 329.287 14.5493 331.432 11.5974C331.846 11.027 333.309 14.9138 333.076 10.1874C340.354 11.259 347.633 12.3306 354.911 13.4021C350.729 16.9373 346.023 13.7757 341.643 14.1071C341.043 14.148 339.013 13.6922 339.26 16.0811C342.985 16.6995 347.615 15.4548 351.192 17.0116C351.307 17.0632 350.886 19.2095 351.315 19.5496C352.116 20.1844 354.726 16.7228 355.165 17.6179C355.24 17.8265 353.755 20.656 354.206 22.4541C355.365 27.0686 355.66 16.8483 356.656 16.9693C357.427 17.0673 362.606 22.009 363.896 18.8869C365.268 15.5591 360.079 16.9549 360.463 14.234C363.973 11.4997 367.528 14.4196 370.845 14.0789C370.904 14.0702 370.396 11.938 371.136 11.6397C372.424 11.1205 372.762 14.145 373.389 14.6288C374.065 15.1439 376.456 14.7104 376.776 15.8132C376.817 15.9578 376.332 18.9577 376.259 19.042C375.217 20.2784 374.847 16.3848 374.753 16.3349C374.396 16.1872 374.047 17.6786 373.722 17.5897C373.187 17.4416 372.893 16.0619 372.187 15.9401C371.7 15.8509 372.17 18.5005 371.7 18.3793C371.528 18.3241 369.669 12.274 369.496 18.4498C369.442 20.397 384.641 22.8976 386.16 21.3402C384.857 20.5977 383.554 19.8551 382.251 19.1125C384.897 20.9201 388.076 15.9856 388.301 23.286C398.114 23.8829 407.927 24.4798 417.74 25.0767C419.492 25.6986 418.531 30.3899 421.414 29.0246C420.669 27.53 419.924 26.0354 419.179 24.5409C420.657 25.5893 427.204 27.6376 428.264 26.6699C428.401 26.5431 428.591 22.2972 430.227 21.9324C431.679 21.6103 431.912 24.7915 432.688 25.4009C433.34 25.9037 434.072 25.0702 434.265 25.2458C434.413 25.3865 434.472 27.3318 434.829 27.671C435.956 28.7198 435.043 23.2425 436.162 29.5322C435.889 29.7718 435.617 30.0115 435.344 30.2512C436.705 31.1616 438.563 34.017 436.56 35.4258C436.215 35.669 436.511 33.787 436.254 33.7902C426.192 34.14 434.227 37.7984 437.753 34.8759C438.659 37.6645 443.734 35.9619 443.903 36.5115C444.137 37.3074 443.269 39.5361 444.407 41.4604C444.646 41.8678 451.433 40.3063 448.989 44.0125C448.485 44.777 445.231 43.9738 444.447 44.083C446.292 49.9935 450.618 41.5254 451.105 41.7424C453.067 42.6636 447.335 46.8647 451.755 47.5515C455.155 48.0785 451.963 44.132 453.271 42.4474C454.005 41.5022 457.852 45.8499 457.748 40.2197C459.068 39.6185 458.295 42.5996 458.458 42.814C458.618 43.0025 461.214 41.3171 462.057 42.5038C462.159 42.6514 461.837 45.5778 461.943 45.8172C462.148 46.2272 464.652 45.6422 464.753 45.3943C464.817 45.222 464.22 42.6599 464.465 42.0385C464.751 41.3221 467.16 41.925 467.293 41.1926C467.481 40.0852 464.506 40.8147 465.002 37.9496C466.373 38.6711 468.607 36.7594 469.512 34.4529C469.29 35.1124 467.961 35.2071 467.499 34.9746C467.716 30.7785 470.571 30.8356 469.595 34.1568C470.215 32.3732 469.792 31.4269 470.141 29.7436C470.233 29.3172 471.114 29.2294 471.284 28.5029C471.306 28.3581 470.396 26.7749 470.579 25.9226C470.908 24.3825 473.58 24.729 473.799 25.1331C474.414 26.2781 472.236 27.6635 472.054 29.4334C472.028 29.7053 473.881 33.1737 473.909 33.4801C474.018 36.7667 471.956 34.3981 472.191 37.3575C472.701 37.9825 473.211 38.6076 473.721 39.2327C471.754 42.2295 468.116 40.6885 467.177 44.0971C470.093 43.0828 473.145 43.2027 473.139 50.879C473.137 54.1119 471.879 56.0071 471.927 56.8291C472.113 59.7703 473.859 56.5751 473.924 56.7304C473.977 56.9096 474.001 57.0842 474.001 57.254C474.001 57.2541 474.001 57.2542 474.001 57.2542C474.001 58.9763 471.511 60.2163 471.387 61.0026C471.177 62.3993 472.285 68.1484 472.284 69.4201C472.245 69.6755 470.472 71.0361 471.07 73.2552C471.676 75.4966 473.227 75.5461 473.282 75.779C473.578 77.1199 470.864 78.3428 470.783 79.1347C470.74 79.5351 472.198 81.9948 472.24 82.702C472.277 83.4116 471.169 84.9599 470.732 87.1997C470.407 88.8638 471.355 90.1395 471.188 90.4004C471.069 90.5733 468.504 90.5449 468.378 90.8374C468.19 91.2701 468.791 93.2589 468.703 93.7561C468.579 94.4713 467.751 93.7534 467.859 94.4893C467.94 95.0377 471.151 101.893 471.13 103.725C471.093 106.848 467.693 99.6614 470.857 111.987C470.879 112.068 471.649 111.192 471.671 111.268C472.146 113.536 469.677 117.024 472.696 116.414C467.08 120.353 471.997 121.109 471.166 126.369C470.845 128.39 468.668 129.224 468.658 129.527C468.87 132.091 469.563 130.102 469.799 131.36C469.929 132.063 467.981 134.774 468.42 136.534C468.646 137.442 470.714 137.119 470.799 137.296C471.617 138.965 470.614 140.763 470.794 141.949C470.913 142.744 472.161 142.807 472.193 142.95C472.246 143.248 470.552 146.459 470.199 147.589C469.931 148.457 470.937 149.818 470.75 150.197C469.623 152.462 467.223 146.686 469.535 154.779C469.676 155.276 470.551 155.075 470.577 155.174C471.117 157.469 469.507 157.667 469.219 159.545C468.724 162.782 471.039 160.977 469.114 163.253C470.558 165.37 471.363 165.281 473.052 164.691C468.374 166.337 466.723 174.716 471.917 174.505C470.264 174.374 470.448 179.103 469.955 179.186C469.648 179.232 467.253 174.531 468.351 185.08C468.489 186.397 469.944 184.723 469.488 187.42C465.995 186.732 469.414 189.136 469.418 189.493C469.373 195.707 460.838 190.617 459.372 191.326C457.67 192.148 456.158 197.044 455.788 197.05C454.571 197.052 455.581 194.566 455.309 193.652C455.033 192.746 451.572 197.509 451.399 197.248C450.729 196.197 451.409 193.251 451.34 193.102C450.51 191.297 445.862 193.604 444.561 192.919C444.601 194.83 447.213 194.982 445.582 198.051C443.683 201.63 443.574 193.205 443.525 192.834C434.822 192.914 426.12 192.994 417.418 193.074C417.527 197.556 423.216 194.176 423.345 194.766C424.105 198.26 414.495 198.196 413.315 196.613C414.211 197.581 415.107 198.549 416.002 199.518C414.473 204.671 411.088 197.976 408.876 200.251C408.162 200.988 409.534 202.977 409.506 203.113C408.702 205.114 407.414 203.572 408.377 200.885C406.417 203.46 406.703 200.619 405.199 200.406C405.121 200.397 405.767 202.476 404.577 203.339C404.019 203.741 401.044 203.748 400.646 205.566C400.482 206.332 401.991 214.396 402.177 207.456C405.413 210.839 403.211 204.293 404.468 204.452C404.661 204.489 404.217 208.363 407.383 206.539C406.78 213.525 403.135 208.301 402.51 209.148C401.221 210.887 406.532 214.495 407.506 209.049C407.051 214.501 407.883 209.784 409.066 210.008C410.362 210.251 409.797 211.874 410.498 211.883C412.416 211.924 411.621 208.075 413.202 211.545C411.661 200.805 415.908 210.127 417.145 212.94C415.131 213.486 413.118 214.031 411.104 214.576C411.219 215.14 411.334 215.704 411.449 216.268C410.919 216.188 410.389 216.108 409.858 216.028C409.943 215.488 410.028 214.947 410.113 214.407C407.378 217.921 406.711 213.971 406.488 213.927C403.617 213.469 400.301 213.503 397.398 213.49C396.963 213.488 397.262 217.004 394.087 214.252C393.075 213.375 394.031 210.641 392.883 211.051C391.448 218.482 391.475 212.555 391.048 212.546C389.823 212.547 389.074 214.387 388.961 214.407C387.448 214.694 385.232 214.387 383.569 214.661C383.538 214.689 384.403 216.972 383.323 216.296C382.944 216.055 379.543 206.309 376.57 209.486C377.343 210.144 378.116 210.802 378.89 211.46C377.98 210.541 371.609 212.997 373.167 215.605C374.122 217.2 376.453 210.918 376.709 216.959C374.589 215.151 362.879 217.855 361.967 216.451C361.841 216.251 362.617 214.291 362.442 214.04C362.308 213.849 359.625 214.314 359.269 213.561C359.057 213.114 360.243 211.912 360.146 211.206C360.062 210.703 356.712 209.863 356.521 212.32C357.343 211.334 359.655 212.195 358.443 214.266C358.287 214.523 357.479 212.938 357.289 213.265C355.531 216.275 360.785 215.552 361.598 215.577C358.298 218.707 353.193 215.017 349.369 217.058C347.824 215.013 351.66 213.93 349.912 212.235C346.285 208.724 348.947 215.063 348.834 215.323C347.933 217.386 344.865 206.33 344.863 214.745C343.549 213.479 343.974 212.418 342.119 213.519C342.363 214.101 342.607 214.684 342.851 215.267C340.791 220.141 336.431 207.844 336.757 206.906C337.636 204.395 339.907 208.311 340.101 208.217C340.388 208.078 341.181 199.539 344.323 207.174C345.609 201.447 339.344 203.308 342.195 199.405C340.269 200.045 332.348 196.059 331.208 198.573C331.072 198.901 331.706 204.607 329.749 201.703C328.82 200.32 331.06 200.254 330.635 198.954C329.327 194.964 311.537 197.516 308.157 197.727C307.938 197.733 308.019 195.962 307.803 195.979C307.141 196.028 304.728 198.669 303.543 197.854C305.998 201.132 301.23 201.387 300.017 201.026C298.176 200.477 298.29 197.36 297.495 196.698C294.429 194.143 289.68 201.542 287.298 194.625C287.429 201.49 283.179 191.259 281.246 191.199C279.732 191.15 277.535 195.693 279.579 198.46C276.966 198.144 274.214 199.425 271.762 199.842C271.357 199.912 271.915 197.882 271.224 198.065C271.161 198.097 271.074 200.086 270.48 200.293C265.579 202.027 267.964 197.799 267.047 196.557C266.534 195.861 266.155 195.515 265.877 195.4C268.734 195.012 272.029 194.23 272.911 194.174C272.159 189.781 266.578 195.018 264.944 193.835C264.887 193.792 265.085 191.371 265.027 191.354C265.026 191.354 265.025 191.354 265.023 191.354C264.411 191.168 260.51 192.062 261.313 194.949C261.529 195.721 263.324 195.719 265.454 195.457C264.877 195.999 265.308 198.711 265.206 198.827C263.973 200.168 260.951 197.52 259.879 197.163C259.634 197.085 259.652 198.823 259.612 198.827C258.637 198.432 259.037 193.47 258.037 198.587C256.271 192.403 261.345 197.669 260.988 193.652C260.713 190.56 249.443 192.221 249.477 197.092C249.438 196.571 249.283 195.925 248.965 195.189C248.26 193.554 245.123 194.066 244.582 194.963C244.491 195.14 244.527 199.869 244.414 199.912C244.131 200.021 240.296 196.314 238.865 199.109C239.638 199.771 240.411 200.434 241.184 201.097C236.515 201.138 237.236 202.545 238.792 203.959C238.87 203.972 238.946 204.151 239.02 204.17C240.226 205.216 241.772 206.223 241.796 206.596C241.884 208.019 233.961 208.811 235.485 204.424C235.698 203.825 239.363 205.778 237.548 202.648C237.231 202.099 234.876 202.993 234.753 202.648C233.925 200.354 239.066 197.306 238.438 194.047C237.19 197.15 235.589 195.516 234.158 196.317C233.507 196.679 233.347 199.05 233.266 199.095C232.066 199.714 232.74 197.228 232.339 197.29C232.124 197.333 229.758 202.623 230.205 195.33C222.41 200.695 228.049 200.69 232.831 200.279C231.32 202.935 228.357 201.65 227.028 202.267C226.551 202.491 226.834 204.924 226.028 205.411C224.37 206.412 216.453 203.617 214.391 202.958C215.658 202.098 215.287 199.447 214.31 199.63C213.332 199.815 214.153 203.353 213.962 203.733C213.758 204.127 209.171 202.457 208.408 202.916C211.861 201.634 211.082 198.991 208.151 198.714C208.575 197.953 208.998 197.191 209.422 196.43C207.704 197.5 204.092 193.467 203.099 194.667C202.943 194.86 203.503 197.083 203.415 197.191C202.544 198.136 199.581 195.869 199.443 196.627C199.326 197.258 200.59 199.122 200.121 200.039C200.023 200.232 198.804 197.228 197.604 197.967C197.158 198.238 197.427 200.34 197.314 200.462C196.379 201.473 196.931 197.934 195.222 198.502C193.97 198.923 193.038 202.384 191.308 201.238C196.989 205.649 192.213 203.807 189.838 205.143C189.457 205.357 189.783 209.173 187.509 207.315C192.349 200.415 186.129 203.668 184.856 203.592C184.786 203.569 184.762 201.052 184.138 201.012C184.086 201.014 184.161 202.715 183.581 202.845C178.08 204.075 181.598 202.153 180.553 200.476C180.108 199.762 177.433 202.167 176.712 202.225C176.546 202.231 176.623 200.464 175.982 200.533C174.848 200.66 173.832 202.541 173.083 202.69C172.996 202.699 172.992 199.91 171.573 200.815C171.174 201.068 170.726 202.058 171.293 202.859C173.172 205.496 176.736 200.933 178.86 203.564C180.797 205.961 174.69 206.187 174.372 206.201C174.256 206.21 175.449 204.825 174.237 204.551C173.202 204.323 171.311 209.139 169.769 208.09C169.651 208.012 168.419 203.929 168.476 203.691C168.527 203.517 170.42 202.631 170.145 201.449C170.112 201.315 168.91 201.342 168.753 200.462C168.56 199.391 168.042 188.882 167.785 188.619C167.126 187.968 167.555 190.364 167.129 190.198C166.215 189.846 163.044 186.738 162.941 190.381C163.465 190.597 163.989 190.813 164.512 191.03C161.598 191.404 162.84 192.955 162.428 193.638C161.983 194.377 162.108 191.175 161.126 190.875C160.912 190.808 156.802 191.477 156.876 192.82C159.15 190.682 158.307 194.639 158.412 194.71C158.81 194.967 159.318 192.748 159.853 192.792C163.611 193.139 159.821 196.643 160.708 197.544C161.013 197.847 161.622 195.952 161.751 196.049C162.172 196.363 162.179 198.844 162.46 198.643C163.116 198.178 162.35 194.667 162.402 194.484C162.988 192.287 165.283 195.021 163.854 198.841C164.712 200.218 164.812 195.575 165.492 197.431C166.845 201.106 164.819 200.162 164.27 200.772C162.301 202.974 161.717 201.192 158.931 201.802C157.927 202.017 156.738 204.272 156.273 204.396C155.979 204.474 153.21 196.627 153.128 208.908C152.052 207.72 150.362 199.627 149.253 199.997C148.257 200.335 148.574 204.679 148.481 204.847C148.339 205.111 147.135 204.769 146.727 205.383C146.25 206.108 146.488 207.767 145.731 208.443C143.846 210.12 143.896 205.685 143.702 205.397C141.454 202.066 142.438 208.374 141.939 208.88C141.475 209.345 134.966 206.917 133.596 208.513C134.154 207.625 134.711 206.737 135.269 205.848C134.271 203.082 133.213 207.594 133.195 202.634C132.992 210.642 130.933 205.289 130.314 205.496C130.071 205.581 130.09 206.946 129.785 207.005C128.593 207.244 125.905 206.157 125.259 206.849C122.463 209.829 129.612 214.784 130.175 215.084C129.048 214.995 122.674 216.789 125.604 220.639C126.057 221.233 126.86 217.649 127.114 217.509C128.836 216.586 127.482 219.798 127.617 220.103C127.846 220.596 128.979 217.491 129.278 217.861C129.378 217.98 128.736 220.888 130.378 220.949C129.57 223.768 124.955 221.471 124.349 222.133C124.134 222.37 125.486 228.394 121.536 222.542C121.581 223.102 121.627 223.661 121.673 224.22C119.474 224.45 117.274 224.681 115.075 224.911C115.314 223.623 116.549 221.034 114.994 221.584C114.098 221.901 114.761 224.771 114.679 224.855C113.876 225.645 99.6537 224.69 96.8975 225.01C95.96 225.114 93.3466 227.42 93.1473 227.463C91.9558 227.694 87.7364 226.193 86.8947 226.518C86.3691 226.727 86.8688 229.127 86.3992 229.014C85.9628 228.906 86.4149 226.587 86.2853 226.49C85.2115 225.65 77.0549 228.691 75.118 226.504C76.3018 227.161 82.2091 222.528 82.0903 220.893C82.0646 220.668 80.629 218.904 80.3328 219.765C79.8435 217.757 78.1636 223.87 77.2499 222.669C77.1465 222.533 77.5535 219.104 75.9227 218.482C75.3609 218.269 73.8899 220.942 72.4094 217.946C70.2661 219.385 58.9974 214.939 58.2242 218.623C58.2013 218.817 59.7882 220.086 58.7161 221.598C57.2908 223.607 58.5708 216.838 56.9097 216.254C56.6594 216.165 52.0379 216.85 51.8866 217.269C50.4869 221.068 54.5252 222.608 54.4687 223.05C54.3278 224.162 50.9724 224.835 50.836 224.573C50.7062 224.3 53.4427 219.266 50.1544 221.175C50.5311 221.776 50.9078 222.378 51.2845 222.979C49.738 224.151 49.5906 220.668 49.2159 220.456C48.0512 219.782 46.7912 225.072 44.9251 218.538C44.4317 216.804 45.2509 214.878 45.1891 214.618C44.5963 212.284 43.8401 218.528 42.9488 213.871C42.8817 213.524 44.956 210.734 41.3305 210.727C41.58 211.173 41.8295 211.62 42.079 212.066C41.5678 213.063 37.897 213.655 37.4031 213.42C35.9604 212.731 37.2186 209.526 35.7685 209.909C36.6985 214.302 32.2891 214.875 32.5427 211.093C31.9269 215.843 28.1811 212.179 26.4202 212.066C25.3092 211.999 23.043 214.071 22.69 213.829C22.2599 213.532 22.3906 210.292 21.6141 209.571C21.3927 209.365 19.0811 211.74 17.0521 208.386C16.6589 207.74 15.833 202.245 16.5639 200.871C17.8149 198.521 20.1815 202.948 20.1513 199.701C20.1158 196.227 16.9282 198.293 16.0703 197.84C12.1092 195.743 14.3965 192.05 14.2946 190.931C14.0305 188.214 11.8661 188.299 11.7758 188.055C11.4016 186.97 12.9352 184.82 12.9584 183.162C12.9863 181.003 10.9001 177.108 11.3744 176.38C12.0533 175.347 13.9705 178.594 14.0921 178.439C15.6744 176.344 13.5055 171.357 12.9078 168.907C12.7265 168.153 13.4486 166.915 13.2983 166.694C11.0049 163.339 12.8149 173.702 11.2894 173.01C9.92844 172.393 11.6796 169.116 11.6276 168.935C11.5604 168.737 9.93309 168.558 9.67835 167.399C9.55281 166.818 13.7823 160.443 13.6057 157.585C12.2562 158.215 10.9067 158.845 9.5572 159.475C9.45141 155.748 11.3924 158.491 11.5932 158.107C11.9974 157.336 10.8704 155.45 10.9188 154.272C10.9447 153.522 12.2674 150.848 11.0725 149.746C10.6618 149.365 9.7999 151.978 8.30414 149.309C13.5096 145.899 9.9023 143.805 9.74887 142.484C9.59857 141.165 12.0837 138.058 9.06719 138.607C8.9364 131.355 9.13222 136.315 9.98936 135.04C11.0394 133.473 8.61257 131.085 12.4503 132.897C12.232 129.501 9.14732 129.741 8.98401 129.471C8.843 129.225 9.52865 127.555 9.28417 126.989C6.39243 120.428 8.37862 123.424 7.54109 119.234C7.4666 118.86 4.73344 117.306 6.8142 116.696C10.605 115.587 12.1894 120.399 12.8264 110.112C10.0224 105.643 6.62505 112.283 5.77269 112.396C4.46805 112.558 5.81954 110.46 5.65878 109.872C5.60294 109.682 4.47867 109.855 4.46357 109.689C3.66191 101.843 9.46853 109.558 11.2967 108.194C10.8067 107.019 10.3166 105.844 9.82662 104.669C10.4914 104.622 11.1562 104.575 11.821 104.528C8.65391 102.166 11.7094 103.634 12.4991 97.281C12.6764 95.8535 10.5957 98.3016 12.9692 94.3342C11.2186 93.4183 11.777 92.1204 10.1919 93.9112C10.2328 91.3647 13.7992 88.4923 15.2059 87.1856C10.2365 84.3241 13.0704 93.6643 8.77426 88.7225C7.9776 91.8756 10.0282 91.2617 9.86098 91.7821C9.26105 93.6535 7.85466 90.6821 6.15784 97.2387C5.88155 98.3152 7.05062 101.629 5.32065 101.469C5.12931 101.446 4.02699 98.6142 4.04227 98.409C4.18841 96.1912 5.27923 97.0223 5.32427 96.0966C5.36653 95.2203 4.14954 95.7473 4.14534 95.5044C4.10794 92.7261 5.16075 94.4426 5.00784 93.5728C4.67761 91.6811 0.300104 85.7024 6.01318 87.4535C1.26786 90.5946 5.40563 90.5213 7.25359 89.3147C7.72485 89.0122 7.8442 87.3527 8.5157 86.7767C9.37946 86.0309 10.3904 86.8275 10.8374 86.5229C11.3181 86.1872 8.58677 82.2645 12.5371 83.4351C10.5266 79.5332 6.97547 83.6933 5.0006 80.9536C1.01624 75.4174 7.77867 74.2288 8.48315 73.6923C8.67083 73.5469 8.04161 71.3057 8.16672 71.1684C8.37131 70.9578 12.2093 71.9938 12.5877 70.1392C12.9651 68.2862 11.1819 70.2245 11.0634 68.2921C10.9831 66.9911 15.613 64.6835 13.1067 63.7943C11.3792 63.1848 8.19497 68.4137 7.65862 62.7932C10.1991 62.3279 12.7396 61.8627 15.2801 61.3974C13.8896 59.2589 12.4991 57.1205 11.1086 54.982C13.96 54.3038 16.4251 56.7181 19.1333 53.6567C12.6256 46.8043 21.2463 48.1881 21.3411 47.3541C21.3728 46.8554 18.8113 41.2934 18.3992 40.2761C20.6689 38.1364 27.5659 37.0909 23.5308 30.223C24.2632 31.7737 26.0368 27.9458 26.0134 27.6569C25.7882 24.6228 21.9198 26.5903 22.5508 23.85C23.2819 20.6699 24.3064 24.9841 25.4312 24.6396C31.2029 22.8434 29.6195 7.00427 35.4069 9.51064C35.2918 8.94664 35.1766 8.38266 35.0615 7.81868C41.3522 8.71635 47.6428 9.61403 53.9334 10.5117C56.3946 5.67473 62.9449 2.72934 66.1621 3.26448C66.81 3.36871 69.9905 5.90726 70.2305 6.35231C70.675 7.20526 68.2311 7.5307 69.3355 9.12994C69.5686 9.45819 74.9534 10.5248 74.5683 7.81868C73.9649 7.50491 72.0765 8.86522 71.7675 8.22757C69.5964 3.67622 86.197 7.31226 87.0194 5.47813C86.6517 4.59926 86.2841 3.72037 85.9164 2.84149C86.964 3.27388 88.0115 3.70627 89.059 4.13866ZM40.9236 221.485C40.295 224.2 38.7193 222.161 37.7882 222.923C36.5019 223.99 34.3153 234.447 35.2568 223.966C37.1457 223.139 39.0347 222.312 40.9236 221.485ZM68.5308 225.531C67.2641 224.073 68.2466 218.22 69.2848 220.653C69.4 220.93 70.2446 227.495 68.5308 225.531ZM55.2516 222.754C55.3049 222.676 56.3995 222.831 56.4378 222.923C57.4194 225.273 54.1192 224.793 55.2516 222.754ZM119.4 219.751C118.005 220.003 119.015 225.324 119.883 223.135C119.938 222.995 119.492 219.738 119.4 219.751ZM118.408 219.61C117.324 214.845 115.14 224.502 116.876 223.529C117.044 223.431 118.458 219.842 118.408 219.61ZM64.0158 223.205C64.1584 221.379 65.465 222.261 66.0229 222.697C66.0077 224.365 64.563 223.001 64.0158 223.205ZM97.1434 222.697C97.1988 221.262 92.6575 221.341 92.3481 223.233C93.0649 222.43 97.0912 223.988 97.1434 222.697ZM108.79 220.681C108.675 220.433 107.106 220.81 107.152 222.077C107.917 223.739 109.308 221.805 108.79 220.681ZM131.938 220.766C132.023 220.448 130.848 212.386 133.632 217.692C134.041 218.469 132.581 220.575 132.726 220.864C133.031 221.429 133.271 221.692 133.464 221.739C132.168 222.407 130.821 222.721 130.69 222.232C130.079 219.923 131.9 220.899 131.938 220.766ZM144.091 214.759C144.358 213.444 146.064 214.147 146.452 214.689C146.519 214.791 146.228 218.247 146.997 217.988C147.613 217.775 146.692 214.235 147.893 214.802C149.108 215.37 147.485 217.893 147.591 218.073C147.734 218.309 149.612 216.719 149.553 218.778C149.51 220.302 147.498 219.272 147 219.596C146.363 220.012 147.136 222.552 146.071 222.007C145.402 221.666 145.773 217.199 145.631 216.973C145.513 216.791 143.174 219.362 144.094 214.773C144.093 214.769 144.092 214.764 144.091 214.759ZM133.815 221.541C133.717 221.692 133.603 221.772 133.464 221.739C133.582 221.678 133.699 221.608 133.815 221.541ZM44.5834 219.525C45.2418 220.903 43.2875 222.669 42.5474 220.864C42.5346 219.409 44.4785 219.311 44.5834 219.525ZM135.017 217.904C136.944 219.023 135.527 220.562 133.815 221.541C134.359 220.7 134.371 217.53 135.017 217.904ZM80.3328 219.765C80.414 220.098 80.4655 220.617 80.472 221.471C80.2585 220.537 80.2394 220.036 80.3328 219.765ZM84.8261 221.287C86.3665 218.688 83.2368 218.793 83.2566 220.653C83.266 221.355 84.7645 221.391 84.8261 221.287ZM121.19 220.004C121.049 219.75 123.238 211.9 120.06 217.791C121.756 218.716 119.967 219.571 119.993 220.258C120.063 222.234 122.912 220.335 123.543 221.189C124.037 217.654 121.656 220.843 121.194 220.004C121.193 220.004 121.192 220.004 121.19 220.004ZM165.993 216.663C165.607 218.734 164.382 218.068 163.556 217.946C163.942 215.874 165.167 216.541 165.993 216.663ZM382.275 216.959C376.611 218.874 375.878 210.438 381.059 213.772C381.161 213.842 382.618 216.104 382.275 216.959ZM333.671 214.773C333.137 211.097 334.903 210.505 336.063 212.024C336.326 212.366 337.296 216.09 336.188 216.818C336.223 212.361 334.509 210.659 333.671 214.773ZM136.106 215.549C136.667 213.097 138.393 214.842 139.303 215.211C138.748 217.229 136.91 216.316 136.106 215.549ZM363.665 212.56C363.068 212.281 362.665 215.48 362.768 215.746C363.229 216.967 364.345 214.381 363.665 212.56ZM130.533 215.168C130.454 213.703 132.741 212.293 132.9 215.915C132.411 215.653 130.59 216.088 130.533 215.168ZM164.435 215.563C164.08 214.818 165.918 213.484 166.474 214.224C166.43 215.783 164.667 216.047 164.435 215.563ZM354.054 213.645C353.52 213.368 352.184 213.283 352.036 214.576C351.853 216.192 353.811 215.642 354.054 213.645ZM453.515 210.854C453.582 211.435 451.514 215.621 450.595 214.562C448.849 212.535 453.442 210.443 453.515 210.854ZM369.315 210.91C371.001 213.952 369.129 211.006 369.203 214.209C370.338 214.325 373.159 214.483 371.219 211.333C370.841 210.724 369.844 211.117 369.315 210.91ZM367.76 209.839C367.58 210.876 366.365 214.148 367.415 213.913C367.901 213.8 368.683 210.165 367.76 209.839ZM440.7 212.278C439.189 209.442 446.116 210.963 446.315 211.46C446.42 211.722 446.489 211.97 446.528 212.179C446.782 211.28 448.091 211.118 448.242 213.392C447.85 213.204 446.779 213.404 446.655 213.152C446.601 213.045 446.561 212.944 446.533 212.842C446.072 214.815 440.99 212.815 440.7 212.278ZM429.224 209.359C430.953 205.176 431.259 212.289 431.11 212.517C429.228 215.429 430.455 210.183 430.397 209.937C430.266 209.528 428.929 211.962 429.229 209.359C429.227 209.359 429.226 209.359 429.224 209.359ZM438.348 211.108C438.419 211.015 439.87 211.235 439.93 211.347C441.12 213.738 437.013 213.126 438.348 211.108ZM153.251 209.782C154.29 210.489 153.271 213.106 152.58 212.165C152.524 212.072 152.334 209.157 153.251 209.782ZM366.93 210.544C366.689 210.049 360.526 208.184 360.896 212.137C361.42 211.67 368.425 213.705 366.93 210.544ZM320.871 209.585C321.958 209.615 320.773 213.343 320.193 211.953C319.978 211.437 320.597 209.579 320.871 209.585ZM127.45 211.784C126.322 213.832 126.555 206.962 127.533 209.317C127.572 209.409 127.494 211.704 127.45 211.784ZM329.554 211.728C325.805 213.987 326.693 202.169 331.566 206.159C331.414 206.685 331.261 207.211 331.109 207.738C336.733 209.51 331.493 208.571 330.116 209.232C329.592 209.484 330.031 211.456 329.557 211.742C329.556 211.737 329.555 211.733 329.554 211.728ZM315.155 209.359C311.545 200.971 318.437 206.433 320.413 205.341C318.497 208.805 316.002 208.28 319.395 211.827C314.434 212.512 316.5 209.172 316.301 208.894C316.067 208.582 315.309 209.719 315.155 209.359ZM324.677 209.303C324.886 209.058 326.458 210.766 327.024 210.487C326.232 213.353 323.292 210.967 324.677 209.303ZM417.192 211.305C417.323 209.06 417.646 207.406 418.886 208.245C418.503 209.373 417.711 210.344 417.192 211.305ZM39.7302 209.669C38.8757 209.508 37.1743 208.662 37.696 211.023C37.7531 211.224 39.7276 210.994 39.7302 209.669ZM349.029 208.725C348.848 208.449 344.148 208.263 345.771 210.741C346.261 211.488 350.537 211.171 349.029 208.725ZM373.367 209.007C372.974 208.983 371.376 209.406 371.342 209.937C371.234 211.773 373.196 210.764 373.367 209.007ZM35.4195 207.371C35.307 207.138 32.697 207.551 32.9839 208.64C33.5285 210.7 35.8053 208.173 35.4195 207.371ZM157.032 204.523C157.25 204.44 157.539 206.879 157.614 206.906C157.792 206.941 161.785 206.003 160.26 209.134C160.005 209.658 154.259 208.456 153.511 208.147C153.222 204.799 155.677 207.984 156.274 207.639C156.38 207.574 156.447 204.773 157.03 204.537C157.031 204.532 157.031 204.528 157.032 204.523ZM423.656 208.936C423.833 206.808 428.528 205.398 428.473 207.977C426.868 208.297 425.262 208.617 423.656 208.936ZM421.271 208.584C420.27 207.078 422.616 206.58 423.307 207.244C423.315 208.676 421.417 208.804 421.271 208.584ZM364.462 201.054C363.99 201.575 365.441 204.681 365.117 205.284C364.909 205.66 363.855 204.496 363.518 205.468C363.423 205.776 364.498 208.696 364.809 208.57C365.251 208.401 364.823 206.104 365.305 206.088C366.906 206.039 368.325 207.677 369.825 207.639C369.961 207.631 368.91 206.009 370.066 206.032C370.244 206.032 371.317 208.448 372.7 208.09C375.754 200.607 377.996 207.955 381.871 205.256C381.725 204.551 378.827 202.661 378.656 202.591C375.417 201.361 369.614 201.226 366.222 201.21C365.351 201.203 365.774 202.787 365.399 202.845C365.102 202.888 365.455 199.955 364.462 201.054ZM40.1841 208.048C39.7768 205.118 38.3482 206.973 37.4356 206.821C37.7569 209.464 39.2924 207.399 40.1841 208.048ZM400.192 206.314C399.734 206.427 398.316 205.544 398.199 206.426C398.048 207.578 400.095 208.305 400.192 206.314ZM179.551 205.355C179.595 205.275 180.696 205.432 180.737 205.524C181.72 207.875 178.42 207.393 179.551 205.355ZM205.873 205.919C206.707 205.557 207.549 204.642 207.829 207.019C207.297 206.655 205.775 207.574 205.873 205.919ZM242.186 205.848C242.014 202.736 244.525 204.751 245 205.031C244.824 206.414 242.313 208.091 242.186 205.848ZM417.011 201.534C418.547 201.718 418.223 197.003 419.197 199.137C419.357 199.498 419.871 209.315 418.183 205.637C417.879 204.976 419.068 202.642 417.011 201.534ZM332.36 206.257C332.75 204.198 333.971 204.809 334.795 204.974C334.611 206.504 332.947 206.11 332.36 206.257ZM30.7056 205.016C29.9855 202.109 26.6583 204.266 27.4816 206.187C27.5987 206.437 30.2389 204.907 30.7056 205.016ZM140.01 206.159C141.379 203.869 138.543 203.16 137.648 205.397C138.054 205.251 139.918 206.309 140.01 206.159ZM233.464 204.156C233.529 204.063 234.981 204.283 235.046 204.396C236.235 206.787 232.128 206.174 233.464 204.156ZM197.217 202.14C197.74 200.256 201.178 201.776 201.949 203.663C201.207 206.417 196.568 204.493 197.217 202.14ZM410.694 202.873C411.789 202.776 412.828 203.356 413.834 204.17C413.623 205.757 410.809 204.058 410.694 202.873ZM238.792 203.959C238.87 203.972 238.946 204.151 239.02 204.17C238.943 204.103 238.866 204.026 238.792 203.959ZM386.177 201.759C385.259 201.133 385.449 204.039 385.506 204.128C386.196 205.069 387.216 202.467 386.177 201.759ZM39.1353 203.733C38.8171 201.111 37.2732 203.145 36.3851 202.521C36.6428 204.592 38.4199 204.009 39.1353 203.733ZM311.289 203.987C310.136 201.144 314.828 197.84 315.817 199.673C315.89 201.43 311.458 204.376 311.289 203.987ZM135.759 202.225C135.667 200.17 133.697 202.65 134.115 203.621C134.38 204.238 135.814 203.502 135.759 202.225ZM318.177 200.871C318.617 200.244 319.645 202.272 319.283 203.508C318.819 205.092 318.063 201.051 318.177 200.871ZM357.73 199.222C357.538 198.908 354.945 201.017 356.016 203.113C356.759 204.57 356.878 201.599 357.052 201.59C357.248 201.6 361.409 205.235 357.73 199.222ZM285.009 202.197C285.987 201.406 287.17 202.324 288.193 202.267C287.776 203.538 285.425 203.885 285.009 202.197ZM143.357 201.675C143.119 200.844 136.649 200.343 140.324 202.902C140.539 203.046 144.078 204.192 143.357 201.675ZM417.011 201.534C416.818 201.511 416.594 201.413 416.335 201.21C416.592 201.289 416.816 201.429 417.011 201.534ZM399.573 201.224C399.927 199.728 398.146 199.328 397.621 200.124C397.459 201.952 399.525 201.433 399.573 201.224ZM288.271 200.18C288.861 199.324 289.931 200.238 290.662 200.138C290.538 201.529 288.526 201.593 288.271 200.18ZM246.855 198.615C248.026 199.442 249.467 199.062 249.489 197.36C249.514 197.626 249.571 197.909 249.665 198.192C249.76 198.473 251.015 197.682 251.56 198.263C254.823 201.712 238.958 200.289 248.153 195.485C247.72 196.528 247.288 197.572 246.855 198.615ZM192.564 198.136C191.9 196.065 190.038 198.66 190.521 199.475C190.858 200.034 193.23 200.221 192.564 198.136ZM218.143 196.909C217.944 196.54 216.126 197.99 216.08 199.081C217.125 200.23 219.048 198.626 218.143 196.909ZM187.455 195.711C187.037 195.398 186.505 198.737 186.554 198.883C186.978 200.102 188.155 197.57 187.455 195.711ZM413.831 192.538C413.21 191.582 411.231 193.999 410.8 196.204C410.72 195.778 410.504 195.222 410.108 194.555C410.109 194.555 410.11 194.555 410.111 194.555C409.576 193.664 393.583 192.691 404.311 196.937C404.647 197.073 404.188 195.094 405.555 195.443C405.645 195.468 405.69 197.084 405.969 197.163C406.611 197.334 410.03 198.351 410.717 197.05C410.723 197.35 410.767 197.635 410.862 197.896C411.704 200.227 414.312 193.276 413.831 192.538ZM221.747 196.613C221.381 196.014 220.223 196.583 220.103 198.009C220.677 198.708 222.596 198.01 221.747 196.613ZM143.156 195.823C142.411 194.651 140.522 196.843 141.093 198.009C141.443 198.726 144.016 197.17 143.156 195.823ZM210.149 197.374C214.422 199.06 211.169 197.238 211.823 195.147C211.265 195.889 210.707 196.632 210.149 197.374ZM433.609 197.938C432.927 197.457 433.728 193.33 434.478 195.57C434.714 196.281 433.99 198.2 433.609 197.938ZM464.378 196.655C463.797 192.996 466.637 195.146 465.53 197.656C465.479 197.741 464.42 196.795 464.378 196.655ZM442.877 195.161C442.415 197.652 442.114 197.948 440.811 197.332C442.74 196.63 440.951 194.427 442.877 195.161ZM249.477 197.092C249.484 197.193 249.491 197.268 249.489 197.36C249.481 197.269 249.477 197.182 249.477 197.092ZM183.437 196.359C182.902 194.249 181.403 194.404 181.849 196.528C181.892 196.725 183.218 197.919 183.437 196.359ZM410.8 196.204C410.871 196.582 410.835 196.827 410.717 197.05C410.712 196.768 410.742 196.502 410.8 196.204ZM191.487 194.639C191.433 196.214 193.715 196.826 193.807 196.641C195.116 193.91 192.429 194.544 191.487 194.639ZM128.069 193.61C127.951 193.774 128.71 197.839 129.175 196.246C129.535 195.011 128.509 192.984 128.069 193.61ZM447.302 194.146C448.024 194.148 449.042 194.147 449.229 196.077C448.745 195.781 447.287 195.562 447.302 194.146ZM463.266 194.005C462.412 196.274 460.462 196.268 459.216 195.894C459.193 192.906 462.465 194.707 463.266 194.005ZM415.791 193.652C415.732 193.531 413.92 192.639 414.167 194.639C414.529 197.572 416.302 194.74 415.791 193.652ZM131.587 195.767C132.398 194.39 130.533 190.157 129.678 193.427C129.239 195.101 131.451 195.998 131.587 195.767ZM178.755 193.596C177.686 194.753 180.336 196.815 180.706 194.724C180.214 194.556 179.135 193.186 178.755 193.596ZM215.138 191.481C211.768 185.449 213.603 196.452 214.201 195.485C214.285 195.347 215.22 191.623 215.138 191.481ZM22.3446 192.961C21.8676 193.799 23.646 196.835 23.8761 194.837C24.0183 193.586 22.6497 192.427 22.3446 192.961ZM265.877 195.4C265.735 195.42 265.594 195.44 265.454 195.457C265.559 195.358 265.696 195.326 265.877 195.4ZM169.049 185.517C171.421 194.032 171.172 187.469 171.378 187.505C171.823 187.596 172.859 189.899 173.698 189.521C172.737 190.48 171.775 191.438 170.814 192.397C171.573 193.012 178.17 196.147 178.309 194.766C178.507 192.8 176.431 193.417 176.37 193.243C176.283 192.996 175.959 187.529 175.766 187.321C175.45 186.989 169.933 186.876 169.049 185.517ZM208.091 192.425C208.633 193.075 208.787 195.242 209.039 194.724C209.124 194.547 209.138 192.481 209.431 191.946C208.984 192.106 208.538 192.266 208.091 192.425ZM164.802 193.173C164.13 190.648 167.141 191.607 167.237 191.89C167.752 193.601 165.35 195.235 164.802 193.173ZM190.348 192.806C190.238 192.659 187.926 191.871 187.945 193.271C188.556 194.339 191.647 194.651 190.348 192.806ZM209.793 191.805C210.605 192.046 212.14 194.127 211.964 191.016C211.963 191.016 211.962 191.016 211.961 191.016C211.238 191.279 210.515 191.542 209.793 191.805ZM134.361 189.197C132.856 184.242 133.569 190.503 134.902 192.101C135.305 189.877 134.608 190.003 134.361 189.197ZM129.544 185.503C129.125 184.611 124.81 185.588 125.468 188.21C125.703 189.144 128.184 186.788 128.298 186.969C128.472 187.238 127.68 190.138 129.003 189.563C128.926 188.58 129.688 185.8 129.544 185.503ZM133.115 186.024C131.619 182.256 131.283 189.206 132.408 189.225C132.848 189.237 133.329 186.568 133.115 186.024ZM139.225 186.616C138.687 185.957 137.253 184.996 136.265 187.307C137.587 187.505 138.91 187.702 140.232 187.899C140.385 186.59 139.696 187.196 139.221 186.616C139.223 186.616 139.224 186.616 139.225 186.616ZM472.255 176.197C471.066 174.226 473.804 173.471 473.92 173.955C474.264 175.562 472.786 177.077 472.255 176.197ZM13.0614 129.823C12.7312 129.037 12.5153 126.452 11.7885 127.807C12.5196 129.715 13.2507 131.623 13.9818 133.531C14.55 129.159 13.4224 130.69 13.0614 129.823ZM10.2696 113.848C10.3729 113.742 9.80875 107.019 11.143 111.508C12.0445 114.538 7.14219 117.492 6.25728 114.511C7.23506 113.126 9.38062 114.711 10.2696 113.848ZM1.6826 84.7464C1.62608 84.2103 3.48856 83.4238 3.70414 83.8017C4.8361 85.7941 1.98842 87.6188 1.6826 84.7464ZM7.62427 86.0295C6.7508 84.7239 8.6858 83.8823 9.26247 84.6336C9.31841 85.885 7.7592 86.2197 7.62427 86.0295ZM460.22 78.8245C459.274 74.2553 458.429 84.0916 459.883 82.1098C459.953 82.0165 460.26 79.0483 460.22 78.8245ZM3.50343 77.9645C4.3769 79.2701 2.4419 80.1116 1.86523 79.3603C1.8116 78.1103 3.37044 77.7735 3.50343 77.9645ZM459.554 67.9396C458.299 64.6516 458.741 75.6868 458.898 76.1315C459.544 77.8877 461.76 73.5565 462.212 72.4797C458.896 74.1357 460.145 69.489 459.554 67.9396ZM453.764 74.5665C452.6 75.7437 455.576 77.9953 456.144 74.9189C455.565 75.0661 454.096 74.2262 453.764 74.5665ZM446.696 71.0274C446.07 70.6322 444.208 69.6859 443.895 71.4222C444.579 71.1079 446.432 72.8141 446.696 71.0274ZM445.279 65.8247C444.3 63.4653 444.065 70.3395 445.194 68.2921C445.237 68.2128 445.315 65.9559 445.279 65.8247ZM439.776 63.3431C439.134 60.6094 438.401 67.2666 439.442 67.4461C439.751 67.4872 439.844 63.6565 439.776 63.3431ZM457.983 56.0677C457.063 54.8938 455.879 59.6612 457.842 60.1848C457.152 60.9133 456.463 61.6418 455.773 62.3702C458.345 65.0425 458.156 58.431 458.894 58.7043C459.926 59.0928 459.844 64.5486 459.637 66.2617C460.483 62.9192 464.077 62.8657 466.154 62.2292C464.329 60.8265 461.366 58.3946 459.565 57.5059C459.051 57.2486 458.552 58.7448 458.113 58.5774C457.41 58.3011 458.034 56.1467 457.986 56.0677C457.985 56.0677 457.984 56.0677 457.983 56.0677ZM432.544 63.2444C430.656 60.1477 431.85 66.8337 432.916 65.6414C432.962 65.5496 432.591 63.3201 432.544 63.2444ZM1.00092 57.6469C3.52233 60.4415 1.68958 64.1455 6.96428 58.521C4.74825 62.5028 6.84173 61.3846 6.40917 62.9906C6.06217 64.2613 4.76196 63.209 5.51774 65.7683C4.52432 62.9827 0.21136 63.7532 0.0190804 63.3008C0.0208886 63.3008 0.0226967 63.3008 0.0245049 63.3008C-0.0909799 63.0329 0.196342 56.7581 1.00092 57.6469ZM446.687 53.5439C446.058 45.4313 445.811 58.3077 444.573 51.584C442.926 61.3477 449.124 51.5854 449.875 59.8323C443.143 58.8741 454.323 68.0039 449.624 55.6588C453.495 60.1394 450.892 54.1299 451.49 52.5569C452.129 50.8812 454.319 52.7023 454.207 49.6806C454.206 49.6806 454.205 49.6806 454.204 49.6806C452.864 49.892 451.525 50.1035 450.186 50.315C451.497 56.8334 448.76 54.8789 447.832 49.5678C447.45 50.8931 447.069 52.2185 446.687 53.5439ZM454.267 59.6631C454.135 59.5139 451.222 60.4274 451.41 61.7358C451.799 62.5702 455.933 61.5697 454.267 59.6631ZM467.087 58.239C466.041 58.2232 464.424 56.9515 463.854 59.4093C464.9 59.4258 466.518 60.6982 467.087 58.239ZM413.23 57.7738C411.897 59.7907 416.002 60.3881 414.814 57.9993C414.756 57.8869 413.296 57.6796 413.23 57.7738ZM443.655 54.7705C442.299 52.2913 442.94 60.1827 443.944 58.1263C444.002 58.005 443.717 54.8836 443.655 54.7705ZM3.04416 56.6881C3.13483 54.7547 6.79316 56.1127 7.44164 56.0959C7.0732 57.8931 2.94014 58.9046 3.04416 56.6881ZM468.928 51.0059C466.847 44.0538 464.023 52.0838 463.713 51.9083C463.405 51.7295 463.888 48.6905 463.818 48.609C463.658 48.4385 460.378 48.6936 460.22 48.9051C460.106 49.07 460.699 53.3406 460.022 54.6859C461.343 52.2593 467.338 53.7774 467.649 53.3042C467.89 52.9263 466.074 48.4416 468.924 51.0059C468.925 51.0059 468.927 51.0059 468.928 51.0059ZM462.939 50.9777C463.758 52.7679 461.461 52.9919 460.905 52.3313C459.669 50.853 462.834 50.7656 462.939 50.9777ZM457.413 49.3281C457.151 48.9265 454.783 48.5618 454.582 50.5547C455.703 53.14 458.008 50.2636 457.413 49.3281ZM431.065 49.596C430.45 49.8513 428.758 48.3198 428.661 50.0612C429.277 49.8072 430.968 51.3375 431.065 49.596ZM15.526 41.4886C14.5043 40.0315 16.8714 39.4362 17.562 40.1351C17.5995 41.2968 15.613 41.6138 15.526 41.4886ZM443.425 38.1188C443.061 37.5893 435.632 38.9107 434.59 39.7262C435.61 41.0432 442.972 41.1444 443.306 40.5017C443.403 40.3092 443.472 38.2022 443.425 38.1188ZM459.491 37.3152C460.172 34.7507 460.616 37.8264 460.702 37.865C461.545 38.2574 463.291 37.6793 462.908 40.1492C461.422 39.1527 458.135 42.4078 459.491 37.3152ZM430.537 37.9919C428.014 38.9436 432.859 41.6454 432.224 38.9648C432.183 38.8027 430.797 37.892 430.537 37.9919ZM444.255 37.3716C444.812 35.2994 452.242 37.0865 453.435 37.0896C452.367 40.9116 451.505 38.0085 450.07 38.2034C449.683 38.2605 449.786 39.8506 449.745 39.8531C449.074 39.9268 449.576 38.0903 449.163 38.0624C448.901 38.0499 443.472 40.2912 444.255 37.3716ZM459.88 35.5386C460.295 34.0685 464.935 33.4419 465.121 33.8325C466.518 36.7381 460.24 36.0504 459.88 35.5386ZM443.573 33.9735C444.372 29.5316 448.063 32.5064 445.537 34.7208C445.296 34.9223 444.275 32.9967 443.573 33.9735ZM430.806 33.762C430.682 33.6314 428.052 32.7435 428.005 34.1568C428.385 34.7061 432.218 35.1988 430.806 33.762ZM432.169 28.9823C432.106 29.0162 432.722 31.7382 431.489 31.3933C431.387 31.3608 431.195 28.2982 429.645 29.4193C429.331 29.6502 428.843 31.6763 428.878 31.8022C430.492 36.6085 435.353 27.4032 432.169 28.9823ZM459.965 33.0571C459.715 31.7643 460.318 27.9275 460.861 29.8705C461.095 30.7095 460.66 33.0122 459.965 33.0571ZM422.467 32.5213C423.995 30.1943 419.196 29.7544 418.952 30.3499C419.106 31.7994 422.314 32.7486 422.467 32.5213ZM17.9182 23.5257C17.917 23.5257 17.9158 23.5257 17.9146 23.5257C19.2006 24.053 18.404 25.9887 18.4643 26.0495C21.2035 28.8928 20.477 24.5084 20.9053 23.991C21.8238 22.8719 21.6758 28.2037 23.2252 25.9931C20.6641 29.2575 22.9953 27.8891 23.0679 29.7859C23.3549 37.5269 19.658 26.1613 18.3811 27.7838C18.2032 28.0085 19.5168 30.479 19.061 31.1818C17.5789 33.4591 12.9835 21.5094 17.9182 23.5257ZM461.281 29.5322C461.877 27.2584 466.403 29.4637 465.203 31.3369C465.01 31.6372 460.404 32.8463 461.281 29.5322ZM249.887 26.1764C250.975 24.2087 248.454 21.8954 247.987 23.427C247.755 24.19 249.409 27.04 249.887 26.1764ZM232.214 17.7589C230.922 18.1584 229.559 26.3642 231.167 25.0908C231.338 24.9516 232.362 18.8972 232.214 17.7589ZM317.075 21.9747C315.726 19.0422 315.806 24.4908 316.797 24.414C317.147 24.3877 317.118 22.0675 317.075 21.9747ZM265.571 22.6797C265.436 22.4895 263.876 22.8374 263.933 24.0897C264.51 24.841 266.445 23.9853 265.571 22.6797ZM317.504 21.1992C316.704 22.1812 318.081 26.1221 319.059 22.2708C318.562 22.5867 317.586 21.0989 317.504 21.1992ZM440.785 21.9324C440.115 24.1697 438.22 23.4937 437.131 23.8782C437.014 20.9796 440.007 22.4579 440.785 21.9324ZM237.7 21.0583C236.477 23.1011 239.098 24.7737 238.857 22.0734C238.824 21.9267 237.748 20.9711 237.7 21.0583ZM360.613 20.9032C359.723 22.6322 362.547 24.9574 361.77 21.9183C361.732 21.7944 360.661 20.807 360.613 20.9032ZM372.943 21.9042C372.268 21.321 369.391 21.5004 370.511 23.1873C370.684 23.4465 372.892 23.4879 372.943 21.9042ZM20.9813 21.9042C20.6177 18.9267 22.7278 19.6355 23.0299 20.1559C23.1486 20.3723 21.4554 25.7782 20.9813 21.9042ZM308.311 21.5094C307.613 21.882 305.802 21.174 305.483 22.7361C306.337 22.4128 308.541 24.6211 308.311 21.5094ZM243.278 21.0442C242.213 17.8086 240.393 18.128 240.843 22.3554C242.853 22.0721 240.594 18.5556 243.278 21.0442ZM322.001 17.7166C321.441 17.4698 321.012 21.5297 321.075 21.7209C321.682 23.5407 322.557 19.2962 322.001 17.7166ZM279.984 21.0583C279.952 19.3233 278.157 20.1107 278.397 21.2274C278.475 21.6023 280.01 22.4623 279.984 21.0583ZM417.279 20.9454C416.457 19.3618 418.968 17.8136 419.711 19.6624C420.072 22.3263 417.383 21.1273 417.279 20.9454ZM337.528 18.7318C337.611 16.157 334.806 17.6128 335.911 19.747C336.188 20.281 337.498 19.5927 337.528 18.7318ZM364.384 15.644C362.503 18.7144 370.405 20.8943 368.328 17.0681C368.18 16.7954 364.548 15.3847 364.384 15.644ZM377.289 17.5615C376.965 17.2232 377.127 8.57127 378.47 11.9076C378.647 12.3403 377.822 14.6274 377.966 15.1505C378.05 15.4486 380.972 16.6637 381.106 16.4618C381.251 16.2324 381.081 13.4594 381.228 13.1483C381.393 12.8007 383.191 15.2367 384.133 15.2633C385.908 15.309 386.1 13.0009 386.245 12.9932C386.669 12.978 387.382 14.6167 388.242 14.6147C392.574 14.5963 399.2 12.6399 402.635 17.5333C399.578 15.5682 396.666 17.6532 393.624 18.2947C394.515 13.4769 389.15 22.0068 392.288 16.4477C390.843 17.6535 378.354 18.6179 377.293 17.5615C377.292 17.5615 377.291 17.5615 377.289 17.5615ZM227.113 15.3338C227.907 12.3797 223.833 13.0442 223.488 16.4618C224.026 16.9361 227.015 15.6686 227.113 15.3338ZM245.907 8.12886C246.286 7.61896 246.645 1.84473 248.629 4.77315C248.631 4.77315 248.632 4.77315 248.634 4.77315C249.214 5.62836 248.553 7.03534 248.659 7.53668C248.698 7.74139 250.507 10.6138 249.005 11.0757C246.713 11.7844 248.789 6.78003 247.567 6.7189C247.418 6.71417 245.106 9.83972 245.24 10.5258C245.254 10.6057 245.95 9.94453 246.065 10.2297C246.499 11.3017 246.287 13.1048 246.349 13.1906C246.549 13.4105 250.205 10.3386 250.737 13.0215C250.91 13.8866 244.908 15.8823 244.674 15.4325C244.526 15.149 244.589 10.1439 244.436 9.65163C244.357 9.40643 241.943 11.282 241.629 10.8219C241.538 10.6888 241.469 10.5453 241.418 10.4271C241.783 11.9756 239.597 11.8641 239.664 10.1169C239.702 9.43019 241.207 9.82768 241.26 9.94772C241.284 9.99854 241.305 10.0686 241.324 10.1169C241.012 8.22975 246.107 8.31488 245.007 5.50633C246.484 3.96777 244.797 9.62637 245.907 8.12886ZM253.006 5.04105C252.854 5.56743 252.701 6.09381 252.549 6.62021C255.134 5.3318 258.118 7.86575 261.096 7.84688C261.852 7.84592 260.982 4.62662 261.973 5.50633C262.767 6.21133 263.645 9.19734 263.213 9.86313C263.108 10.0292 261.492 8.08437 260.684 8.28397C258.296 8.87486 258.9 11.6356 258.76 11.7102C258.606 11.7887 257.103 9.84717 256.283 9.93362C254.22 10.1571 253.277 11.8521 250.459 9.63753C252.085 7.81804 251.194 3.86533 253.006 5.04105ZM349.377 10.9206C349.475 9.18291 351.167 10.7246 351.781 10.4694C351.685 12.2114 349.992 10.6653 349.377 10.9206ZM97.2519 8.66466C96.7322 11.5162 100.627 12.2222 99.6007 9.84903C99.3736 9.32233 97.7413 8.68494 97.2519 8.66466ZM114.75 10.3989C115.271 9.61053 113.173 7.55748 113.176 9.76442C113.18 10.4721 114.682 10.5014 114.75 10.3989ZM286.427 7.84688C286.525 7.75758 287.959 8.39268 288.004 8.53775C288.953 11.5655 284.236 9.81555 286.427 7.84688ZM136.021 6.88809C134.205 8.75714 139.671 9.56723 138.001 7.18419C137.918 7.06812 136.108 6.79726 136.021 6.88809ZM143.619 6.36641C143.184 6.46658 141.25 5.53856 141.225 6.40871C141.186 7.8125 143.399 8.77168 143.619 6.36641ZM322.379 6.94449C322.169 3.73158 324.718 6.16472 325.605 5.76013C325.815 8.97528 323.265 6.53876 322.379 6.94449ZM306.288 4.57576C317.035 2.04298 314.666 8.90755 305.648 6.14081C305.635 4.07962 305.61 4.73526 306.288 4.57576ZM320.05 4.95645C319.659 7.01476 318.439 6.4044 317.614 6.23952C317.762 4.80846 319.455 5.32637 320.05 4.95645ZM92.6139 4.25146C93.2879 1.65134 96.2728 4.85684 95.7421 5.92932C95.6185 6.16093 92.3664 5.68135 92.6139 4.25146ZM287.327 5.09744C287.077 1.97278 290.304 3.24733 290.551 3.94127C291.547 6.73247 287.589 4.40779 287.327 5.09744ZM337.633 4.19507C338.202 1.74756 339.821 3.00641 340.862 3.03889C340.388 5.13168 338.516 4.23909 337.633 4.19507ZM330.118 2.27751C330.183 2.18356 331.635 2.40453 331.7 2.5172C332.889 4.90773 328.782 4.29552 330.118 2.27751ZM16.1353 0.0215607C16.1837 -0.057312 17.2832 0.0987549 17.3215 0.190765C18.3029 2.54059 15.003 2.06044 16.1353 0.0215607Z" fill="var(--stroke-0, #CADE8A)"/>
</svg>
