<svg preserveAspectRatio="none" width="100%" height="100%" overflow="visible" style="display: block;" viewBox="0 0 467.309 218" fill="none" xmlns="http://www.w3.org/2000/svg">
<path id="Line 20" d="M36.1584 216.259C36.4476 215.982 37.6106 216.655 38.114 216.538C37.5433 219.463 35.1155 217.263 36.1584 216.259ZM87.8018 3.90575C87.384 4.62872 86.9663 5.35168 86.5486 6.07466C87.7357 6.54442 89.3313 6.01378 90.4329 6.70004C90.6131 6.81529 90.1457 8.90855 90.572 9.00201C90.9985 9.09489 90.9162 6.23427 91.5364 5.92828C92.2321 5.59377 95.4175 7.58669 96.5207 7.53833C100.647 7.34523 104.808 5.71158 108.942 6.89964C104.674 9.01601 108.975 11.17 110.17 10.2528C110.435 10.0404 110.393 4.72231 114.675 6.06136C117.397 6.9111 114.883 14.5141 119.424 10.7052C115.932 5.38637 119.366 5.75914 122.103 5.58234C122.575 5.55101 126.387 6.35013 128.07 6.11458C128.646 6.03265 129.524 3.24701 130.288 3.17392C130.813 3.12569 131.211 4.64861 131.992 4.57106C135.632 4.2278 139.211 4.10938 142.857 4.62428C140.726 11.7827 144.53 7.67513 144.7 8.01736C145.569 9.96094 141.64 10.5142 143.194 11.7298C145.365 11.508 147.537 11.2862 149.708 11.0645C147.926 10.1855 152.067 5.03638 152.829 7.37866C152.494 1.05319 162.725 12.8841 164.283 10.7717C164.607 10.3255 162.484 7.19928 167.409 8.62944C167.943 8.78835 167.741 10.6968 168.021 10.5189C168.189 10.4119 169.203 4.34612 170.283 7.69801C170.678 8.9214 168.153 12.9053 173.697 11.304C171.489 5.13017 181.383 7.96048 183.204 9.50764C182.84 8.67824 182.476 7.84882 182.113 7.01939C183.912 9.25687 184.237 7.15781 184.642 7.27222C186.276 7.73169 188.522 9.84706 190.044 9.65402C191.825 9.43192 191.831 5.59241 193.907 7.08592C193.414 6.23877 192.922 5.3916 192.429 4.54445C193.863 4.74847 195.297 4.9525 196.73 5.15652C193.41 10.239 197.447 5.39902 197.713 5.2896C198.137 5.10461 197.527 7.18535 198.237 6.92625C198.31 6.88361 198.204 4.92419 199.298 4.70412C201.582 4.25102 201.221 6.7146 202.18 6.68674C202.268 6.67404 201.96 4.90883 203.617 4.49123C208.882 3.1618 203.591 5.84396 203.389 6.08797C203.123 6.40977 204.929 13.7867 200.456 11.1709C201.958 12.0036 202.109 15.268 202.278 15.3491C202.428 15.4157 205.03 14.9559 205.173 14.8434C206.452 13.7349 205.327 11.5041 205.576 11.1044C205.78 10.7821 208.915 13.6892 209.649 6.97948C211.149 13.1684 208.786 12.6014 206.271 13.5527C205.904 14.8227 208.666 16.0577 208.811 16.0543C212.374 16.043 210.402 10.9522 211.181 7.69801C211.59 5.99535 213.041 9.46846 211.701 4.90372C214.935 4.42188 212.974 7.06703 213.183 7.4585C213.498 8.03365 214.629 6.72537 214.771 6.89964C214.979 7.15762 214.256 8.73807 215.076 9.29475C215.212 9.3757 216.533 6.65605 214.83 5.35612C217.105 5.74275 216.917 3.42371 217.689 8.0972C219.256 -0.744476 218.826 13.3234 219.443 13.8188C221.084 15.1248 220.608 8.18289 220.695 7.84438C221.292 5.67508 225.834 8.05975 226.959 7.05931C226.515 12.0593 223.358 7.11391 222.652 8.08389C220.298 11.311 225.969 10.5837 224.26 16.866C224.977 15.1406 225.693 13.4152 226.41 11.6899C227.724 15.7291 225.86 17.4904 229.396 16.0144C229.974 12.528 226.896 16.565 227.513 13.8188C227.877 12.2071 229.928 11.861 229.968 11.0112C230.008 9.9884 228.155 11.2006 228.447 9.62741C229.085 6.23244 235.844 9.46443 230.699 11.3173C232.134 11.2593 232.873 18.0119 234.118 15.9079C234.923 14.5422 230.395 5.21605 237.188 6.92625C237.332 10.1149 234.472 7.86784 234.398 8.1105C234.293 8.46373 234.811 15.6592 234.901 16.0144C235.217 17.1837 242.154 13.3307 243.619 16.9458C243.039 12.7871 248.861 16.2037 249.495 14.9366C249.664 14.5867 249.033 12.0393 249.213 11.7697C250.339 10.1649 253.384 14.7123 254.797 14.8301C256.377 14.9636 256.177 12.7635 256.266 12.7677C256.961 12.8904 256.405 14.3819 256.831 14.3777C257.473 14.3705 261.887 14.6756 262.109 14.3644C262.174 14.2674 261.453 11.7541 262.416 11.2774C262.582 11.1948 262.477 14.1746 265.327 12.8874C268.759 11.3393 262.943 9.18185 264.37 6.06136C266.574 10.5045 266.503 6.10152 267.1 6.44724C267.308 6.57315 268.848 10.3166 270.521 10.0798C269.32 10.6875 268.12 11.2951 266.919 11.9028C268.099 12.5592 270.392 11.7467 271.365 12.4882C271.839 12.8492 271.448 15.9245 272.479 15.8414C272.698 15.807 273.566 8.31473 270.865 11.6766C270.65 9.00128 271.934 10.7434 272.53 9.98666C272.621 9.86876 272.976 5.39941 273.737 8.17703C273.92 8.86041 271.93 21.8978 277.062 12.4616C277.227 12.1575 276.653 10.5247 276.814 10.1863C276.925 9.95705 278.235 10.6175 278.379 10.3858C278.527 10.1373 277.895 8.3548 278.071 8.00406C278.974 6.19669 280.16 13.2664 278.297 12.7277C278.92 13.6015 279.543 14.4753 280.166 15.3491C279.499 10.0208 281.144 13.8499 282.005 13.6858C287.527 12.6371 283.83 9.17165 284.779 7.37866C286.306 4.49983 285.14 13.618 287.407 10.8782C287.616 10.622 284.876 6.7515 290.227 8.93549C289.437 9.08629 288.647 9.23709 287.858 9.38789C288.313 14.5415 290.709 9.03438 290.894 8.9621C292.995 8.25447 291.574 10.1123 294.694 7.4585C294.973 7.22023 295.58 8.49211 296.176 7.85768C298.645 5.24394 292.917 6.27162 292.76 4.18518C292.686 3.16284 298.847 3.4203 299.058 3.90575C299.956 6.05763 296.265 4.85355 296.969 7.52502C297.226 8.4736 306.006 6.52538 307.768 7.56494C309.801 8.77467 310.716 15.7619 310.729 7.9109C311.303 15.6174 311.809 10.3594 312.07 10.4125C315.213 11.1259 315.219 11.2036 317.915 10.4657C318.51 10.3053 319.013 12.6436 319.223 12.2487C319.346 12.0103 319.117 9.50795 319.717 8.73589C320.551 7.67969 325.563 10.2534 325.935 11.6366C326.308 13.0199 323.819 12.2365 324.265 14.5108C326.066 14.7407 327.794 14.1779 329.607 14.4176C330.36 14.524 329.974 16.1158 330.299 16.1474C330.437 16.167 333.039 14.7653 332.928 14.1781C332.67 12.8128 324.638 13.7306 326.753 10.9447C327.161 10.4064 328.603 14.0745 328.374 9.61411C335.55 10.6254 342.725 11.6366 349.901 12.6479C345.778 15.9841 341.138 13.0004 336.82 13.3132C336.228 13.3518 334.227 12.9216 334.47 15.1761C338.143 15.7597 342.708 14.5851 346.234 16.0543C346.347 16.1029 345.933 18.1284 346.355 18.4494C347.145 19.0485 349.718 15.7817 350.151 16.6264C350.224 16.8232 348.761 19.4935 349.206 21.1905C350.349 25.5453 350.639 15.9001 351.621 16.0144C352.381 16.1068 357.487 20.7704 358.759 17.824C360.111 14.6834 354.996 16.0007 355.374 13.433C358.835 10.8525 362.339 13.6081 365.61 13.2866C365.667 13.2784 365.167 11.2662 365.897 10.9846C367.166 10.4947 367.5 13.3489 368.118 13.8055C368.784 14.2916 371.142 13.8826 371.457 14.9233C371.497 15.0597 371.019 17.8908 370.947 17.9704C369.92 19.1372 369.555 15.4628 369.462 15.4156C369.111 15.2763 368.766 16.6837 368.446 16.5998C367.919 16.4601 367.628 15.158 366.932 15.043C366.452 14.9589 366.916 17.4593 366.453 17.345C366.283 17.2929 364.451 11.5833 364.28 17.4115C364.227 19.2491 379.211 21.609 380.709 20.1393C379.424 19.4385 378.139 18.7377 376.855 18.0369C379.463 19.7428 382.597 15.086 382.819 21.9755C392.494 22.5388 402.168 23.1021 411.843 23.6654C413.57 24.2524 412.623 28.6797 415.465 27.3911C414.73 25.9807 413.996 24.5702 413.262 23.1598C414.718 24.1492 421.173 26.0823 422.218 25.169C422.353 25.0493 422.541 21.0424 424.154 20.6981C425.585 20.3942 425.815 23.3964 426.58 23.9715C427.222 24.446 427.944 23.6593 428.134 23.8251C428.281 23.9578 428.339 25.7936 428.69 26.1138C429.802 27.1035 428.901 21.9345 430.004 27.8702C429.736 28.0964 429.467 28.3226 429.198 28.5488C430.54 29.4079 432.372 32.1026 430.396 33.4321C430.057 33.6617 430.348 31.8856 430.095 31.8886C420.175 32.2187 428.097 35.6713 431.573 32.9132C432.466 35.5449 437.47 33.9381 437.636 34.4567C437.867 35.2079 437.011 37.3111 438.133 39.1272C438.369 39.5116 445.059 38.038 442.65 41.5356C442.153 42.2571 438.946 41.4991 438.172 41.6021C439.992 47.18 444.257 39.1885 444.736 39.3933C446.671 40.2626 441.02 44.2273 445.378 44.8754C448.729 45.3728 445.583 41.6484 446.872 40.0586C447.596 39.1666 451.388 43.2696 451.286 37.9562C452.587 37.3889 451.825 40.2022 451.986 40.4046C452.143 40.5825 454.703 38.9919 455.534 40.1118C455.634 40.2511 455.317 43.0128 455.421 43.2388C455.624 43.6257 458.092 43.0736 458.191 42.8396C458.255 42.677 457.666 40.2591 457.908 39.6727C458.19 38.9966 460.565 39.5656 460.696 38.8744C460.881 37.8293 457.949 38.5178 458.437 35.8139C459.789 36.4948 461.991 34.6907 462.883 32.514C462.665 33.1364 461.354 33.2257 460.899 33.0063C461.113 29.0464 463.927 29.1003 462.965 32.2346C463.577 30.5513 463.159 29.6583 463.504 28.0698C463.594 27.6674 464.463 27.5845 464.63 26.8988C464.652 26.7622 463.756 25.2681 463.935 24.4638C464.26 23.0103 466.894 23.3373 467.11 23.7186C467.717 24.7992 465.569 26.1067 465.39 27.777C465.364 28.0335 467.191 31.3068 467.219 31.5959C467.326 34.6975 465.293 32.4623 465.525 35.2551C466.028 35.845 466.531 36.4349 467.033 37.0248C465.094 39.8529 461.507 38.3987 460.582 41.6154C463.457 40.6582 466.466 40.7714 466.459 48.0157C466.457 51.0667 465.217 52.8552 465.265 53.6309C465.448 56.4066 467.17 53.3912 467.233 53.5378C467.285 53.7069 467.309 53.8716 467.309 54.0319C467.309 54.032 467.309 54.0321 467.309 54.0321C467.309 55.6573 464.855 56.8275 464.732 57.5695C464.526 58.8877 465.618 64.3132 465.616 65.5133C465.578 65.7544 463.83 67.0384 464.42 69.1326C465.017 71.2479 466.547 71.2946 466.6 71.5144C466.892 72.7798 464.216 73.9339 464.137 74.6813C464.095 75.0591 465.532 77.3804 465.573 78.0477C465.609 78.7174 464.517 80.1786 464.087 82.2924C463.766 83.8628 464.7 85.0667 464.536 85.3129C464.418 85.4761 461.89 85.4493 461.766 85.7254C461.581 86.1337 462.173 88.0105 462.087 88.4798C461.964 89.1547 461.148 88.4773 461.254 89.1717C461.334 89.6892 464.499 96.159 464.479 97.8872C464.443 100.835 461.091 94.0528 464.21 105.685C464.232 105.761 464.991 104.934 465.012 105.006C465.48 107.146 463.046 110.438 466.023 109.863C460.486 113.58 465.334 114.294 464.515 119.257C464.198 121.165 462.052 121.951 462.042 122.238C462.251 124.658 462.934 122.781 463.167 123.967C463.295 124.63 461.375 127.189 461.807 128.851C462.03 129.707 464.069 129.402 464.153 129.569C464.959 131.145 463.97 132.841 464.147 133.96C464.265 134.71 465.495 134.77 465.527 134.905C465.579 135.186 463.909 138.217 463.561 139.283C463.296 140.103 464.289 141.387 464.105 141.744C462.993 143.882 460.627 138.431 462.907 146.069C463.046 146.537 463.908 146.348 463.933 146.441C464.466 148.607 462.879 148.794 462.595 150.566C462.107 153.621 464.389 151.918 462.491 154.066C463.915 156.063 464.708 155.98 466.374 155.423C461.761 156.976 460.134 164.883 465.254 164.684C463.625 164.561 463.806 169.023 463.32 169.102C463.018 169.145 460.656 164.709 461.739 174.664C461.875 175.907 463.31 174.327 462.86 176.873C459.417 176.223 462.787 178.492 462.791 178.829C462.746 184.693 454.332 179.89 452.886 180.558C451.209 181.334 449.718 185.955 449.353 185.961C448.153 185.963 449.149 183.617 448.881 182.754C448.609 181.899 445.197 186.394 445.027 186.147C444.366 185.156 445.037 182.375 444.968 182.235C444.15 180.531 439.567 182.708 438.285 182.062C438.324 183.866 440.9 184.009 439.292 186.905C437.419 190.283 437.312 182.332 437.263 181.982C428.684 182.058 420.105 182.133 411.525 182.208C411.632 186.438 417.241 183.248 417.369 183.805C418.118 187.102 408.643 187.042 407.48 185.548C408.364 186.462 409.246 187.376 410.13 188.289C408.622 193.152 405.285 186.834 403.104 188.981C402.4 189.677 403.753 191.554 403.724 191.682C402.933 193.571 401.662 192.116 402.612 189.58C400.679 192.01 400.961 189.329 399.478 189.128C399.402 189.119 400.039 191.082 398.865 191.895C398.315 192.275 395.382 192.281 394.989 193.998C394.828 194.72 396.316 202.331 396.499 195.781C399.689 198.974 397.519 192.796 398.758 192.946C398.948 192.981 398.511 196.637 401.632 194.916C401.037 201.509 397.443 196.579 396.827 197.377C395.557 199.019 400.792 202.424 401.753 197.284C401.304 202.429 402.124 197.978 403.291 198.189C404.569 198.418 404.012 199.951 404.703 199.959C406.593 199.997 405.81 196.366 407.368 199.639C405.849 189.504 410.036 198.302 411.256 200.957C409.271 201.471 407.286 201.986 405.3 202.5C405.414 203.033 405.527 203.565 405.641 204.097C405.118 204.022 404.595 203.946 404.072 203.871C404.156 203.361 404.24 202.851 404.323 202.341C401.627 205.657 400.969 201.93 400.749 201.888C397.919 201.456 394.65 201.488 391.788 201.476C391.358 201.474 391.653 204.791 388.524 202.194C387.526 201.367 388.468 198.787 387.337 199.174C385.921 206.186 385.948 200.593 385.527 200.584C384.32 200.585 383.582 202.322 383.47 202.341C381.978 202.612 379.793 202.322 378.154 202.58C378.123 202.607 378.976 204.761 377.912 204.124C377.538 203.896 374.185 194.699 371.254 197.697C372.016 198.318 372.778 198.939 373.541 199.56C372.644 198.692 366.363 201.01 367.899 203.472C368.84 204.976 371.139 199.048 371.391 204.749C369.3 203.043 357.756 205.595 356.857 204.27C356.733 204.081 357.497 202.231 357.326 201.995C357.193 201.814 354.548 202.253 354.197 201.542C353.988 201.12 355.157 199.987 355.062 199.32C354.979 198.845 351.676 198.053 351.488 200.371C352.299 199.441 354.578 200.253 353.382 202.208C353.229 202.45 352.432 200.955 352.245 201.263C350.512 204.104 355.692 203.422 356.493 203.445C353.24 206.399 348.207 202.917 344.437 204.842C342.914 202.913 346.696 201.89 344.972 200.291C341.396 196.978 344.021 202.96 343.909 203.206C343.021 205.152 339.996 194.719 339.995 202.66C338.698 201.465 339.118 200.463 337.289 201.502C337.529 202.052 337.77 202.602 338.011 203.152C335.98 207.752 331.681 196.147 332.003 195.262C332.869 192.893 335.108 196.588 335.299 196.499C335.582 196.368 336.365 188.309 339.462 195.515C340.73 190.11 334.553 191.867 337.364 188.183C335.465 188.787 327.656 185.026 326.532 187.398C326.398 187.708 327.023 193.093 325.094 190.352C324.178 189.047 326.386 188.984 325.967 187.757C324.678 183.992 307.139 186.4 303.807 186.599C303.591 186.605 303.67 184.934 303.458 184.949C302.805 184.996 300.426 187.488 299.258 186.719C301.678 189.813 296.977 190.053 295.782 189.713C293.967 189.195 294.079 186.254 293.295 185.628C290.273 183.217 285.59 190.2 283.242 183.672C283.371 190.151 279.182 180.496 277.276 180.439C275.783 180.392 273.617 184.68 275.632 187.291C273.055 186.993 270.343 188.202 267.926 188.595C267.526 188.661 268.076 186.746 267.395 186.919C267.333 186.948 267.247 188.826 266.662 189.021C261.829 190.658 264.181 186.668 263.277 185.495C262.771 184.838 262.397 184.512 262.123 184.404C264.94 184.037 268.189 183.3 269.058 183.246C268.317 179.1 262.815 184.043 261.204 182.927C261.148 182.886 261.342 180.601 261.286 180.585C261.284 180.585 261.283 180.585 261.282 180.585C260.678 180.41 256.832 181.253 257.624 183.978C257.836 184.706 259.607 184.705 261.706 184.457C261.138 184.968 261.562 187.528 261.462 187.637C260.246 188.903 257.267 186.404 256.21 186.067C255.969 185.993 255.986 187.633 255.946 187.637C254.985 187.265 255.38 182.582 254.394 187.411C252.653 181.575 257.656 186.545 257.303 182.754C257.032 179.836 245.922 181.403 245.955 186.001C245.916 185.509 245.764 184.899 245.45 184.204C244.755 182.662 241.663 183.144 241.129 183.991C241.039 184.158 241.075 188.621 240.963 188.662C240.684 188.764 236.904 185.266 235.492 187.903C236.255 188.529 237.017 189.154 237.78 189.78C233.176 189.818 233.887 191.146 235.421 192.481C235.498 192.493 235.572 192.662 235.646 192.68C236.835 193.667 238.359 194.617 238.382 194.969C238.469 196.312 230.658 197.06 232.161 192.92C232.37 192.354 235.984 194.197 234.195 191.243C233.882 190.726 231.56 191.569 231.439 191.243C230.623 189.079 235.691 186.203 235.072 183.127C233.842 186.055 232.263 184.513 230.852 185.269C230.21 185.611 230.052 187.848 229.973 187.89C228.79 188.474 229.454 186.128 229.059 186.187C228.847 186.227 226.514 191.22 226.955 184.337C219.27 189.4 224.829 189.395 229.544 189.008C228.054 191.515 225.134 190.302 223.823 190.884C223.353 191.095 223.632 193.392 222.837 193.851C221.203 194.796 213.398 192.158 211.364 191.536C212.613 190.725 212.248 188.223 211.284 188.396C210.32 188.57 211.13 191.909 210.942 192.268C210.74 192.64 206.218 191.063 205.465 191.496C208.87 190.287 208.102 187.792 205.212 187.531C205.63 186.812 206.048 186.094 206.466 185.375C204.772 186.385 201.211 182.579 200.232 183.712C200.078 183.894 200.63 185.992 200.544 186.094C199.685 186.985 196.763 184.846 196.627 185.562C196.512 186.157 197.758 187.916 197.296 188.782C197.199 188.964 195.997 186.129 194.814 186.826C194.375 187.082 194.639 189.066 194.529 189.181C193.607 190.135 194.151 186.794 192.466 187.331C191.232 187.729 190.313 190.994 188.607 189.913C194.208 194.076 189.5 192.337 187.158 193.598C186.782 193.8 187.104 197.401 184.862 195.648C189.634 189.136 183.501 192.206 182.246 192.135C182.178 192.113 182.154 189.738 181.539 189.7C181.487 189.702 181.562 191.307 180.99 191.43C175.566 192.59 179.034 190.777 178.004 189.194C177.565 188.52 174.928 190.789 174.217 190.844C174.054 190.85 174.129 189.182 173.497 189.247C172.379 189.367 171.378 191.142 170.64 191.283C170.554 191.291 170.55 188.66 169.151 189.514C168.758 189.752 168.316 190.686 168.875 191.443C170.727 193.931 174.241 189.625 176.335 192.108C178.245 194.37 172.224 194.583 171.911 194.596C171.796 194.605 172.972 193.298 171.777 193.04C170.757 192.824 168.892 197.369 167.372 196.379C167.256 196.306 166.041 192.453 166.097 192.228C166.148 192.064 168.014 191.227 167.743 190.112C167.71 189.985 166.525 190.011 166.37 189.181C166.181 188.17 165.67 178.252 165.416 178.004C164.767 177.389 165.19 179.651 164.769 179.494C163.868 179.162 160.742 176.229 160.641 179.667C161.157 179.871 161.674 180.075 162.19 180.279C159.317 180.633 160.542 182.096 160.134 182.741C159.696 183.438 159.819 180.416 158.851 180.133C158.64 180.07 154.588 180.701 154.662 181.969C156.903 179.951 156.072 183.685 156.175 183.752C156.568 183.995 157.069 181.901 157.596 181.942C161.301 182.27 157.565 185.576 158.439 186.426C158.74 186.713 159.34 184.925 159.468 185.016C159.883 185.312 159.89 187.654 160.167 187.464C160.813 187.025 160.058 183.711 160.11 183.539C160.687 181.466 162.95 184.045 161.541 187.651C162.387 188.95 162.486 184.568 163.156 186.32C164.489 189.789 162.492 188.898 161.951 189.474C160.01 191.551 159.434 189.869 156.687 190.445C155.697 190.648 154.525 192.776 154.066 192.893C153.777 192.967 151.047 185.561 150.966 197.151C149.905 196.03 148.24 188.392 147.146 188.742C146.164 189.06 146.477 193.161 146.385 193.319C146.245 193.568 145.057 193.245 144.656 193.825C144.185 194.509 144.42 196.074 143.674 196.712C141.816 198.295 141.864 194.11 141.673 193.838C139.457 190.694 140.427 196.647 139.935 197.125C139.478 197.563 133.061 195.272 131.71 196.779C132.26 195.94 132.81 195.102 133.359 194.264C132.376 191.653 131.333 195.911 131.314 191.23C131.115 198.788 129.085 193.736 128.475 193.931C128.234 194.012 128.253 195.299 127.952 195.355C126.777 195.581 124.128 194.556 123.49 195.209C120.734 198.02 127.782 202.697 128.337 202.979C127.227 202.896 120.942 204.589 123.831 208.222C124.277 208.783 125.069 205.4 125.319 205.268C127.017 204.397 125.682 207.428 125.815 207.716C126.041 208.182 127.158 205.252 127.453 205.601C127.552 205.713 126.918 208.457 128.537 208.515C127.741 211.175 123.191 209.008 122.594 209.632C122.381 209.856 123.714 215.541 119.82 210.018C119.865 210.546 119.91 211.074 119.955 211.602C117.787 211.819 115.619 212.036 113.451 212.254C113.686 211.038 114.904 208.595 113.37 209.113C112.487 209.413 113.141 212.122 113.06 212.201C112.268 212.946 98.2468 212.045 95.5295 212.347C94.6053 212.445 92.0288 214.622 91.8323 214.662C90.6576 214.88 86.4978 213.463 85.6679 213.771C85.1497 213.968 85.6424 216.232 85.1795 216.126C84.7492 216.024 85.1949 213.836 85.0672 213.744C84.0086 212.951 75.967 215.821 74.0575 213.757C75.2246 214.377 81.0485 210.005 80.9314 208.461C80.9061 208.25 79.4907 206.585 79.1987 207.397C78.7163 205.502 77.0601 211.271 76.1593 210.138C76.0574 210.009 76.4586 206.773 74.8508 206.186C74.297 205.985 72.8467 208.508 71.3871 205.68C69.2741 207.039 58.1645 202.842 57.4023 206.319C57.3797 206.503 58.9441 207.7 57.8871 209.127C56.482 211.023 57.7439 204.635 56.1063 204.084C55.8595 204 51.3032 204.646 51.1541 205.042C49.7741 208.627 53.7554 210.081 53.6997 210.497C53.5609 211.547 50.2528 212.182 50.1184 211.934C49.9904 211.677 52.6882 206.926 49.4463 208.728C49.8177 209.295 50.1891 209.863 50.5605 210.431C49.0358 211.536 48.8904 208.25 48.5211 208.049C47.3729 207.413 46.1306 212.406 44.2909 206.239C43.8044 204.603 44.612 202.786 44.5511 202.54C43.9668 200.338 43.2212 206.23 42.3424 201.835C42.2763 201.507 44.3213 198.874 40.747 198.868C40.993 199.289 41.239 199.71 41.485 200.132C40.981 201.073 37.3619 201.632 36.8751 201.409C35.4528 200.759 36.6931 197.734 35.2635 198.096C36.1805 202.241 31.8333 202.782 32.0833 199.214C31.4761 203.696 27.7832 200.238 26.0473 200.132C24.9519 200.068 22.7177 202.024 22.3697 201.795C21.9457 201.515 22.0745 198.457 21.309 197.777C21.0907 197.582 18.8117 199.824 16.8114 196.659C16.4237 196.049 15.6095 190.863 16.33 189.567C17.5634 187.349 19.8966 191.527 19.8668 188.462C19.8318 185.184 16.6892 187.134 15.8434 186.706C11.9383 184.727 14.1933 181.242 14.0928 180.186C13.8324 177.622 11.6986 177.702 11.6096 177.471C11.2406 176.448 12.7526 174.419 12.7754 172.854C12.803 170.817 10.7463 167.141 11.2138 166.454C11.8831 165.479 13.7733 168.543 13.8932 168.397C15.4531 166.42 13.3149 161.714 12.7255 159.402C12.5469 158.69 13.2587 157.521 13.1106 157.313C10.8495 154.147 12.634 163.927 11.1301 163.274C9.78828 162.692 11.5147 159.599 11.4634 159.428C11.3972 159.241 9.79287 159.072 9.54172 157.978C9.41794 157.43 13.5878 151.414 13.4136 148.717C12.0832 149.311 10.7527 149.905 9.42228 150.5C9.31798 146.983 11.2316 149.572 11.4295 149.209C11.828 148.481 10.7169 146.702 10.7646 145.59C10.7902 144.883 12.0942 142.359 10.9161 141.319C10.5113 140.959 9.66155 143.425 8.1869 140.906C13.3189 137.689 9.76251 135.712 9.61124 134.466C9.46306 133.22 11.9131 130.288 8.93918 130.807C8.81024 123.962 9.00329 128.643 9.84833 127.44C10.8835 125.962 8.49098 123.708 12.2745 125.418C12.0593 122.213 9.01818 122.44 8.85718 122.184C8.71816 121.953 9.39413 120.376 9.1531 119.842C6.30218 113.651 8.26033 116.478 7.43463 112.524C7.36119 112.171 4.66662 110.705 6.718 110.129C10.4553 109.082 12.0173 113.623 12.6453 103.915C9.88094 99.6979 6.53152 105.964 5.6912 106.071C4.40497 106.223 5.73739 104.244 5.57889 103.689C5.52384 103.509 4.41545 103.673 4.40056 103.516C3.61021 96.1113 9.33486 103.393 11.1372 102.105C10.6541 100.996 10.171 99.8876 9.68789 98.7787C10.3433 98.7344 10.9987 98.69 11.6542 98.6457C8.53174 96.4167 11.5441 97.8017 12.3226 91.8063C12.4974 90.4592 10.4461 92.7694 12.7861 89.0253C11.0603 88.161 11.6107 86.9361 10.048 88.6261C10.0883 86.223 13.6044 83.5122 14.9913 82.2791C10.0919 79.5785 12.8858 88.3932 8.65039 83.7295C7.86498 86.7051 9.88662 86.1257 9.72177 86.6169C9.1303 88.3829 7.74377 85.5788 6.0709 91.7664C5.79852 92.7823 6.95108 95.9093 5.24554 95.7582C5.0569 95.7368 3.97014 93.0645 3.9852 92.8708C4.12928 90.7779 5.20471 91.5622 5.2491 90.6886C5.29077 89.8616 4.09095 90.3589 4.08681 90.1297C4.04995 87.5078 5.08789 89.1276 4.93714 88.3068C4.61158 86.5216 0.295869 80.8793 5.92829 82.5319C1.24996 85.4962 5.32932 85.427 7.15119 84.2883C7.61579 84.0028 7.73346 82.4367 8.39548 81.8932C9.24705 81.1893 10.2437 81.9411 10.6844 81.6537C11.1583 81.3369 8.46555 77.6349 12.3601 78.7396C10.378 75.0573 6.87699 78.9832 4.93001 76.3978C1.00189 71.1731 7.66886 70.0514 8.36339 69.5451C8.54842 69.4079 7.92808 67.2928 8.05142 67.1633C8.25313 66.9645 12.0369 67.9422 12.41 66.1919C12.7821 64.4432 11.0241 66.2725 10.9072 64.4488C10.828 63.221 15.3926 61.0433 12.9216 60.2041C11.2185 59.6289 8.07927 64.5636 7.5505 59.2594C10.0551 58.8203 12.5597 58.3812 15.0644 57.9421C13.6935 55.924 12.3227 53.9059 10.9518 51.8878C13.763 51.2478 16.1932 53.5262 18.8632 50.637C12.4474 44.1703 20.9463 45.4762 21.0398 44.6892C21.0711 44.2185 18.5458 38.9696 18.1394 38.0095C20.3771 35.9902 27.1767 35.0035 23.1986 28.5222C23.9206 29.9856 25.6692 26.3731 25.6462 26.1004C25.4241 23.2371 21.6104 25.0939 22.2324 22.5078C22.9532 19.5067 23.9632 23.5781 25.0722 23.2529C30.7624 21.5579 29.2013 6.61009 34.907 8.9754C34.7935 8.44316 34.68 7.9109 34.5665 7.37866C40.7684 8.22581 46.9702 9.07298 53.172 9.92014C55.5985 5.35538 62.0563 2.57574 65.2281 3.08076C65.8668 3.17912 69.0024 5.57481 69.239 5.99483C69.6772 6.79976 67.2678 7.1069 68.3566 8.61613C68.5865 8.92592 73.8952 9.93253 73.5156 7.37866C72.9207 7.08255 71.059 8.3663 70.7543 7.76454C68.6139 3.46933 84.9801 6.90074 85.7909 5.16985C85.4285 4.34042 85.066 3.511 84.7035 2.68158C85.7363 3.08965 86.769 3.4977 87.8018 3.90575ZM40.3459 209.02C39.7261 211.583 38.1727 209.658 37.2548 210.378C35.9866 211.385 33.8309 221.253 34.7591 211.362C36.6213 210.582 38.4836 209.801 40.3459 209.02ZM67.5633 212.839C66.3145 211.463 67.2832 205.939 68.3067 208.235C68.4203 208.496 69.2529 214.692 67.5633 212.839ZM54.4716 210.218C54.5241 210.145 55.6033 210.291 55.641 210.378C56.6088 212.595 53.3552 212.142 54.4716 210.218ZM117.715 207.384C116.339 207.622 117.335 212.644 118.191 210.577C118.244 210.446 117.805 207.372 117.715 207.384ZM116.736 207.251C115.667 202.754 113.515 211.867 115.226 210.95C115.392 210.857 116.785 207.47 116.736 207.251ZM63.1121 210.644C63.2526 208.92 64.5408 209.752 65.0908 210.165C65.0759 211.738 63.6515 210.451 63.1121 210.644ZM95.772 210.165C95.8266 208.81 91.3494 208.885 91.0444 210.67C91.751 209.913 95.7205 211.382 95.772 210.165ZM107.254 208.262C107.141 208.028 105.594 208.384 105.639 209.579C106.394 211.147 107.765 209.322 107.254 208.262ZM130.075 208.342C130.159 208.041 129.001 200.434 131.746 205.441C132.149 206.174 130.71 208.162 130.853 208.435C131.153 208.967 131.39 209.215 131.58 209.26C130.302 209.89 128.974 210.187 128.845 209.726C128.242 207.546 130.038 208.467 130.075 208.342ZM142.057 202.673C142.32 201.432 144.002 202.096 144.385 202.607C144.451 202.703 144.164 205.964 144.921 205.72C145.529 205.519 144.621 202.179 145.806 202.713C147.003 203.25 145.403 205.63 145.508 205.8C145.648 206.023 147.5 204.523 147.442 206.466C147.399 207.904 145.415 206.932 144.925 207.237C144.297 207.63 145.058 210.028 144.009 209.513C143.349 209.191 143.715 204.975 143.575 204.762C143.459 204.591 141.153 207.017 142.06 202.687C142.059 202.682 142.058 202.678 142.057 202.673ZM131.926 209.074C131.83 209.216 131.717 209.292 131.58 209.26C131.696 209.203 131.812 209.136 131.926 209.074ZM43.954 207.171C44.6031 208.471 42.6763 210.138 41.9467 208.435C41.9341 207.061 43.8506 206.968 43.954 207.171ZM133.111 205.641C135.01 206.697 133.614 208.149 131.926 209.074C132.462 208.28 132.474 205.288 133.111 205.641ZM79.1987 207.397C79.2788 207.711 79.3295 208.202 79.336 209.007C79.1255 208.126 79.1066 207.653 79.1987 207.397ZM83.6286 208.834C85.1472 206.381 82.0617 206.48 82.0812 208.235C82.0904 208.898 83.5678 208.932 83.6286 208.834ZM119.479 207.623C119.341 207.383 121.499 199.975 118.365 205.534C120.038 206.407 118.273 207.214 118.299 207.863C118.368 209.727 121.177 207.935 121.799 208.741C122.286 205.405 119.938 208.414 119.483 207.623C119.482 207.623 119.481 207.623 119.479 207.623ZM163.65 204.47C163.269 206.425 162.062 205.796 161.247 205.68C161.628 203.726 162.835 204.355 163.65 204.47ZM376.878 204.749C371.294 206.557 370.571 198.595 375.68 201.742C375.78 201.808 377.217 203.942 376.878 204.749ZM328.96 202.687C328.434 199.217 330.175 198.659 331.319 200.092C331.577 200.414 332.534 203.929 331.442 204.616C331.477 200.41 329.787 198.804 328.96 202.687ZM134.184 203.418C134.737 201.104 136.439 202.752 137.336 203.099C136.789 205.004 134.977 204.143 134.184 203.418ZM358.531 200.598C357.942 200.335 357.545 203.354 357.647 203.605C358.101 204.757 359.201 202.316 358.531 200.598ZM128.69 203.059C128.613 201.676 130.867 200.345 131.024 203.764C130.542 203.517 128.746 203.927 128.69 203.059ZM162.113 203.432C161.763 202.729 163.576 201.47 164.124 202.168C164.08 203.639 162.343 203.889 162.113 203.432ZM349.056 201.622C348.529 201.36 347.212 201.28 347.067 202.5C346.885 204.026 348.816 203.506 349.056 201.622ZM447.112 198.987C447.179 199.536 445.14 203.487 444.233 202.487C442.512 200.574 447.04 198.6 447.112 198.987ZM364.102 199.041C365.763 201.912 363.918 199.131 363.991 202.154C365.109 202.263 367.891 202.412 365.979 199.44C365.606 198.865 364.623 199.236 364.102 199.041ZM362.568 198.029C362.39 199.009 361.192 202.096 362.228 201.875C362.707 201.768 363.478 198.338 362.568 198.029ZM434.479 200.331C432.989 197.655 439.818 199.091 440.014 199.56C440.118 199.807 440.185 200.041 440.224 200.238C440.475 199.39 441.765 199.237 441.914 201.383C441.527 201.205 440.472 201.394 440.349 201.156C440.296 201.055 440.257 200.96 440.23 200.864C439.774 202.726 434.764 200.839 434.479 200.331ZM423.164 197.577C424.869 193.629 425.17 200.342 425.024 200.558C423.168 203.305 424.378 198.354 424.321 198.123C424.192 197.737 422.873 200.034 423.17 197.577C423.168 197.577 423.166 197.577 423.164 197.577ZM432.159 199.227C432.229 199.14 433.66 199.347 433.719 199.453C434.892 201.709 430.843 201.131 432.159 199.227ZM151.088 197.976C152.112 198.643 151.107 201.113 150.426 200.225C150.37 200.137 150.184 197.387 151.088 197.976ZM361.75 198.695C361.513 198.228 355.436 196.468 355.802 200.198C356.317 199.758 363.224 201.678 361.75 198.695ZM316.341 197.79C317.412 197.819 316.244 201.337 315.672 200.025C315.46 199.538 316.071 197.785 316.341 197.79ZM125.651 199.866C124.538 201.798 124.768 195.315 125.733 197.537C125.771 197.624 125.695 199.79 125.651 199.866ZM324.901 199.812C321.206 201.944 322.081 190.792 326.885 194.557C326.735 195.053 326.585 195.55 326.434 196.047C331.98 197.72 326.813 196.833 325.456 197.457C324.939 197.695 325.372 199.556 324.905 199.826C324.904 199.821 324.902 199.817 324.901 199.812ZM310.706 197.577C307.147 189.661 313.941 194.816 315.89 193.785C314.001 197.054 311.541 196.559 314.886 199.906C309.995 200.553 312.031 197.4 311.836 197.138C311.605 196.844 310.858 197.917 310.706 197.577ZM320.093 197.524C320.299 197.293 321.849 198.904 322.407 198.642C321.626 201.346 318.728 199.094 320.093 197.524ZM411.302 199.413C411.431 197.295 411.749 195.734 412.973 196.526C412.595 197.59 411.814 198.506 411.302 199.413ZM39.1693 197.87C38.3269 197.718 36.6494 196.919 37.1639 199.147C37.2202 199.337 39.1668 199.12 39.1693 197.87ZM344.102 196.978C343.923 196.718 339.289 196.543 340.89 198.881C341.372 199.586 345.588 199.287 344.102 196.978ZM368.096 197.244C367.709 197.222 366.133 197.621 366.1 198.123C365.993 199.855 367.927 198.903 368.096 197.244ZM34.9195 195.701C34.8086 195.481 32.2354 195.87 32.5183 196.898C33.0552 198.842 35.2998 196.458 34.9195 195.701ZM154.815 193.013C155.03 192.935 155.315 195.236 155.389 195.262C155.564 195.295 159.501 194.409 157.997 197.364C157.746 197.859 152.081 196.725 151.344 196.433C151.059 193.273 153.479 196.279 154.068 195.954C154.172 195.892 154.238 193.249 154.813 193.026C154.814 193.022 154.814 193.017 154.815 193.013ZM417.675 197.178C417.849 195.169 422.478 193.839 422.424 196.273C420.841 196.575 419.258 196.876 417.675 197.178ZM415.324 196.845C414.336 195.424 416.65 194.954 417.331 195.581C417.339 196.932 415.468 197.053 415.324 196.845ZM359.317 189.74C358.852 190.231 360.282 193.162 359.962 193.732C359.757 194.086 358.718 192.988 358.386 193.905C358.292 194.196 359.353 196.951 359.659 196.832C360.095 196.673 359.672 194.505 360.148 194.49C361.726 194.443 363.125 195.99 364.604 195.954C364.738 195.946 363.702 194.415 364.841 194.437C365.017 194.437 366.075 196.718 367.439 196.379C370.449 189.317 372.66 196.251 376.48 193.705C376.336 193.04 373.479 191.256 373.311 191.19C370.117 190.029 364.396 189.901 361.051 189.886C360.193 189.88 360.61 191.375 360.24 191.43C359.948 191.47 360.296 188.702 359.317 189.74ZM39.6168 196.34C39.2153 193.575 37.8068 195.325 36.9072 195.182C37.2238 197.676 38.7377 195.727 39.6168 196.34ZM394.542 194.703C394.091 194.81 392.693 193.977 392.578 194.809C392.429 195.896 394.447 196.582 394.542 194.703ZM177.016 193.798C177.06 193.723 178.145 193.871 178.186 193.958C179.155 196.177 175.901 195.722 177.016 193.798ZM202.966 194.33C203.789 193.989 204.619 193.125 204.895 195.368C204.371 195.025 202.87 195.893 202.966 194.33ZM238.767 194.264C238.597 191.326 241.073 193.229 241.541 193.492C241.368 194.798 238.892 196.38 238.767 194.264ZM411.124 190.192C412.638 190.366 412.318 185.916 413.279 187.93C413.436 188.27 413.943 197.536 412.279 194.064C411.98 193.44 413.151 191.238 411.124 190.192ZM327.668 194.65C328.053 192.706 329.256 193.283 330.069 193.439C329.887 194.883 328.246 194.511 327.668 194.65ZM30.2721 193.479C29.5622 190.735 26.282 192.77 27.0937 194.583C27.2091 194.82 29.812 193.375 30.2721 193.479ZM138.033 194.557C139.383 192.396 136.587 191.727 135.705 193.838C136.105 193.7 137.942 194.699 138.033 194.557ZM230.168 192.667C230.232 192.579 231.663 192.787 231.727 192.893C232.9 195.149 228.851 194.572 230.168 192.667ZM194.433 190.764C194.948 188.986 198.338 190.421 199.098 192.201C198.367 194.801 193.793 192.985 194.433 190.764ZM404.896 191.456C405.976 191.364 407 191.912 407.992 192.68C407.783 194.177 405.01 192.574 404.896 191.456ZM235.421 192.481C235.498 192.493 235.572 192.662 235.646 192.68C235.569 192.617 235.494 192.544 235.421 192.481ZM380.725 190.405C379.82 189.814 380.008 192.556 380.063 192.64C380.744 193.529 381.749 191.072 380.725 190.405ZM38.5828 192.268C38.2691 189.793 36.747 191.713 35.8714 191.124C36.1255 193.078 37.8775 192.528 38.5828 192.268ZM306.895 192.507C305.758 189.824 310.384 186.706 311.358 188.436C311.43 190.094 307.061 192.875 306.895 192.507ZM133.842 190.844C133.751 188.905 131.809 191.245 132.222 192.161C132.483 192.744 133.897 192.049 133.842 190.844ZM313.685 189.567C314.119 188.975 315.132 190.889 314.776 192.055C314.318 193.55 313.572 189.736 313.685 189.567ZM352.68 188.01C352.49 187.714 349.934 189.704 350.99 191.682C351.723 193.057 351.839 190.254 352.012 190.245C352.204 190.254 356.307 193.685 352.68 188.01ZM280.986 190.818C281.95 190.072 283.116 190.937 284.125 190.884C283.714 192.083 281.396 192.411 280.986 190.818ZM141.333 190.325C141.099 189.541 134.719 189.068 138.343 191.483C138.555 191.619 142.044 192.701 141.333 190.325ZM411.124 190.192C410.933 190.17 410.713 190.078 410.458 189.886C410.711 189.962 410.932 190.093 411.124 190.192ZM393.932 189.899C394.281 188.488 392.525 188.11 392.007 188.861C391.848 190.586 393.884 190.097 393.932 189.899ZM284.201 188.915C284.783 188.107 285.838 188.969 286.558 188.875C286.436 190.187 284.453 190.248 284.201 188.915ZM243.37 187.438C244.525 188.218 245.945 187.859 245.967 186.253C245.991 186.504 246.047 186.771 246.14 187.039C246.234 187.304 247.471 186.557 248.008 187.105C251.226 190.36 235.584 189.017 244.65 184.484C244.223 185.468 243.797 186.453 243.37 187.438ZM189.846 186.985C189.191 185.031 187.355 187.48 187.831 188.249C188.163 188.777 190.502 188.953 189.846 186.985ZM215.063 185.828C214.867 185.479 213.075 186.848 213.029 187.877C214.059 188.961 215.956 187.448 215.063 185.828ZM184.808 184.697C184.397 184.402 183.872 187.553 183.92 187.691C184.338 188.841 185.499 186.451 184.808 184.697ZM407.989 181.703C407.377 180.8 405.426 183.081 405.001 185.162C404.922 184.76 404.709 184.235 404.318 183.606C404.319 183.606 404.32 183.606 404.322 183.606C403.794 182.765 388.026 181.847 398.603 185.854C398.934 185.983 398.482 184.115 399.829 184.444C399.918 184.468 399.963 185.993 400.238 186.067C400.871 186.228 404.241 187.188 404.919 185.961C404.925 186.243 404.968 186.512 405.061 186.759C405.892 188.959 408.463 182.399 407.989 181.703ZM218.616 185.548C218.255 184.983 217.114 185.52 216.996 186.866C217.562 187.525 219.453 186.867 218.616 185.548ZM141.135 184.803C140.4 183.696 138.538 185.766 139.101 186.866C139.446 187.542 141.982 186.074 141.135 184.803ZM207.182 186.267C211.395 187.858 208.188 186.138 208.833 184.164C208.283 184.865 207.732 185.566 207.182 186.267ZM427.487 186.799C426.815 186.345 427.605 182.45 428.345 184.564C428.577 185.235 427.863 187.046 427.487 186.799ZM457.822 185.588C457.249 182.135 460.049 184.164 458.958 186.533C458.907 186.613 457.864 185.72 457.822 185.588ZM436.625 184.178C436.169 186.529 435.872 186.808 434.587 186.227C436.489 185.564 434.725 183.485 436.625 184.178ZM245.955 186.001C245.962 186.096 245.968 186.166 245.967 186.253C245.959 186.167 245.955 186.085 245.955 186.001ZM180.847 185.309C180.32 183.317 178.842 183.464 179.282 185.468C179.324 185.654 180.631 186.781 180.847 185.309ZM405.001 185.162C405.071 185.519 405.035 185.75 404.919 185.961C404.913 185.695 404.943 185.443 405.001 185.162ZM188.783 183.685C188.731 185.171 190.98 185.749 191.071 185.575C192.362 182.998 189.712 183.596 188.783 183.685ZM126.261 182.714C126.145 182.869 126.893 186.705 127.352 185.202C127.707 184.036 126.695 182.124 126.261 182.714ZM440.987 183.22C441.699 183.222 442.702 183.221 442.887 185.043C442.41 184.763 440.972 184.557 440.987 183.22ZM456.726 183.087C455.884 185.229 453.961 185.223 452.733 184.87C452.71 182.05 455.936 183.75 456.726 183.087ZM409.921 182.754C409.862 182.639 408.076 181.798 408.32 183.685C408.677 186.453 410.425 183.78 409.921 182.754ZM129.73 184.75C130.528 183.45 128.69 179.455 127.847 182.541C127.414 184.121 129.595 184.968 129.73 184.75ZM176.232 182.701C175.178 183.793 177.79 185.739 178.155 183.765C177.67 183.607 176.606 182.314 176.232 182.701ZM212.1 180.705C208.779 175.013 210.588 185.397 211.177 184.484C211.26 184.353 212.182 180.839 212.1 180.705ZM22.0292 182.102C21.5589 182.893 23.3122 185.758 23.5391 183.872C23.6793 182.691 22.3299 181.598 22.0292 182.102ZM262.123 184.404C261.983 184.422 261.844 184.441 261.706 184.457C261.81 184.364 261.945 184.334 262.123 184.404ZM166.663 175.076C169.001 183.113 168.756 176.919 168.959 176.952C169.398 177.039 170.418 179.212 171.246 178.855C170.298 179.76 169.35 180.665 168.402 181.57C169.151 182.15 175.655 185.108 175.792 183.805C175.987 181.949 173.94 182.532 173.88 182.368C173.795 182.135 173.475 176.976 173.285 176.779C172.973 176.466 167.534 176.359 166.663 175.076ZM205.154 181.596C205.688 182.21 205.839 184.254 206.088 183.765C206.172 183.598 206.186 181.648 206.474 181.144C206.034 181.295 205.594 181.446 205.154 181.596ZM162.475 182.302C161.813 179.919 164.781 180.824 164.876 181.091C165.384 182.706 163.016 184.248 162.475 182.302ZM187.66 181.956C187.552 181.817 185.273 181.073 185.291 182.395C185.894 183.403 188.942 183.696 187.66 181.956ZM206.831 181.011C207.632 181.238 209.146 183.202 208.972 180.266C208.971 180.266 208.97 180.266 208.968 180.266C208.256 180.514 207.543 180.762 206.831 181.011ZM132.464 178.549C130.98 173.873 131.683 179.782 132.997 181.29C133.395 179.191 132.708 179.31 132.464 178.549ZM127.715 175.063C127.302 174.222 123.048 175.144 123.697 177.618C123.928 178.5 126.374 176.276 126.487 176.447C126.658 176.7 125.877 179.438 127.182 178.895C127.106 177.968 127.857 175.344 127.715 175.063ZM131.236 175.555C129.761 171.999 129.43 178.558 130.539 178.576C130.972 178.587 131.446 176.068 131.236 175.555ZM137.26 176.114C136.729 175.492 135.316 174.585 134.341 176.766C135.645 176.952 136.949 177.139 138.252 177.325C138.403 176.089 137.724 176.661 137.256 176.114C137.257 176.114 137.258 176.114 137.26 176.114ZM465.588 166.281C464.416 164.421 467.115 163.708 467.23 164.165C467.569 165.682 466.112 167.112 465.588 166.281ZM12.8771 122.517C12.5515 121.775 12.3386 119.336 11.6221 120.614C12.3429 122.415 13.0636 124.216 13.7844 126.016C14.3446 121.89 13.2329 123.335 12.8771 122.517ZM10.1246 107.441C10.2265 107.341 9.67027 100.996 10.9857 105.232C11.8744 108.092 7.04136 110.88 6.16895 108.066C7.13292 106.759 9.24819 108.256 10.1246 107.441ZM1.65885 79.9771C1.60312 79.4711 3.43931 78.729 3.65185 79.0856C4.76783 80.9658 1.96034 82.6879 1.65885 79.9771ZM7.51663 81.188C6.65549 79.9559 8.56318 79.1616 9.13171 79.8707C9.18685 81.0516 7.64966 81.3675 7.51663 81.188ZM453.722 74.3885C452.791 70.0764 451.957 79.3591 453.391 77.4889C453.459 77.4009 453.762 74.5997 453.722 74.3885ZM3.45397 73.5769C4.31511 74.809 2.40742 75.6032 1.83889 74.8942C1.78602 73.7145 3.32286 73.3967 3.45397 73.5769ZM453.066 64.1162C451.829 61.0132 452.265 71.4274 452.419 71.847C453.056 73.5044 455.241 69.4169 455.687 68.4008C452.417 69.9636 453.649 65.5784 453.066 64.1162ZM447.358 70.3701C446.21 71.4811 449.144 73.6059 449.704 70.7027C449.134 70.8416 447.685 70.0489 447.358 70.3701ZM440.39 67.0302C439.773 66.6572 437.937 65.7642 437.629 67.4028C438.303 67.1061 440.129 68.7163 440.39 67.0302ZM438.992 62.1202C438.027 59.8937 437.796 66.381 438.909 64.4488C438.952 64.374 439.028 62.244 438.992 62.1202ZM433.568 59.7784C432.935 57.1985 432.212 63.4811 433.238 63.6505C433.543 63.6892 433.635 60.0741 433.568 59.7784ZM451.517 52.9124C450.611 51.8045 449.443 56.3037 451.378 56.7978C450.698 57.4853 450.019 58.1727 449.339 58.8602C451.874 61.3821 451.688 55.1427 452.416 55.4006C453.433 55.7672 453.353 60.916 453.148 62.5327C453.982 59.3783 457.525 59.3278 459.573 58.7272C457.773 57.4033 454.853 55.1083 453.077 54.2696C452.57 54.0268 452.078 55.4388 451.646 55.2809C450.952 55.0201 451.568 52.987 451.521 52.9124C451.52 52.9124 451.519 52.9124 451.517 52.9124ZM426.437 59.6852C424.577 56.7627 425.753 63.0725 426.804 61.9473C426.849 61.8606 426.483 59.7566 426.437 59.6852ZM0.986789 54.4027C3.47261 57.0401 1.66572 60.5356 6.86596 55.2276C4.68122 58.9853 6.74514 57.93 6.31869 59.4457C5.97659 60.6449 4.69473 59.6517 5.43984 62.067C4.46045 59.4382 0.208376 60.1653 0.018811 59.7384C0.0205937 59.7384 0.0223763 59.7384 0.024159 59.7384C-0.0896955 59.4856 0.19357 53.5639 0.986789 54.4027ZM440.381 50.5306C439.761 42.8746 439.517 55.0263 438.297 48.681C436.673 57.8952 442.784 48.6824 443.524 56.4651C436.887 55.5608 447.909 64.1769 443.276 52.5265C447.093 56.755 444.527 51.0836 445.116 49.5991C445.746 48.0178 447.905 49.7364 447.795 46.8847C447.794 46.8847 447.793 46.8847 447.792 46.8847C446.471 47.0843 445.151 47.2839 443.83 47.4835C445.123 53.635 442.425 51.7905 441.509 46.7782C441.133 48.029 440.757 49.2798 440.381 50.5306ZM447.854 56.3055C447.724 56.1646 444.852 57.0268 445.037 58.2614C445.421 59.0489 449.497 58.1047 447.854 56.3055ZM460.493 54.9615C459.462 54.9465 457.867 53.7464 457.306 56.0659C458.337 56.0815 459.931 57.2823 460.493 54.9615ZM407.397 54.5224C406.082 56.4258 410.129 56.9897 408.958 54.7353C408.901 54.6292 407.461 54.4335 407.397 54.5224ZM437.392 51.6882C436.055 49.3485 436.687 56.7958 437.677 54.8551C437.734 54.7407 437.453 51.7949 437.392 51.6882ZM3.00118 53.4978C3.09057 51.6732 6.69726 52.9548 7.33658 52.939C6.97334 54.635 2.89863 55.5896 3.00118 53.4978ZM462.308 48.1355C460.256 41.5746 457.472 49.1526 457.166 48.9871C456.863 48.8183 457.339 45.9503 457.27 45.8734C457.112 45.7126 453.879 45.9532 453.722 46.1528C453.61 46.3085 454.195 50.3388 453.528 51.6084C454.83 49.3183 460.741 50.751 461.047 50.3044C461.285 49.9477 459.494 45.7154 462.304 48.1355C462.305 48.1355 462.306 48.1355 462.308 48.1355ZM456.404 48.1088C457.211 49.7982 454.946 50.0097 454.398 49.3862C453.18 47.9911 456.3 47.9087 456.404 48.1088ZM450.956 46.552C450.697 46.1731 448.363 45.8289 448.164 47.7097C449.269 50.1494 451.543 47.435 450.956 46.552ZM424.979 46.8048C424.373 47.0458 422.705 45.6005 422.61 47.2439C423.217 47.0042 424.884 48.4484 424.979 46.8048ZM15.3068 39.1538C14.2996 37.7786 16.6333 37.2169 17.3141 37.8764C17.351 38.9727 15.3926 39.2719 15.3068 39.1538ZM437.165 35.9736C436.806 35.4739 429.482 36.7209 428.455 37.4905C429.46 38.7334 436.718 38.8289 437.047 38.2224C437.144 38.0407 437.211 36.0523 437.165 35.9736ZM453.004 35.2152C453.675 32.795 454.114 35.6976 454.198 35.7341C455.029 36.1044 456.751 35.5588 456.373 37.8897C454.908 36.9493 451.667 40.0212 453.004 35.2152ZM424.458 35.8539C421.971 36.752 426.748 39.3017 426.122 36.772C426.081 36.619 424.716 35.7596 424.458 35.8539ZM437.983 35.2684C438.532 33.3128 445.858 34.9993 447.034 35.0023C445.98 38.6092 445.131 35.8695 443.716 36.0535C443.335 36.1073 443.436 37.6079 443.396 37.6103C442.734 37.6798 443.229 35.9467 442.822 35.9204C442.564 35.9085 437.211 38.0237 437.983 35.2684ZM453.387 33.5386C453.797 32.1512 458.371 31.5599 458.555 31.9285C459.932 34.6706 453.743 34.0216 453.387 33.5386ZM437.311 32.0616C438.099 27.8696 441.737 30.677 439.247 32.7668C439.009 32.957 438.003 31.1398 437.311 32.0616ZM424.724 31.862C424.602 31.7387 422.009 30.9008 421.963 32.2346C422.337 32.7529 426.116 33.2179 424.724 31.862ZM426.068 27.3512C426.006 27.3832 426.613 29.9521 425.398 29.6266C425.297 29.5959 425.108 26.7057 423.58 27.7637C423.27 27.9816 422.789 29.8936 422.824 30.0125C424.415 34.5482 429.207 25.8611 426.068 27.3512ZM453.471 31.1967C453.225 29.9767 453.819 26.3558 454.355 28.1895C454.585 28.9813 454.156 31.1544 453.471 31.1967ZM416.502 30.6911C418.009 28.4951 413.278 28.0799 413.037 28.6419C413.189 30.0098 416.352 30.9056 416.502 30.6911ZM17.6652 22.2017C17.6641 22.2017 17.6629 22.2017 17.6617 22.2017C18.9295 22.6993 18.1442 24.5262 18.2036 24.5835C20.9042 27.2668 20.1879 23.1291 20.6102 22.6408C21.5157 21.5848 21.3698 26.6165 22.8973 24.5303C20.3724 27.611 22.6707 26.3195 22.7422 28.1097C23.0252 35.415 19.3805 24.689 18.1216 26.2202C17.9462 26.4322 19.2413 28.7637 18.7919 29.427C17.3307 31.5761 12.8003 20.2989 17.6652 22.2017ZM454.769 27.8702C455.357 25.7243 459.818 27.8056 458.635 29.5733C458.445 29.8568 453.904 30.9978 454.769 27.8702ZM246.359 24.7033C247.432 22.8463 244.947 20.6632 244.486 22.1086C244.257 22.8287 245.888 25.5183 246.359 24.7033ZM228.936 16.7595C227.662 17.1365 226.319 24.8805 227.904 23.6787C228.072 23.5474 229.082 17.8337 228.936 16.7595ZM312.599 20.7381C311.269 17.9706 311.348 23.1126 312.325 23.04C312.669 23.0152 312.641 20.8256 312.599 20.7381ZM261.822 21.4034C261.689 21.2239 260.151 21.5522 260.207 22.734C260.776 23.443 262.683 22.6355 261.822 21.4034ZM313.022 20.0062C312.233 20.933 313.59 24.652 314.555 21.0175C314.065 21.3156 313.103 19.9115 313.022 20.0062ZM434.562 20.6981C433.902 22.8095 432.033 22.1716 430.96 22.5344C430.844 19.7989 433.796 21.1941 434.562 20.6981ZM234.344 19.8732C233.138 21.8011 235.722 23.3795 235.485 20.8312C235.452 20.6928 234.392 19.7909 234.344 19.8732ZM355.522 19.7268C354.645 21.3585 357.429 23.5529 356.663 20.6848C356.625 20.5679 355.57 19.636 355.522 19.7268ZM367.678 20.6715C367.012 20.1211 364.176 20.2905 365.28 21.8824C365.451 22.127 367.628 22.1661 367.678 20.6715ZM20.6851 20.6715C20.3266 17.8615 22.407 18.5304 22.7048 19.0216C22.8218 19.2258 21.1525 24.3275 20.6851 20.6715ZM303.959 20.299C303.27 20.6505 301.485 19.9824 301.17 21.4566C302.013 21.1514 304.185 23.2355 303.959 20.299ZM239.844 19.8598C238.794 16.8064 236.999 17.1078 237.443 21.0973C239.425 20.83 237.198 17.5114 239.844 19.8598ZM317.455 16.7196C316.903 16.4867 316.48 20.3181 316.542 20.4986C317.14 22.2159 318.003 18.2103 317.455 16.7196ZM276.032 19.8732C276 18.2358 274.23 18.979 274.466 20.0328C274.544 20.3866 276.057 21.1982 276.032 19.8732ZM411.388 19.7667C410.577 18.2722 413.053 16.8111 413.786 18.5558C414.142 21.0698 411.49 19.9384 411.388 19.7667ZM332.763 17.6776C332.845 15.2478 330.079 16.6216 331.169 18.6357C331.442 19.1396 332.734 18.4901 332.763 17.6776ZM359.24 14.7636C357.385 17.6612 365.175 19.7184 363.128 16.1075C362.982 15.8502 359.402 14.5189 359.24 14.7636ZM371.963 16.5732C371.643 16.2539 371.803 8.08891 373.127 11.2375C373.301 11.6458 372.488 13.8042 372.63 14.2979C372.713 14.5792 375.594 15.726 375.726 15.5353C375.869 15.3189 375.701 12.7019 375.846 12.4084C376.009 12.0803 377.782 14.3792 378.71 14.4043C380.46 14.4474 380.649 12.2692 380.792 12.262C381.21 12.2476 381.913 13.7942 382.76 13.7922C387.032 13.7749 393.564 11.9285 396.95 16.5466C393.937 14.6921 391.066 16.6597 388.067 17.2652C388.946 12.7185 383.656 20.7684 386.75 15.522C385.326 16.66 373.012 17.5701 371.967 16.5732C371.965 16.5732 371.964 16.5732 371.963 16.5732ZM223.907 14.4709C224.69 11.683 220.674 12.3101 220.333 15.5353C220.863 15.9829 223.81 14.7868 223.907 14.4709ZM242.436 7.6714C242.809 7.19019 243.163 1.74092 245.119 4.50453C245.12 4.50453 245.122 4.50453 245.124 4.50453C245.696 5.31161 245.044 6.6394 245.149 7.11253C245.187 7.30574 246.971 10.0164 245.489 10.4524C243.23 11.1212 245.277 6.39847 244.072 6.34077C243.925 6.33632 241.645 9.28598 241.778 9.93344C241.792 10.0089 242.478 9.38489 242.591 9.65402C243.019 10.6656 242.81 12.3673 242.871 12.4483C243.068 12.6558 246.673 9.75679 247.197 12.2886C247.368 13.1051 241.451 14.9885 241.22 14.564C241.074 14.2965 241.136 9.57301 240.985 9.10846C240.907 8.87708 238.527 10.6471 238.218 10.2129C238.128 10.0873 238.06 9.95189 238.009 9.8403C238.37 11.3017 236.214 11.1965 236.28 9.54756C236.318 8.89949 237.801 9.27461 237.854 9.38789C237.878 9.43585 237.898 9.50195 237.917 9.54756C237.61 7.76662 242.632 7.84694 241.548 5.19646C243.004 3.74448 241.341 9.08463 242.436 7.6714ZM249.434 4.75734C249.284 5.2541 249.134 5.75087 248.983 6.24763C251.532 5.03175 254.474 7.4231 257.41 7.40527C258.155 7.40437 257.298 4.36624 258.275 5.19646C259.057 5.86179 259.923 8.67975 259.498 9.30806C259.394 9.46483 257.801 7.62941 257.004 7.81776C254.65 8.37541 255.244 10.9808 255.107 11.0512C254.955 11.1252 253.474 9.293 252.665 9.37459C250.631 9.58546 249.702 11.1851 246.923 9.09515C248.526 7.37805 247.648 3.6478 249.434 4.75734ZM344.444 10.306C344.541 8.66612 346.209 10.1211 346.815 9.88022C346.72 11.5242 345.051 10.065 344.444 10.306ZM95.8789 8.17703C95.3666 10.8681 99.2066 11.5344 98.1946 9.29475C97.9707 8.7977 96.3614 8.19618 95.8789 8.17703ZM113.13 9.81369C113.643 9.06969 111.575 7.13217 111.579 9.21492C111.582 9.8828 113.063 9.91045 113.13 9.81369ZM282.383 7.40527C282.48 7.32101 283.893 7.92038 283.938 8.05728C284.874 10.9146 280.223 9.26315 282.383 7.40527ZM134.101 6.50046C132.31 8.26431 137.699 9.02881 136.053 6.77989C135.971 6.67035 134.187 6.41473 134.101 6.50046ZM141.591 6.00813C141.162 6.10266 139.256 5.22687 139.231 6.04805C139.193 7.37283 141.375 8.27805 141.591 6.00813ZM317.828 6.55368C317.621 3.52158 320.134 5.81779 321.008 5.43596C321.215 8.47017 318.701 6.17078 317.828 6.55368ZM301.964 4.31824C312.559 1.92801 310.223 8.40625 301.333 5.79523C301.32 3.85004 301.295 4.46878 301.964 4.31824ZM315.531 4.67751C315.146 6.61998 313.943 6.04398 313.13 5.88837C313.276 4.53786 314.945 5.02663 315.531 4.67751ZM91.3064 4.01221C91.971 1.55841 94.9136 4.58351 94.3904 5.59564C94.2686 5.81421 91.0624 5.36162 91.3064 4.01221ZM283.271 4.81058C283.024 1.86176 286.206 3.06459 286.449 3.71947C287.431 6.35359 283.529 4.15973 283.271 4.81058ZM332.866 3.95897C333.428 1.64922 335.024 2.83722 336.05 2.86787C335.582 4.8429 333.737 4.00053 332.866 3.95897ZM325.457 2.14934C325.522 2.06068 326.953 2.26921 327.017 2.37555C328.19 4.63153 324.141 4.05377 325.457 2.14934ZM15.9076 0.0203552C15.9552 -0.0540771 17.0392 0.0932007 17.077 0.180023C18.0445 2.39761 14.7912 1.94449 15.9076 0.0203552Z" fill="var(--stroke-0, #CADE8A)"/>
</svg>
