<svg preserveAspectRatio="none" width="100%" height="100%" overflow="visible" style="display: block;" viewBox="0 0 555.11 32.1033" fill="none" xmlns="http://www.w3.org/2000/svg">
<path id="Vector 242" d="M5.06833 2.47225C8.26192 2.05701 12.5592 1.94673 15.844 1.99859C16.8743 2.01361 16.3868 2.47687 17.1008 2.50612C18.4966 2.56281 19.7683 2.25504 21.1538 2.34485C21.612 2.37679 21.0996 3.09012 21.5792 3.10827C24.2097 3.20292 26.6661 2.84438 29.3292 2.79487C33.6368 2.71707 37.9317 2.60927 42.2592 2.56002C44.2494 2.41935 47.0587 3.34104 48.6086 4.91259C50.1947 6.43605 50.838 7.90845 51.344 9.07816C51.8292 10.2556 52.1338 11.2655 52.3898 11.9623C52.5102 12.3017 52.6285 12.5627 52.624 12.5736C52.6108 12.6186 52.4645 12.1802 51.4462 11.6979C51.4844 11.7187 51.2708 11.6478 51.1878 11.6438C51.0964 11.6339 51.1147 11.6505 51.2085 11.6592C51.4001 11.6801 51.82 11.6717 52.2594 11.6387C53.1578 11.5725 54.2193 11.4304 55.2605 11.2757C57.3851 10.9559 59.5565 10.5664 61.7646 10.1593C62.1207 10.0937 62.4967 10.0234 62.8665 9.95396C67.0948 9.15876 72.3689 8.59626 76.6864 7.34621C77.1883 7.20006 76.7547 6.69369 76.8408 6.62437C78.2017 5.55334 77.9553 6.82954 78.9863 6.75788C83.074 6.47072 87.4799 5.52226 91.2405 4.44095C92.8378 3.98001 90.9526 3.20407 92.7346 3.47691C92.8575 3.4948 92.584 4.19798 93.0425 4.16339C94.0867 4.08244 95.9678 3.54755 96.7694 3.42086C98.2975 3.18347 98.552 3.12083 99.9786 2.81636C100.962 2.60971 102.064 2.4559 103.165 2.28613C104.274 2.11411 105.392 1.92512 106.438 1.64478C106.886 1.52322 106.16 1.01227 106.863 0.76263C107.562 0.510791 109.549 0.200026 110.253 0.243771C110.947 0.284769 110.746 0.828989 110.882 0.924273C111.971 1.71993 114.229 0.123165 114.659 0.101546C116.357 -0.217979 119.205 0.23563 120.757 1.19406C124.02 2.92461 126.712 5.11275 129.63 7.15075C132.758 9.32974 136.033 11.492 138.818 13.1566C141.221 14.6034 143.335 15.7296 145.743 16.4558C146.658 16.7303 147.605 16.9412 148.601 17.0671C148.98 17.114 148.644 16.3072 149.097 16.3585C153.89 16.9 158.916 16.05 164.389 15.2381C164.937 15.1583 164.402 15.9703 164.961 15.9282C165.526 15.8826 166.147 15.8421 166.803 15.7907C170.132 15.5304 174.215 15.0374 175.272 12.2866C177.561 11.8271 180.319 11.2516 182.481 11.3068C183.863 11.3448 182.796 12.3577 184.308 11.6597C184.646 11.5039 184.023 11.0087 184.553 10.8187C186.79 10.0183 189.307 9.59895 191.515 8.72856C191.946 8.5547 191.704 8.03047 191.811 7.89996C192.72 6.8289 194.919 7.72654 195.343 7.7396C196.37 7.75242 197.308 7.69379 198.257 7.61965C199.264 7.59229 200.039 7.29278 201.952 7.74262C204.636 8.72316 205.12 10.577 205.657 11.6492C205.946 12.3658 206.31 11.2371 206.605 11.9145C207.207 13.357 207.629 14.4967 208.074 15.2631C207.978 15.159 208.067 15.3795 208.563 15.6334C209.032 15.8851 209.748 16.1342 210.506 16.3441C211.106 16.506 210.452 17.0699 210.744 17.1797C212.087 17.6369 212.492 16.424 213.84 16.7318C214.128 16.7924 213.954 17.3434 214.006 17.4055C214.843 18.3787 215.598 17.015 215.813 16.9828C218.577 16.5341 220.478 17.8353 223.256 17.4981C223.589 17.456 222.8 16.7927 223.739 16.7172C223.999 16.6962 224.26 16.676 224.522 16.6567C230.001 16.101 236.418 14.9941 242.321 14.556C243.281 14.477 242.696 15.1137 242.768 15.1673C243.909 16.0003 244.31 14.5498 244.609 14.4461C246.993 13.6595 249.463 14.3968 250.858 12.5189C254.216 12.1384 257.554 11.6233 260.897 11.104C268.041 10.0368 275.426 9.21635 282.724 11.2928C282.857 11.3322 282.502 11.952 282.769 12.0285C284.362 12.5015 285.04 12.5557 285.701 12.3766C286.032 12.2923 286.356 12.1558 286.804 12.0541C287.281 12 287.75 11.7419 289.009 12.3871C289.103 12.4443 289.205 12.5248 289.31 12.6329C289.974 13.2743 290.151 14.5378 289.95 15.2167C289.776 15.9351 289.456 16.3564 289.419 16.4397C289.086 17.0267 288.019 16.6296 287.966 16.8159C287.828 17.3105 288.09 17.5758 288.512 17.7183C288.926 17.7145 289.379 17.3016 289.674 16.9441C289.985 16.5842 290.183 16.2978 290.563 16.4461C290.601 16.4667 290.219 16.9692 290.302 17.0666C290.571 17.3737 291.068 17.2664 291.425 17.5663C292.284 18.2561 292.468 19.9267 294.275 19.2171C294.497 19.1174 294.41 17.2428 296.03 17.487C296.683 17.5986 299.627 17.7418 300.468 17.8819C301.304 18.0325 300.707 18.6147 300.765 18.6429C303.015 19.5075 302.144 19.8098 303.28 21.0125C304.424 22.2042 304.13 19.3947 304.603 19.0863C305.073 18.7799 306.746 19.438 307.161 19.6625C307.578 19.8886 307.061 20.275 307.433 20.402C309.883 21.2243 308.49 18.9994 309.288 18.5444C311.15 17.4613 312.654 19.5017 314.409 19.648C314.877 19.6873 314.48 19.2269 314.894 19.1683C315.929 19.027 316.685 19.2067 317.591 19.2011C318.141 19.1976 318.728 19.1243 319.42 18.8625C319.737 18.7502 321.157 17.4208 322.201 18.2715C322.347 18.3945 321.988 18.9375 322.694 19.0075C323.76 19.1131 325.66 19.0827 326.772 18.8111C327.595 18.6107 326.57 17.844 327.631 18.0157C328.103 18.0916 327.288 18.6678 328.181 18.7675C329.072 18.8695 331.29 18.6199 332.134 18.5049C332.971 18.3926 332.441 17.8005 332.502 17.7497C332.894 17.4553 334.461 16.9517 334.602 16.9335C340.307 16.3154 344.785 15.5008 351.402 15.5789C352.844 16.1086 353.316 17.2193 353.722 17.9758C354.116 18.7839 354.407 19.5372 354.739 20.2396C354.968 20.7215 355.463 20.1301 355.504 20.2009C356.463 21.6406 354.217 21.1457 354.282 22.596C355.286 21.8445 355.468 22.41 356.092 23.0258C356.172 23.1033 356.26 23.1806 356.357 23.2545C356.787 23.5665 356.939 22.9646 357.012 22.96C358.009 22.7654 357.821 23.825 357.884 24.108C358.016 25.0728 358.952 24.4181 359.147 25.023C359.401 25.6367 358.224 26.1376 359.497 26.4512C359.935 26.0397 359.382 24.5925 360.264 24.5663C363.412 24.5336 370.193 24.5202 373.148 24.1225C374.309 23.9721 375.155 23.8361 375.865 23.7231C376.911 23.5541 377.635 23.4143 378.647 23.2911C381.686 22.8695 380.36 22.2028 382.023 21.2606C383.678 20.2817 383.537 22.8022 383.954 23.2048C384.374 23.6029 384.496 23.0111 384.908 23.1666C385.322 23.321 384.73 23.8885 385.529 23.7265C386.339 23.5661 388.089 21.9523 388.158 21.3517C388.311 20.0839 386.977 19.3376 389.071 18.9646C389.192 18.9433 389.057 19.6659 389.509 19.5548C393.098 18.6505 396.67 17.1427 400.314 16.2907C400.814 16.1756 400.617 16.9805 400.909 16.922C403.952 16.351 402.528 15.6068 403.815 13.8592C403.934 15.6331 405.12 16.3339 407.327 15.8329C408.665 15.5488 408.281 14.8652 409.086 14.1789C409.332 13.9702 410.392 14.334 410.523 13.9627C410.976 12.7491 409.844 11.5279 412.45 11.8173C412.563 11.8339 412.256 12.4913 412.64 12.503C414.081 12.5596 414.762 12.2146 415.655 11.8816C416.229 11.6466 416.902 11.4146 417.958 11.3672C419.935 11.2805 423.483 12.026 425.752 12.1357C425.71 14.0767 427.864 13.6224 428.725 12.2778C430.208 12.3224 431.791 12.2327 433.226 12.4034C433.716 12.4615 433.4 13.0265 433.462 13.0866C434.421 14.0293 435.053 12.7207 435.369 12.6663C438.82 12.1328 441.65 13.084 444.938 12.0832C445.055 12.0471 445.232 10.6971 446.124 11.6717C446.182 11.7389 445.1 12.3638 446.651 12.3946C448.206 12.4254 451.137 13.1195 453.293 12.4822C453.816 12.3285 455.137 11.2271 456.195 12.0794C456.338 12.1951 456.183 12.5821 456.389 12.7967C457.056 13.4807 457.4 12.1177 458.185 13.2754C458.946 14.4338 460.564 15.3 462.728 14.5275C462.787 14.5051 463.339 13.4317 464.009 13.4606C464.051 13.4624 464.094 13.4646 464.137 13.467C465.23 13.5276 466.693 13.771 467.787 13.8034C468.329 13.8191 468.007 13.1367 468.101 13.1278C469.948 13.0096 471.533 13.1477 473.137 13.4353C473.938 13.5819 474.748 13.7622 475.593 14.0159C476.379 14.3056 477.533 14.4879 477.998 15.601C478.011 15.6339 478.025 15.6685 478.042 15.7045C478.366 16.3033 478.999 17.6775 479.593 18.1935C479.793 18.39 479.968 18.607 480.103 18.8557C480.988 20.2926 477.787 22.4572 481.829 23.4995C483.579 23.8798 486.372 20.4214 488.401 22.9846C493.404 23.3153 498.029 24.3091 502.981 23.3282C503.207 23.284 503.848 22.0863 504.376 22.0752C505.153 22.0614 505.611 22.5825 506.166 22.5898C508.5 22.637 510.618 22.0531 512.885 22.1708C513.752 22.2248 513.429 22.7682 514.426 22.8677C514.745 22.903 515.043 22.8646 515.328 22.8138C515.337 22.8152 515.361 22.8134 515.37 22.8115C515.92 22.489 516.459 22.0844 517.425 22.0969C518.5 22.1123 519.88 23.3292 521.268 23.1575C520.95 21.6953 521.878 21.4915 523.411 20.686C523.706 20.5306 523.239 20.114 523.371 20.0145C523.907 19.5983 524.575 19.8701 525.073 19.4378C525.195 19.3335 525.072 18.8377 525.164 18.7246C525.942 17.7439 527.828 18.4349 528.153 18.5561C529.398 19.0134 529.721 18.2411 530.6 18.3183C531.483 18.3947 530.371 19.0748 531.361 19.0012C533.406 18.8497 535.884 18.1109 537.87 17.624C538.654 17.4289 537.951 16.9058 538.059 16.8626C539.652 16.2741 541.484 16.5657 542.07 15.0289C544.035 18.1741 542.981 14.443 545.515 14.62C545.725 14.6354 546.263 16.2183 545.632 16.5986C544.985 16.9829 543.8 16.7198 542.917 17.3222C542.698 17.4651 541.754 19.2975 541.602 19.4334C540.377 20.4978 539.557 18.1492 539.453 18.0343C538.241 16.8241 537.032 18.8684 536.639 19.0911C534.819 20.1135 533.071 20.2145 531.534 21.012C530.531 21.53 530.836 23.1306 529.985 23.3035C527.144 23.8821 525.599 21.945 523.446 24.5323C522.983 25.0842 523.991 26.6612 521.604 25.8293C521.452 25.7774 519.624 24.9228 518.944 25.924C518.858 26.0503 518.988 26.5516 518.851 26.6303C518.02 27.0998 517.32 26.9434 516.436 27.2482C516.084 27.3228 515.104 27.3954 514.748 27.3399C514.685 27.3407 514.617 27.3455 514.545 27.3554C513.731 27.4612 512.619 27.7204 511.492 27.5566C510.812 27.4564 509.871 26.5214 509.521 26.2983C508.512 25.6541 507.507 26.8214 506.844 26.0303C506.172 25.2358 507.335 23.9167 505.663 23.4677C505.671 24.814 505.602 26.2 505.573 27.556C501.942 27.6967 498.223 27.4452 494.337 27.347C493.853 27.3347 494.318 28.0796 493.792 28.0829C491.558 28.0811 489.643 27.3838 487.233 27.1401C485.369 26.9505 483.078 27.1408 480.951 26.4832C480.388 24.8529 478.112 23.9852 476.31 22.6194C475.564 22.0739 474.907 21.3117 474.509 20.6204C474.045 19.7979 474.068 19.4456 474.081 19.1519C474.106 18.8658 474.169 18.6285 474.137 18.2894C474.09 17.6984 474.068 17.5585 473.988 17.4855C473.913 17.4226 473.798 17.4581 473.663 17.501C473.395 17.5987 473.032 17.7151 472.913 17.8089C472.903 17.8173 472.897 17.8288 472.894 17.8459C472.842 18.0976 473.395 19.0489 473.812 19.3643C474.238 19.7311 474.497 19.792 474.655 19.7841C474.956 19.7453 474.973 19.4166 474.937 19.0773C474.843 18.3855 474.424 17.5284 473.341 17.4442C473.219 17.4268 471.646 18.9321 471.455 19.0258C470.145 19.6037 471.293 18.4402 470.487 18.2679C469.033 17.9622 467.978 17.5287 466.175 17.9587C465.772 18.0596 464.9 18.6949 464.044 18.5701C463.823 18.5364 463.6 18.4465 463.385 18.2742C463.252 18.1686 463.335 17.6274 463.226 17.594C461.28 17.0392 461.213 18.747 460.091 19.3173C458.975 19.8884 457.239 18.7129 456.891 18.3748C455.966 17.4993 457.596 17.9987 457.645 17.913C458.233 16.8886 456.975 17.0646 455.996 16.9813C455.857 15.3104 454.492 15.4164 454.993 16.902C455.051 17.0642 455.805 16.9055 455.996 16.9813C455.159 18.6232 453.663 18.8399 452.01 17.3201C451.227 16.6083 451.959 15.7641 449.61 16.091C448.549 16.2392 448.967 17.3858 448.031 17.7088C445.892 18.4458 443.088 17.4049 440.871 17.6C440.066 17.6708 440.858 18.2914 440.308 18.3615C438.85 18.5495 437.556 18.0919 436.09 18.3502C435.957 18.3744 436.29 19.03 435.833 19.0435C432.372 19.1573 429.354 18.765 425.716 18.7676C423.961 18.7702 420.824 19.1324 418.982 19.04C417.895 18.9875 416.687 18.8289 415.503 18.6438C413.627 18.2948 411.61 18.1289 410.099 18.5369C408.597 18.951 409.063 19.5505 408.521 20.1212C407.516 21.2148 404.922 20.3519 404.52 20.2336C404.508 20.2253 405.789 19.6792 404.984 19.5665C404.363 19.0167 404.532 20.2269 404.52 20.2336C404.281 20.1288 401.563 20.8971 401.068 21.2298C400.802 21.4018 401.182 21.9273 401.04 22.0058C397.673 23.8587 394.064 25.6171 389.976 26.8556C389.902 26.8703 389.76 26.177 389.588 26.2194C387.187 26.7898 385.965 28.1127 384.082 29.2142C382.2 30.3097 380.432 30.5581 378.95 29.6455C378.365 29.8277 377.669 29.9241 376.941 29.9596C375.851 29.9989 374.701 29.909 373.908 29.8358C372.639 29.718 372.676 31.0856 372.569 31.1302C369.258 32.4829 367.118 32.0682 363.019 31.9515C361.136 31.9166 356.593 31.6389 353.708 29.8678C352.498 29.1831 351.676 28.3452 350.972 27.4802C350.38 26.7491 349.913 26.0326 349.393 25.2939C349.237 25.0692 348.841 25.6036 348.78 25.5417C347.113 23.8901 348.966 24.2211 349.015 23.7288C349.166 22.8921 349.329 22.2985 349.306 21.7208C349.294 21.1705 349.06 20.5195 348.66 20.2455C348.595 20.206 348.14 20.2827 347.915 20.7608C347.652 21.1908 347.981 22.3394 349.072 22.9638C349.415 23.1212 349.658 23.2057 349.839 23.2645C349.996 23.3187 350.088 23.3471 350.166 23.3625C350.451 23.4179 350.374 23.3892 350.368 23.3458C350.345 23.3001 350.301 23.2276 350.263 23.156C350.177 23.0145 350.088 22.8723 349.684 23.0121C349.613 23.0366 349.71 23.4961 349.152 23.5501C346.437 23.8482 342.944 24.1758 339.786 24.6667C339.356 24.7326 340.016 25.3942 339.391 25.5019C336.429 26.0109 333.153 26.3776 330.191 26.317C329.474 26.2985 329.867 25.7337 329.698 25.5941C328.655 24.7513 327.438 26.2297 327.206 26.2749C323.869 26.9738 320.959 26.8087 317.914 26.7812C316.155 26.7636 314.36 26.7986 312.38 27.067C312.082 27.1112 309.843 28.6266 308.799 27.3801C308.723 27.2975 307.717 26.0242 306.826 26.9063C306.772 26.9613 307.397 27.6217 306.31 27.5571C305.198 27.4924 303.416 27.9233 301.899 27.1585C301.406 26.9171 300.331 25.609 298.822 26.5599C298.757 26.6334 296.286 28.8079 295.558 27.1368C295.439 26.8586 295.752 25.2121 293.85 25.8787C293.478 26.0041 294.075 26.4556 293.118 26.576C291.536 26.7092 289.901 26.1334 286.935 25.8619C286.669 25.8169 286.034 25.8954 284.919 25.4922C284.348 25.2694 283.635 24.9318 282.747 24.1177C281.896 23.3328 280.653 21.768 280.288 19.4736C280.297 19.2888 280.327 19.1181 280.376 18.9616C280.471 18.7074 281.088 18.9987 281.037 18.291C281.009 17.7079 280.988 17.3724 281.017 17.4411C281.064 17.4809 281.134 18.1718 282.044 19.2181C282.578 19.7918 282.857 19.9421 283.011 20.05C283.177 20.155 283.232 20.1787 283.255 20.1911C283.292 20.2089 283.18 20.1595 283.026 20.1025C282.713 19.9843 282.231 19.8184 281.725 19.6024C281.12 19.3573 281.611 18.5131 280.928 18.1658C280.252 17.816 278.691 17.4424 277.847 17.8246C277.01 18.2049 277.836 19.6871 276.634 19.7646C272.073 20.0959 267.262 19.9592 262.364 20.476C261.598 20.56 260.864 20.6476 260.101 20.753C259.23 20.8734 260.032 21.2707 258.759 21.4853C254.05 22.2738 246.023 24.1503 241.707 23.7831C238.26 23.483 242.289 22.1022 239.711 22.1834C238.474 22.2231 237.42 24.1152 237.136 24.217C234.324 25.2383 232.18 24.84 229.471 25.4411C228.904 25.564 229.558 26.1681 229.067 26.2653C227.827 26.5111 226.471 26.5228 224.998 26.5378C224.597 26.5365 224.201 26.5462 223.813 26.5802C223.146 26.6405 223.295 27.1562 222.673 27.1472C221.179 27.1314 219.82 26.9788 218.286 26.5408C218.148 26.5007 219.055 25.8204 217.905 25.8339C216.03 25.851 213.696 25.415 211.244 25.7271C210.504 25.8085 210.364 27.0305 208.758 25.9591C208.382 25.7032 209.232 24.4768 206.817 25.1764C206.611 25.2165 205.468 25.4574 203.81 25.0183C202.189 24.6587 199.776 22.9643 199.21 20.9524C199.185 20.8708 199.16 20.7771 199.136 20.6729C199.103 19.8982 199.456 18.4426 198.98 17.7407C198.904 17.635 198.51 18.3571 198.153 17.6636C197.621 16.6075 197.248 15.6409 197.006 15.1719C196.898 14.9489 196.799 14.863 196.979 15.1553C197.125 15.3999 197.867 16.3203 199.22 16.7584C199.827 16.9525 200.101 16.9632 200.217 16.9945C200.324 17.0235 200.279 17.2018 200.28 17.3826C200.255 17.5635 200.336 17.7429 200.316 17.774C199.519 17.9804 196.115 18.5848 193.964 18.8967C193.128 19.0194 193.564 18.348 193.491 18.304C192.294 17.5932 192.016 19.0155 191.73 19.1649C189.843 20.1038 188.158 19.8911 186.338 20.517C185.839 20.6872 186.353 21.2038 186.265 21.2835C185.332 22.081 185.847 20.7916 185.144 20.8406C183.171 20.9754 181.108 21.5477 179.218 22.1059C178.527 22.3111 179.491 22.8173 178.865 22.9942C175.698 23.9018 172.385 24.6957 169.157 25.228C168.615 25.3177 168.072 25.4007 167.527 25.4756C166.805 25.5732 167.115 24.9215 166.938 24.8332C165.724 24.2115 164.487 25.747 164.147 25.939C162.635 26.8122 161.879 26.4603 160.393 26.8154C155.592 28.0106 148.89 28.2656 143.075 26.507C140.168 25.6781 137.502 24.4525 135.321 23.2179C126.912 18.1816 123.182 13.6178 116.761 10.4202C116.363 10.2155 116.409 11.0839 116.063 10.9181C115.958 10.8675 115.854 10.8168 115.749 10.7661C115.408 10.6119 115.527 10.7012 115.62 10.7252C115.716 10.7534 115.625 10.7283 115.333 10.731C114.743 10.7299 113.645 10.8395 112.541 11.0013C110.285 11.3322 107.784 11.8265 105.313 12.4318C105.107 12.4825 104.898 12.5349 104.685 12.589C104.246 12.6995 105.03 13.2531 104.333 13.4535C102.911 13.8678 101.066 14.233 99.5439 14.3398C98.8056 14.3924 99.6351 13.5885 98.892 13.6542C97.1584 13.8067 95.3384 14.1635 93.629 14.665C92.8998 14.8804 94.1761 15.3318 93.2144 15.5574C86.7001 17.1014 80.2865 18.7016 73.434 19.2776C72.9558 19.3187 72.2517 17.9741 71.3324 18.4663C71.3474 18.8797 71.4551 19.346 71.5175 19.7777C69.0807 20.3796 66.6053 20.9341 64.1218 21.4358C61.8719 21.8881 59.6469 22.3027 57.2757 22.6707C56.093 22.8505 54.8873 23.025 53.4729 23.1488C52.7545 23.2064 51.993 23.2651 50.9236 23.2302C50.387 23.2089 49.7429 23.1613 48.9657 23.0039C48.1935 22.8558 47.263 22.5257 46.715 22.264C43.215 20.4474 42.7483 18.5057 42.1473 17.4922C41.638 16.391 41.3938 15.6262 41.1622 14.9869C40.7641 13.7445 40.2856 12.9938 40.5997 13.412C40.6592 13.4737 40.5028 13.5887 40.3509 13.7102C40.2085 13.8371 40.038 13.9579 40.2808 14.1762C40.8577 14.7751 42.3923 15.202 42.835 15.114C39.2851 15.3029 35.7217 15.5452 31.9443 15.1938C31.4738 15.1515 31.6135 13.771 30.2564 14.0757C30.0156 14.1304 27.958 14.464 27.4447 14.8003C27.3753 14.8504 27.8007 15.4581 27.1347 15.5266C23.2623 15.9136 19.175 16.0907 15.2462 16.0037C14.6103 15.9885 15.2293 15.2594 14.7769 15.2426C11.5685 15.1276 8.15232 15.9067 5.00821 15.4833C2.89434 15.1923 3.62123 13.973 2.44295 12.8752C2.30624 12.7209 0.977482 12.7455 0.894251 12.0715C0.68745 10.3858 1.23524 8.51798 0.934844 6.72363C0.895632 6.5307 0.519277 6.54911 0.239031 6.49046C-0.0150953 6.43116 -0.143578 6.30176 0.252097 5.82995C0.316864 5.77023 1.38623 5.42864 1.67502 5.09506C1.8668 4.86659 1.48324 4.19879 1.86751 3.9C2.24291 3.60134 2.71743 4.15199 3.39231 3.78217C4.04283 3.40838 3.7167 2.65054 5.06833 2.47225ZM368.129 29.207C366.902 28.6785 366.937 31.078 368.178 30.3757C368.237 30.3385 368.193 29.2322 368.129 29.207ZM498.192 25.5386C496.693 24.4964 495.635 26.0209 496.705 26.8512C497.794 27.6742 498.658 25.8525 498.192 25.5386ZM513.279 24.284C511.64 23.4128 511.427 26.8105 513.079 26.1532C513.172 26.1173 513.37 24.3358 513.279 24.284ZM7.4811 12.2395C7.4729 12.2085 6.54566 12.2408 6.53111 12.2731C6.09546 13.0646 7.92737 13.0011 7.4811 12.2395ZM528.219 20.3443C527.587 20.0366 526.232 20.9401 527.02 21.3234C527.654 21.6317 529.008 20.727 528.219 20.3443ZM314.494 20.8137C314.477 20.7788 313.828 20.7677 313.845 20.9687C313.916 21.6162 314.806 21.4035 314.494 20.8137ZM552.812 16.1298C549.103 15.3671 547.164 12.1885 551.325 13.2309C552.047 13.4219 549.584 13.8182 550.473 14.2392C552.112 15.0161 553.474 13.4503 555.083 14.5906C555.386 14.8054 553.04 16.1875 552.805 16.1327C552.807 16.1317 552.81 16.1308 552.812 16.1298ZM367.175 26.4169C367.146 26.3898 366.254 26.4392 366.232 26.4703C365.799 27.2708 367.638 27.1705 367.175 26.4169ZM280.153 11.6249C280.098 11.5397 277.98 11.3333 277.901 11.403C276.759 12.5713 280.955 12.9805 280.153 11.6249ZM425.788 12.1873C426.769 11.4195 427.934 11.3227 428.72 12.2769C427.747 12.2326 426.771 12.2306 425.788 12.1873Z" fill="var(--stroke-0, #EC5B13)"/>
</svg>
