<svg preserveAspectRatio="none" width="100%" height="100%" overflow="visible" style="display: block;" viewBox="0 0 892 16" fill="none" xmlns="http://www.w3.org/2000/svg">
<path id="Line 21" d="M69.0192 15.8722C69.5711 15.8519 71.7911 15.9013 72.752 15.8927C71.6627 16.1074 67.0285 15.9459 69.0192 15.8722ZM167.596 0.286661C166.799 0.339723 166.001 0.392784 165.204 0.445847C167.47 0.480325 170.516 0.441379 172.618 0.491747C172.962 0.500205 172.07 0.653838 172.884 0.660698C173.698 0.667515 173.541 0.457561 174.725 0.435103C176.053 0.410551 182.133 0.556821 184.239 0.553272C192.114 0.5391 200.058 0.419198 207.949 0.506395C199.802 0.661726 208.011 0.819816 210.293 0.752499C210.799 0.736913 210.718 0.346591 218.892 0.44487C224.087 0.507237 219.289 1.06526 227.957 0.785703C221.291 0.395329 227.846 0.422689 233.071 0.409712C233.972 0.407413 241.247 0.466064 244.46 0.448776C245.559 0.442763 247.235 0.238313 248.693 0.232947C249.697 0.229408 250.456 0.341183 251.946 0.33549C258.893 0.310297 265.726 0.301605 272.686 0.339397C268.618 0.864788 275.878 0.563312 276.204 0.58843C277.862 0.731078 270.363 0.771682 273.329 0.860901C277.473 0.844625 281.618 0.828348 285.762 0.812071C282.361 0.747563 290.265 0.369643 291.72 0.541553C291.08 0.0772991 310.61 0.945622 313.583 0.790586C314.202 0.757838 310.149 0.528388 319.551 0.633353C320.569 0.645017 320.184 0.785088 320.718 0.772031C321.038 0.764179 322.974 0.318981 325.036 0.564992C325.79 0.654781 320.971 0.947179 331.553 0.82965C327.339 0.376527 346.225 0.584255 349.699 0.697809C349.005 0.636934 348.311 0.576059 347.617 0.515185C351.052 0.679403 351.672 0.525344 352.445 0.53374C355.564 0.567463 359.851 0.72272 362.756 0.708551C366.155 0.69225 366.166 0.410451 370.129 0.520068C369.189 0.457891 368.249 0.395715 367.308 0.333537C370.045 0.348512 372.782 0.363486 375.519 0.378461C369.181 0.751486 376.886 0.396257 377.394 0.388227C378.204 0.374651 377.04 0.527365 378.394 0.508348C378.534 0.505219 378.332 0.361408 380.419 0.345257C384.78 0.312001 384.09 0.492815 385.921 0.49077C386.089 0.489838 385.502 0.360281 388.664 0.329631C398.714 0.232059 388.614 0.428915 388.228 0.446823C387.722 0.470443 391.168 1.01186 382.631 0.819884C385.497 0.881001 385.786 1.12059 386.108 1.12654C386.394 1.13143 391.361 1.09768 391.634 1.08943C394.076 1.00807 391.928 0.84434 392.403 0.815001C392.793 0.791348 398.776 1.00471 400.179 0.512256C403.042 0.966492 398.531 0.924876 393.73 0.994696C393.03 1.08791 398.302 1.17854 398.579 1.1783C405.38 1.17747 401.615 0.803831 403.102 0.564992C403.882 0.440025 406.653 0.694933 404.095 0.359905C410.268 0.324541 406.524 0.518682 406.923 0.547413C407.525 0.589624 409.684 0.493605 409.955 0.506395C410.351 0.525331 408.972 0.641326 410.536 0.682183C410.797 0.688125 413.317 0.488518 410.067 0.39311C414.41 0.421486 414.052 0.251281 415.525 0.59429C418.516 -0.0546398 417.695 0.977867 418.873 1.01423C422.005 1.11007 421.096 0.600579 421.262 0.575734C422.402 0.41652 431.072 0.591541 433.219 0.518115C432.372 0.885083 426.346 0.522121 424.998 0.593313C420.506 0.830165 431.33 0.776784 428.067 1.23787C429.435 1.11124 430.803 0.984604 432.171 0.857971C434.679 1.15443 431.121 1.2837 437.871 1.17537C438.974 0.919482 433.098 1.21578 434.277 1.01423C434.972 0.895936 438.886 0.87053 438.963 0.808165C439.04 0.733094 435.503 0.822063 436.06 0.706598C437.277 0.457427 450.179 0.694637 440.358 0.830626C443.097 0.826368 444.509 1.32198 446.884 1.16755C448.42 1.06732 439.778 0.38283 452.744 0.508348C453.02 0.742378 447.56 0.577456 447.419 0.595266C447.219 0.621191 448.207 1.1493 448.378 1.17537C448.983 1.26119 462.223 0.978398 465.021 1.24373C463.913 0.938501 475.026 1.18926 476.236 1.09626C476.558 1.07059 475.354 0.883621 475.699 0.863831C477.847 0.746049 483.66 1.0798 486.356 1.08845C489.373 1.09825 488.991 0.93677 489.16 0.937076C490.487 0.946083 489.427 1.05555 490.238 1.05524C491.464 1.05472 499.891 1.07711 500.314 1.05427C500.438 1.04715 499.062 0.862688 500.899 0.827697C501.217 0.821634 501.015 1.04033 506.456 0.945866C513.007 0.832245 501.906 0.673898 504.628 0.44487C508.837 0.770969 508.7 0.447817 509.841 0.473191C510.237 0.482433 513.177 0.757184 516.371 0.739803C514.079 0.784401 511.787 0.828999 509.494 0.873597C511.748 0.921773 516.124 0.862143 517.981 0.916568C518.886 0.94306 518.14 1.16877 520.107 1.16267C520.525 1.16015 522.182 0.610255 517.028 0.856995C516.616 0.660645 519.068 0.788507 520.206 0.732966C520.378 0.724313 521.057 0.396287 522.51 0.600149C522.859 0.650306 519.06 1.60718 528.856 0.914615C529.171 0.892293 528.075 0.772457 528.383 0.747616C528.594 0.730792 531.094 0.779266 531.37 0.762264C531.653 0.744022 530.445 0.613195 530.782 0.587454C532.506 0.454803 534.77 0.973681 531.214 0.934146C532.403 0.998277 533.591 1.06241 534.78 1.12654C533.508 0.735475 536.647 1.01651 538.292 1.00446C548.832 0.927491 541.774 0.673148 543.586 0.541553C546.501 0.330263 544.275 0.999486 548.602 0.798399C549.002 0.779598 543.771 0.495523 553.985 0.655815C552.477 0.666883 550.97 0.677952 549.463 0.68902C550.332 1.06726 554.906 0.663074 555.258 0.657768C559.268 0.605833 556.557 0.742189 562.512 0.547413C563.044 0.529925 564.203 0.623274 565.34 0.576711C570.054 0.384876 559.119 0.460302 558.82 0.307169C558.679 0.232136 570.438 0.251032 570.842 0.286661C572.556 0.444596 565.511 0.356223 566.854 0.552296C567.344 0.621916 584.105 0.478926 587.468 0.555225C591.348 0.644013 593.095 1.15684 593.12 0.580617C594.215 1.14623 595.182 0.760323 595.678 0.764218C601.679 0.816577 601.69 0.822285 606.836 0.768125C607.972 0.756352 608.932 0.927967 609.333 0.898989C609.568 0.881486 609.13 0.697831 610.276 0.641167C611.868 0.563646 621.434 0.752542 622.145 0.854065C622.856 0.955588 618.105 0.898092 618.956 1.06501C622.395 1.08188 625.693 1.04058 629.154 1.05817C630.592 1.06598 629.853 1.18281 630.475 1.18513C630.739 1.18657 635.704 1.08369 635.494 1.0406C635.001 0.94039 619.669 1.00775 623.707 0.803282C624.485 0.763774 627.237 1.03299 626.8 0.705622C640.497 0.779843 654.194 0.854065 667.891 0.928287C660.021 1.17314 651.165 0.954159 642.922 0.977117C641.792 0.979951 637.973 0.948376 638.437 1.11384C645.447 1.15668 654.161 1.07047 660.892 1.1783C661.107 1.18186 660.316 1.33053 661.123 1.35408C662.631 1.39805 667.542 1.15829 668.367 1.22029C668.508 1.23473 665.714 1.43072 666.564 1.55526C668.745 1.87488 669.299 1.16698 671.175 1.17537C672.625 1.18215 682.372 1.52444 684.799 1.30818C687.38 1.07768 677.616 1.17437 678.337 0.985906C684.944 0.796515 691.633 0.998757 697.876 0.975163C697.986 0.974562 697.031 0.826876 698.424 0.806211C700.847 0.770251 701.484 0.979738 702.663 1.01325C703.936 1.04893 708.435 1.0189 709.037 1.09529C709.113 1.1053 708.202 1.31308 708.063 1.31893C706.104 1.40456 705.407 1.13488 705.229 1.13142C704.559 1.12119 703.901 1.22449 703.289 1.21834C702.283 1.20808 701.729 1.11251 700.401 1.10407C699.484 1.0979 700.368 1.28142 699.485 1.27303C699.161 1.2692 695.663 0.85015 695.337 1.27791C695.236 1.41278 723.838 1.58598 726.697 1.47811C724.245 1.42668 721.792 1.37524 719.34 1.32381C724.32 1.44901 730.302 1.10723 730.726 1.61288C749.192 1.65423 767.659 1.69557 786.125 1.73691C789.423 1.77999 787.614 2.10493 793.039 2.01036C791.638 1.90684 790.236 1.80332 788.834 1.6998C791.614 1.77242 803.935 1.9143 805.929 1.84727C806.187 1.83848 806.546 1.5444 809.624 1.51913C812.356 1.49682 812.795 1.71716 814.255 1.75937C815.482 1.7942 816.859 1.73647 817.223 1.74863C817.502 1.75837 817.612 1.89311 818.284 1.9166C820.406 1.98925 818.686 1.60987 820.792 2.04552C820.279 2.06212 819.767 2.07872 819.254 2.09532C821.814 2.15838 825.312 2.35616 821.541 2.45374C820.892 2.47058 821.449 2.34023 820.966 2.34045C802.03 2.36467 817.151 2.61807 823.786 2.41565C825.491 2.6088 835.042 2.49087 835.359 2.52893C835.801 2.58406 834.166 2.73843 836.308 2.87172C836.759 2.89994 849.529 2.79178 844.931 3.04848C843.982 3.10144 837.86 3.0458 836.383 3.05337C839.856 3.46275 847.997 2.87622 848.912 2.89125C852.605 2.95505 841.818 3.24604 850.137 3.29361C856.534 3.33011 850.529 3.05676 852.989 2.94008C854.371 2.87461 861.61 3.17575 861.414 2.78578C863.899 2.74414 862.444 2.95062 862.751 2.96547C863.051 2.97853 867.937 2.86179 869.522 2.94399C869.715 2.95421 869.109 3.15691 869.308 3.17349C869.695 3.20189 874.407 3.16137 874.596 3.14419C874.716 3.13226 873.593 2.9548 874.055 2.91176C874.593 2.86213 879.127 2.9039 879.377 2.85316C879.73 2.77646 874.133 2.82699 875.065 2.62855C877.645 2.67851 881.849 2.54611 883.552 2.38635C883.135 2.43203 880.633 2.43859 879.765 2.42248C880.173 2.13184 885.545 2.1358 883.708 2.36584C884.875 2.2423 884.079 2.17676 884.736 2.06017C884.908 2.03063 886.567 2.02455 886.886 1.97423C886.928 1.9642 885.217 1.85454 885.559 1.79551C886.18 1.68883 891.208 1.71283 891.62 1.74082C892.778 1.82013 888.678 1.91609 888.336 2.03868C888.288 2.05751 891.774 2.29775 891.827 2.31896C892.031 2.54661 888.151 2.38256 888.595 2.58753C889.554 2.63083 890.514 2.67412 891.473 2.71742C887.772 2.92498 880.924 2.81825 879.159 3.05434C884.646 2.98409 890.39 2.9924 890.378 3.52409C890.374 3.74801 888.006 3.87928 888.098 3.93621C888.447 4.13993 891.734 3.91862 891.854 3.92938C891.955 3.94179 892 3.95388 892 3.96565C892 3.96565 892 3.96566 892 3.96566C892 4.08494 887.315 4.17083 887.08 4.22529C886.686 4.32203 888.771 4.72024 888.768 4.80832C888.695 4.82601 885.359 4.92025 886.485 5.07395C887.624 5.2292 890.544 5.23263 890.646 5.24876C891.204 5.34164 886.096 5.42634 885.944 5.48119C885.864 5.50892 888.607 5.6793 888.687 5.72827C888.755 5.77742 886.67 5.88467 885.849 6.03981C885.236 6.15507 887.02 6.24343 886.706 6.2615C886.482 6.27347 881.656 6.27151 881.418 6.29177C881.065 6.32174 882.195 6.45949 882.031 6.49393C881.798 6.54346 880.239 6.49374 880.442 6.54471C880.594 6.5827 886.636 7.05754 886.597 7.18438C886.528 7.40072 880.13 6.90296 886.083 7.75667C886.125 7.76228 887.574 7.7016 887.615 7.70686C888.509 7.86394 883.863 8.10556 889.544 8.06332C878.976 8.33613 888.229 8.38853 886.665 8.7528C886.061 8.89282 881.965 8.95055 881.946 8.97156C882.344 9.14918 883.649 9.01142 884.093 9.09852C884.337 9.14719 880.672 9.33499 881.497 9.45693C881.923 9.51978 885.814 9.49741 885.975 9.50967C887.514 9.62529 885.626 9.74983 885.964 9.83194C886.189 9.88701 888.537 9.89137 888.598 9.90128C888.697 9.92191 885.509 10.1444 884.845 10.2226C884.34 10.2828 886.235 10.377 885.883 10.4033C883.76 10.5601 879.245 10.1601 883.596 10.7207C883.862 10.755 885.508 10.7411 885.556 10.748C886.573 10.9069 883.543 10.9206 883.001 11.0507C882.07 11.2749 886.426 11.1499 882.803 11.3076C885.521 11.4542 887.035 11.4481 890.214 11.4072C881.41 11.5212 878.303 12.1015 888.077 12.0869C884.968 12.0779 885.313 12.4054 884.385 12.4111C883.809 12.4143 879.3 12.0887 881.367 12.8194C881.627 12.9106 884.365 12.7947 883.508 12.9815C876.935 12.9338 883.368 13.1003 883.375 13.125C883.29 13.5554 867.229 13.2029 864.469 13.252C861.267 13.3089 858.421 13.6481 857.725 13.6485C855.435 13.6486 857.336 13.4764 856.823 13.4131C856.304 13.3504 849.792 13.6803 849.467 13.6622C848.205 13.5894 849.486 13.3853 849.354 13.375C847.793 13.25 839.046 13.4098 836.598 13.3624C836.673 13.4947 841.59 13.5052 838.52 13.7178C834.946 13.9657 834.742 13.3822 834.648 13.3565C818.272 13.362 801.896 13.3676 785.519 13.3731C785.724 13.6836 796.43 13.4494 796.674 13.4903C798.104 13.7323 780.017 13.7278 777.799 13.6182C779.484 13.6853 781.17 13.7523 782.855 13.8194C779.977 14.1763 773.608 13.7126 769.445 13.8702C768.1 13.9213 770.683 14.059 770.629 14.0684C769.118 14.2071 766.693 14.1003 768.506 13.9141C764.816 14.0925 765.355 13.8957 762.524 13.8809C762.378 13.8803 763.594 14.0243 761.353 14.0841C760.304 14.1119 754.705 14.1124 753.956 14.2384C753.648 14.2914 756.487 14.85 756.838 14.3692C762.927 14.6036 758.784 14.1502 761.149 14.1612C761.512 14.1637 760.677 14.4321 766.634 14.3057C765.5 14.7896 758.64 14.4278 757.464 14.4864C755.039 14.6069 765.032 14.8568 766.866 14.4796C766.009 14.8572 767.575 14.5305 769.802 14.546C772.241 14.5628 771.178 14.6753 772.497 14.6759C776.106 14.6787 774.61 14.4121 777.584 14.6524C774.684 13.9085 782.677 14.5543 785.006 14.7491C781.216 14.7869 777.427 14.8246 773.637 14.8624C773.854 14.9015 774.07 14.9405 774.287 14.9796C773.289 14.9741 772.291 14.9685 771.293 14.963C771.453 14.9256 771.613 14.8881 771.773 14.8507C766.626 15.0941 765.37 14.8205 764.95 14.8175C759.547 14.7858 753.307 14.7881 747.845 14.7872C747.025 14.7871 747.588 15.0306 741.614 14.8399C739.709 14.7792 741.508 14.5898 739.348 14.6183C736.646 15.133 736.698 14.7224 735.894 14.7218C733.589 14.7218 732.181 14.8493 731.968 14.8507C729.12 14.8706 724.949 14.8493 721.821 14.8683C721.762 14.8702 723.39 15.0283 721.358 14.9816C720.644 14.9648 714.244 14.2898 708.649 14.5099C710.104 14.5554 711.559 14.601 713.014 14.6466C711.303 14.5829 699.313 14.753 702.245 14.9337C704.042 15.0441 708.429 14.609 708.911 15.0275C704.921 14.9022 682.884 15.0895 681.168 14.9923C680.931 14.9784 682.391 14.8427 682.063 14.8253C681.809 14.8121 676.762 14.8442 676.091 14.7921C675.693 14.7611 677.923 14.6779 677.742 14.629C677.583 14.5941 671.279 14.536 670.919 14.7062C672.467 14.6378 676.818 14.6975 674.536 14.8409C674.243 14.8587 672.722 14.749 672.365 14.7716C669.057 14.9801 678.944 14.93 680.474 14.9317C674.263 15.1485 664.658 14.893 657.462 15.0343C654.554 14.8927 661.772 14.8176 658.482 14.7003C651.657 14.4571 656.667 14.8961 656.454 14.9142C654.759 15.0571 648.985 14.2913 648.982 14.8741C646.508 14.7864 647.309 14.7129 643.817 14.7892C644.276 14.8295 644.736 14.8699 645.195 14.9103C641.318 15.2479 633.113 14.3961 633.728 14.3311C635.381 14.1572 639.654 14.4285 640.019 14.422C640.56 14.4123 642.053 13.8209 647.965 14.3497C650.385 13.953 638.595 14.082 643.96 13.8116C640.336 13.856 625.43 13.5799 623.285 13.754C623.029 13.7767 624.221 14.1719 620.539 13.9708C618.79 13.875 623.006 13.8704 622.206 13.7803C619.745 13.504 586.266 13.6808 579.907 13.6954C579.494 13.6958 579.646 13.5731 579.24 13.5743C577.994 13.5777 573.453 13.7606 571.223 13.7042C575.843 13.9312 566.87 13.9489 564.588 13.9239C561.123 13.8859 561.338 13.67 559.841 13.6241C554.072 13.4471 545.134 13.9596 540.653 13.4805C540.898 13.956 532.902 13.2474 529.264 13.2432C526.415 13.2398 522.281 13.5545 526.127 13.7462C521.208 13.7243 516.031 13.813 511.417 13.8419C510.654 13.8467 511.704 13.7061 510.403 13.7188C510.285 13.721 510.122 13.8588 509.004 13.8731C499.78 13.9932 504.268 13.7004 502.543 13.6143C501.577 13.5661 500.864 13.5421 500.341 13.5342C505.718 13.5073 511.919 13.4532 513.578 13.4493C512.163 13.145 501.661 13.5077 498.585 13.4258C498.479 13.4229 498.85 13.2551 498.742 13.2539C498.739 13.2539 498.737 13.2539 498.735 13.2539C497.582 13.2411 490.241 13.303 491.753 13.503C492.158 13.5564 495.537 13.5563 499.545 13.5381C498.46 13.5757 499.27 13.7635 499.079 13.7715C496.758 13.8644 491.071 13.681 489.054 13.6563C488.593 13.6509 488.626 13.7713 488.551 13.7715C486.716 13.7442 487.469 13.4005 485.587 13.7549C482.265 13.3266 491.813 13.6913 491.14 13.4131C490.623 13.1989 469.415 13.314 469.478 13.6514C469.405 13.6153 469.114 13.5705 468.515 13.5196C467.189 13.4063 461.286 13.4418 460.267 13.504C460.095 13.5162 460.164 13.8437 459.951 13.8467C459.418 13.8543 452.203 13.5975 449.508 13.7911C450.963 13.837 452.418 13.8829 453.874 13.9288C445.085 13.9316 446.444 14.0291 449.372 14.127C449.518 14.1279 449.661 14.1403 449.8 14.1417C452.07 14.2141 454.979 14.2838 455.024 14.3097C455.19 14.4082 440.28 14.4631 443.148 14.1593C443.548 14.1177 450.446 14.253 447.031 14.0362C446.433 13.9982 442.003 14.0601 441.77 14.0362C440.213 13.8773 449.887 13.6662 448.705 13.4405C446.357 13.6554 443.343 13.5422 440.651 13.5977C439.425 13.6228 439.124 13.787 438.973 13.7901C436.714 13.833 437.982 13.6608 437.227 13.6651C436.823 13.6681 432.371 14.0345 433.212 13.5294C418.543 13.9009 429.154 13.9006 438.153 13.8721C435.31 14.0561 429.735 13.9671 427.234 14.0098C426.336 14.0253 426.868 14.1939 425.352 14.2276C422.231 14.297 407.333 14.1033 403.452 14.0577C405.836 13.9981 405.139 13.8145 403.299 13.8272C401.459 13.84 403.005 14.0851 402.646 14.1114C402.261 14.1387 393.629 14.023 392.192 14.0548C398.691 13.966 397.225 13.7829 391.709 13.7637C392.507 13.711 393.304 13.6583 394.101 13.6055C390.868 13.6796 384.071 13.4003 382.202 13.4835C381.909 13.4968 382.962 13.6508 382.798 13.6583C381.158 13.7237 375.581 13.5667 375.322 13.6192C375.102 13.6629 377.481 13.792 376.598 13.8555C376.414 13.8689 374.12 13.6608 371.861 13.712C371.023 13.7308 371.528 13.8764 371.317 13.8848C369.557 13.9549 370.596 13.7097 367.38 13.7491C365.024 13.7782 363.269 14.0179 360.013 13.9385C370.704 14.2441 361.717 14.1165 357.247 14.2091C356.53 14.2238 357.144 14.4881 352.864 14.3595C361.973 13.8815 350.267 14.1069 347.872 14.1016C347.741 14.1 347.696 13.9257 346.521 13.9229C346.422 13.9231 346.565 14.0409 345.473 14.0499C335.121 14.135 341.74 14.002 339.774 13.8858C338.936 13.8363 333.902 14.0029 332.546 14.0069C332.234 14.0073 332.378 13.8849 331.172 13.8897C329.037 13.8985 327.125 14.0288 325.717 14.0391C325.553 14.0397 325.546 13.8466 322.876 13.9092C322.125 13.9268 321.282 13.9953 322.348 14.0509C325.884 14.2335 332.592 13.9174 336.589 14.0997C340.233 14.2657 328.741 14.2813 328.143 14.2823C327.924 14.2829 330.168 14.187 327.888 14.168C325.941 14.1522 322.382 14.4858 319.48 14.4132C319.259 14.4078 316.94 14.125 317.047 14.1085C317.144 14.0964 320.705 14.035 320.188 13.9532C320.126 13.9439 317.863 13.9458 317.567 13.8848C317.206 13.8107 316.23 13.0827 315.747 13.0645C314.507 13.0194 315.314 13.1854 314.512 13.1739C312.792 13.1495 306.825 12.9343 306.631 13.1866C307.617 13.2015 308.602 13.2165 309.588 13.2315C304.104 13.2574 306.442 13.3648 305.665 13.4122C304.828 13.4634 305.063 13.2416 303.215 13.2207C302.813 13.2162 295.078 13.2625 295.218 13.3555C299.496 13.2074 297.91 13.4815 298.107 13.4864C298.857 13.5042 299.814 13.3505 300.819 13.3536C307.891 13.3776 300.759 13.6203 302.429 13.6827C303.003 13.7037 304.148 13.5724 304.392 13.5792C305.185 13.6009 305.197 13.7728 305.726 13.7589C306.959 13.7266 305.519 13.4834 305.617 13.4708C306.719 13.3186 311.038 13.5079 308.349 13.7725C309.963 13.8679 310.153 13.5463 311.432 13.6749C313.977 13.9294 310.165 13.864 309.132 13.9063C305.427 14.0588 304.328 13.9354 299.084 13.9776C297.195 13.9925 294.958 14.1487 294.082 14.1573C293.53 14.1627 288.318 13.6192 288.165 14.4698C286.138 14.3875 282.96 13.827 280.872 13.8526C278.999 13.876 279.594 14.1769 279.42 14.1886C279.152 14.2068 276.885 14.1831 276.119 14.2257C275.221 14.2759 275.669 14.3908 274.244 14.4376C270.698 14.5538 270.791 14.2466 270.426 14.2266C266.195 13.9959 268.047 14.4328 267.109 14.4679C266.235 14.5001 253.987 14.3319 251.408 14.4425C252.457 14.3809 253.507 14.3194 254.556 14.2579C252.678 14.0663 250.688 14.3788 250.653 14.0352C250.272 14.5899 246.397 14.2191 245.232 14.2335C244.774 14.2394 244.81 14.3339 244.235 14.338C241.992 14.3545 236.935 14.2793 235.718 14.3272C230.457 14.5336 243.911 14.8768 244.97 14.8976C242.85 14.8914 230.854 15.0157 236.368 15.2823C237.221 15.3235 238.731 15.0753 239.21 15.0655C242.45 15.0016 239.902 15.2241 240.156 15.2452C240.587 15.2794 242.72 15.0643 243.283 15.09C243.47 15.0982 242.262 15.2996 245.352 15.3038C243.832 15.4991 235.146 15.34 234.007 15.3859C233.601 15.4022 236.145 15.8195 228.712 15.4142C228.798 15.4529 228.885 15.4917 228.971 15.5304C224.832 15.5464 220.693 15.5623 216.554 15.5783C217.004 15.489 219.328 15.3097 216.401 15.3478C214.716 15.3698 215.963 15.5686 215.809 15.5744C214.297 15.6291 187.533 15.5629 182.347 15.5851C180.582 15.5923 175.665 15.7521 175.29 15.755C173.047 15.771 165.107 15.667 163.523 15.6896C162.534 15.7041 163.474 15.8702 162.591 15.8624C161.769 15.855 162.62 15.6944 162.376 15.6876C160.356 15.6294 145.006 15.8401 141.361 15.6886C143.589 15.7341 154.705 15.4132 154.482 15.2999C154.434 15.2844 151.732 15.1622 151.174 15.2218C150.254 15.0827 147.092 15.5061 145.373 15.423C145.178 15.4135 145.944 15.176 142.875 15.1329C141.818 15.1182 139.05 15.3033 136.264 15.0958C132.23 15.1955 111.024 14.8875 109.569 15.1427C109.526 15.1562 112.513 15.244 110.495 15.3488C107.813 15.488 110.222 15.0191 107.096 14.9786C106.625 14.9725 97.9276 15.0199 97.6429 15.0489C95.0089 15.3121 102.608 15.4188 102.502 15.4493C102.237 15.5264 95.9225 15.573 95.6659 15.5548C95.4216 15.5359 100.571 15.1872 94.3831 15.3195C95.092 15.3611 95.8009 15.4028 96.5098 15.4445C93.5995 15.5256 93.3221 15.2844 92.6171 15.2697C90.4253 15.223 88.0542 15.5894 84.5424 15.1368C83.6139 15.0167 85.1554 14.8833 85.0392 14.8653C83.9237 14.7037 82.5006 15.1361 80.8233 14.8136C80.697 14.7895 84.6006 14.5963 77.7778 14.5958C78.2474 14.6267 78.717 14.6576 79.1866 14.6886C78.2245 14.7576 71.3165 14.7986 70.3871 14.7823C67.6722 14.7346 70.0398 14.5126 67.3111 14.5392C69.0612 14.8434 60.7633 14.8831 61.2406 14.6212C60.0817 14.9501 53.0326 14.6964 49.719 14.6886C47.6282 14.6839 43.3635 14.8274 42.6992 14.8106C41.8899 14.7901 42.1358 14.5657 40.6746 14.5157C40.2579 14.5015 35.9078 14.666 32.0895 14.4337C31.3495 14.3889 29.7954 14.0083 31.1708 13.9132C33.525 13.7504 37.9786 14.057 37.9218 13.8321C37.855 13.5915 31.8564 13.7346 30.2418 13.7032C22.7877 13.558 27.0921 13.3022 26.9004 13.2247C26.4033 13.0365 22.3303 13.0423 22.1604 13.0254C21.4561 12.9503 24.3422 12.8014 24.3858 12.6865C24.4384 12.537 20.5125 12.2672 21.405 12.2168C22.6826 12.1452 26.2905 12.3701 26.5193 12.3594C29.497 12.2143 25.4154 11.8689 24.2905 11.6992C23.9495 11.647 25.3082 11.5612 25.0255 11.5459C20.7096 11.3135 24.1157 12.0313 21.2451 11.9834C18.6839 11.9407 21.9792 11.7137 21.8814 11.7012C21.7549 11.6874 18.6926 11.675 18.2132 11.5947C17.977 11.5545 25.9363 11.113 25.6039 10.915C23.0644 10.9586 20.5248 11.0022 17.9852 11.0459C17.7862 10.7877 21.4389 10.9777 21.8167 10.9511C22.5773 10.8977 20.4565 10.7671 20.5475 10.6855C20.5963 10.6336 23.0855 10.4484 20.8367 10.372C20.0639 10.3456 18.442 10.5266 15.6272 10.3417C25.4231 10.1056 18.6347 9.96049 18.3459 9.86906C18.0631 9.77763 22.7397 9.56244 17.0631 9.60049C16.817 9.09815 17.1855 9.4417 18.7985 9.35341C20.7745 9.24488 16.2076 9.07947 23.4296 9.20497C23.0187 8.96978 17.2139 8.98642 16.9066 8.96765C16.6412 8.95065 17.9315 8.83497 17.4714 8.79577C12.0296 8.34133 15.7673 8.54885 14.1912 8.25864C14.051 8.23271 8.90764 8.12512 12.8233 8.08285C19.9571 8.00602 22.9386 8.3393 24.1374 7.62678C18.8607 7.31728 12.4674 7.77719 10.8634 7.78499C8.40821 7.79622 10.9515 7.65091 10.649 7.61018C10.5439 7.59702 8.42821 7.60903 8.39979 7.59748C6.89117 7.05404 17.8184 7.58846 21.2587 7.49397C20.3365 7.41258 19.4144 7.3312 18.4923 7.24981C19.7433 7.24656 20.9944 7.24331 22.2455 7.24005C16.2854 7.07645 22.0353 7.17811 23.5215 6.73808C23.8551 6.63921 19.9396 6.80877 24.4062 6.53397C21.1118 6.47053 22.1626 6.38063 19.1796 6.50467C19.2566 6.32829 25.9681 6.12934 28.6153 6.03883C19.2635 5.84063 24.5965 6.48757 16.5119 6.14528C15.0127 6.36368 18.8716 6.32116 18.5569 6.3572C17.4279 6.48682 14.7813 6.28101 11.5881 6.73515C11.0682 6.80971 13.2682 7.03922 10.0127 7.02813C9.6526 7.02656 7.5782 6.83042 7.60696 6.81621C7.88196 6.6626 9.93474 6.72016 10.0195 6.65604C10.099 6.59535 7.80882 6.63185 7.80091 6.61503C7.73054 6.42259 9.71177 6.54148 9.42401 6.48123C8.80258 6.35021 0.564752 5.93609 11.3159 6.05739C2.38593 6.27495 10.1726 6.26987 13.6502 6.1863C14.537 6.16535 14.7616 6.0504 16.0253 6.01051C17.6508 5.95885 19.5533 6.01402 20.3944 5.99293C21.299 5.96968 16.159 5.69798 23.5929 5.77906C19.8096 5.50879 13.1268 5.79694 9.4104 5.60717C1.91241 5.22372 14.6383 5.14139 15.964 5.10423C16.3172 5.09416 15.1331 4.93892 15.3686 4.92941C15.7536 4.91483 22.976 4.98658 23.6882 4.85812C24.3984 4.72978 21.0428 4.86404 20.8197 4.73019C20.6685 4.64008 29.3814 4.48024 24.6648 4.41865C21.4139 4.37643 15.4217 4.73861 14.4124 4.34931C19.1932 4.31709 23.974 4.28486 28.7549 4.25263C26.1382 4.10451 23.5215 3.9564 20.9048 3.80828C26.2707 3.7613 30.9096 3.92853 36.0061 3.71648C23.7595 3.24185 39.9824 3.3377 40.1608 3.27994C40.2205 3.24539 35.4001 2.86015 34.6245 2.78969C38.8959 2.64148 51.8749 2.56906 44.2815 2.09337C45.6597 2.20078 48.9974 1.93564 48.9534 1.91563C48.5296 1.70548 41.2499 1.84175 42.4372 1.65195C43.8131 1.43168 45.741 1.7305 47.8577 1.70664C58.7193 1.58223 55.7395 0.485145 66.6305 0.658745C66.4139 0.619681 66.1972 0.580617 65.9806 0.541553C77.8187 0.60373 89.6567 0.665907 101.495 0.728084C106.126 0.393055 118.453 0.189045 124.507 0.226111C125.727 0.233331 131.712 0.409162 132.163 0.439987C133 0.499065 128.401 0.521607 130.479 0.632377C130.918 0.655113 141.051 0.728993 140.327 0.541553C139.191 0.51982 135.637 0.614041 135.056 0.569875C130.97 0.25463 162.21 0.506476 163.758 0.379437C163.066 0.318563 162.374 0.257689 161.682 0.196814C163.653 0.226763 165.625 0.256712 167.596 0.286661ZM77.0122 15.3409C75.8292 15.529 72.864 15.3878 71.1119 15.4406C68.6913 15.5145 64.5764 16.2387 66.3481 15.5128C69.9028 15.4555 73.4575 15.3982 77.0122 15.3409ZM128.965 15.6212C126.581 15.5202 128.43 15.1148 130.384 15.2833C130.601 15.3025 132.19 15.7572 128.965 15.6212ZM103.975 15.4288C104.076 15.4235 106.136 15.4342 106.208 15.4406C108.055 15.6033 101.844 15.5701 103.975 15.4288ZM224.694 15.2208C222.067 15.2383 223.969 15.6069 225.602 15.4552C225.705 15.4456 224.866 15.22 224.694 15.2208ZM222.826 15.2111C220.786 14.881 216.677 15.5499 219.943 15.4825C220.26 15.4757 222.92 15.2271 222.826 15.2111ZM120.468 15.4601C120.737 15.3336 123.195 15.3947 124.245 15.4249C124.217 15.5404 121.498 15.446 120.468 15.4601ZM182.81 15.4249C182.914 15.3255 174.368 15.331 173.786 15.462C175.134 15.4064 182.711 15.5143 182.81 15.4249ZM204.726 15.2853C204.51 15.2681 201.557 15.2942 201.644 15.382C203.085 15.4971 205.702 15.3631 204.726 15.2853ZM248.288 15.2911C248.448 15.2691 246.237 14.7107 251.476 15.0782C252.246 15.132 249.498 15.2779 249.772 15.298C250.344 15.337 250.797 15.3553 251.16 15.3585C248.72 15.4048 246.185 15.4266 245.94 15.3927C244.789 15.2327 248.217 15.3003 248.288 15.2911ZM271.158 14.8751C271.661 14.784 274.871 14.8327 275.602 14.8702C275.727 14.8773 275.18 15.1166 276.626 15.0987C277.787 15.084 276.053 14.8388 278.314 14.878C280.599 14.9174 277.546 15.0921 277.745 15.1046C278.013 15.121 281.547 15.0109 281.437 15.1534C281.355 15.259 277.569 15.1876 276.633 15.2101C275.434 15.2389 276.888 15.4149 274.884 15.3771C273.625 15.3535 274.323 15.0441 274.057 15.0284C273.834 15.0158 269.433 15.1939 271.165 14.8761C271.162 14.8758 271.16 14.8754 271.158 14.8751ZM251.82 15.3448C251.636 15.3553 251.421 15.3609 251.16 15.3585C251.381 15.3543 251.602 15.3494 251.82 15.3448ZM83.8993 15.2052C85.1384 15.3006 81.4606 15.423 80.0679 15.298C80.0437 15.1972 83.702 15.1903 83.8993 15.2052ZM254.083 15.0929C257.707 15.1704 255.041 15.277 251.82 15.3448C252.843 15.2866 252.866 15.067 254.083 15.0929ZM151.174 15.2218C151.327 15.2449 151.424 15.2809 151.436 15.34C151.035 15.2753 150.999 15.2406 151.174 15.2218ZM159.63 15.3273C162.529 15.1472 156.639 15.1545 156.677 15.2833C156.694 15.332 159.514 15.3344 159.63 15.3273ZM228.062 15.2384C227.797 15.2208 231.917 14.6771 225.936 15.0851C229.128 15.1492 225.76 15.2084 225.81 15.256C225.94 15.3928 231.302 15.2613 232.489 15.3204C233.419 15.0756 228.938 15.2965 228.069 15.2384C228.067 15.2384 228.065 15.2384 228.062 15.2384ZM312.375 15.0069C311.648 15.1504 309.343 15.1043 307.788 15.0958C308.515 14.9523 310.82 14.9985 312.375 15.0069ZM719.384 15.0275C708.727 15.1601 707.346 14.5758 717.098 14.8067C717.289 14.8116 720.031 14.9682 719.384 15.0275ZM627.919 14.8761C626.915 14.6214 630.238 14.5805 632.421 14.6856C632.915 14.7093 634.741 14.9672 632.656 15.0177C632.722 14.709 629.497 14.5911 627.919 14.8761ZM256.131 14.9298C257.187 14.76 260.436 14.8809 262.147 14.9064C261.103 15.0462 257.645 14.983 256.131 14.9298ZM684.363 14.7228C683.24 14.7035 682.482 14.925 682.676 14.9435C683.544 15.028 685.643 14.8489 684.363 14.7228ZM245.644 14.9034C245.496 14.8019 249.799 14.7042 250.098 14.9552C249.178 14.937 245.751 14.9671 245.644 14.9034ZM309.442 14.9308C308.774 14.8792 312.234 14.7868 313.28 14.838C313.196 14.946 309.88 14.9643 309.442 14.9308ZM666.278 14.798C665.272 14.7787 662.759 14.7728 662.481 14.8624C662.135 14.9744 665.82 14.9362 666.278 14.798ZM853.448 14.6046C853.575 14.6448 849.683 14.9348 847.953 14.8614C844.667 14.721 853.31 14.5762 853.448 14.6046ZM694.997 14.6085C698.169 14.8192 694.647 14.6151 694.786 14.837C696.921 14.845 702.231 14.856 698.58 14.6378C697.869 14.5956 695.992 14.6229 694.997 14.6085ZM692.071 14.5343C691.731 14.6061 689.444 14.8327 691.421 14.8165C692.334 14.8087 693.808 14.5569 692.071 14.5343ZM829.333 14.7032C826.49 14.5068 839.524 14.6122 839.898 14.6466C840.096 14.6648 840.226 14.6819 840.3 14.6964C840.779 14.6341 843.241 14.6229 843.526 14.7804C842.787 14.7674 840.772 14.7812 840.538 14.7638C840.437 14.7563 840.362 14.7494 840.31 14.7423C839.441 14.879 829.878 14.7405 829.333 14.7032ZM807.736 14.5011C810.989 14.2113 811.565 14.704 811.285 14.7198C807.743 14.9215 810.053 14.5581 809.944 14.5411C809.697 14.5128 807.181 14.6814 807.746 14.5011C807.743 14.5011 807.739 14.5011 807.736 14.5011ZM824.906 14.6222C825.04 14.6157 827.771 14.631 827.883 14.6388C830.122 14.8043 822.393 14.7619 824.906 14.6222ZM288.396 14.5304C290.352 14.5793 288.433 14.7606 287.134 14.6954C287.027 14.689 286.671 14.4871 288.396 14.5304ZM690.509 14.5831C690.055 14.5489 678.457 14.4197 679.154 14.6935C680.139 14.6611 693.322 14.8021 690.509 14.5831ZM603.831 14.5167C605.877 14.5188 603.647 14.777 602.555 14.6808C602.151 14.645 603.316 14.5163 603.831 14.5167ZM239.843 14.669C237.719 14.8109 238.158 14.335 239.999 14.4981C240.071 14.5045 239.926 14.6635 239.843 14.669ZM620.171 14.6651C613.117 14.8216 614.788 14.003 623.958 14.2794C623.671 14.3158 623.385 14.3523 623.098 14.3888C633.682 14.5115 623.821 14.4465 621.229 14.4923C620.245 14.5097 621.07 14.6463 620.178 14.6661C620.176 14.6658 620.174 14.6655 620.171 14.6651ZM593.075 14.5011C586.282 13.9201 599.251 14.2984 602.97 14.2227C599.365 14.4627 594.669 14.4263 601.055 14.672C591.719 14.7195 595.605 14.4881 595.233 14.4688C594.791 14.4473 593.365 14.526 593.075 14.5011ZM610.994 14.4972C611.387 14.4802 614.345 14.5985 615.411 14.5792C613.92 14.7777 608.387 14.6124 610.994 14.4972ZM785.094 14.6358C785.34 14.4803 785.947 14.3658 788.283 14.4239C787.561 14.5021 786.07 14.5693 785.094 14.6358ZM74.7664 14.5226C73.1584 14.5114 69.9565 14.4528 70.9384 14.6163C71.0458 14.6302 74.7615 14.6143 74.7664 14.5226ZM656.822 14.4571C656.48 14.438 647.635 14.4252 650.69 14.5968C651.611 14.6485 659.659 14.6265 656.822 14.4571ZM702.622 14.4767C701.882 14.475 698.875 14.5043 698.811 14.5411C698.608 14.6683 702.299 14.5984 702.622 14.4767ZM66.6543 14.3634C66.4426 14.3472 61.531 14.3758 62.0709 14.4513C63.0957 14.5939 67.3802 14.4189 66.6543 14.3634ZM295.511 14.1661C295.922 14.1603 296.465 14.3293 296.607 14.3311C296.94 14.3336 304.456 14.2686 301.585 14.4854C301.106 14.5218 290.292 14.4385 288.886 14.4171C288.342 14.1852 292.961 14.4058 294.085 14.3819C294.283 14.3774 294.41 14.1834 295.508 14.1671C295.509 14.1667 295.51 14.1664 295.511 14.1661ZM797.259 14.4718C797.591 14.3243 806.426 14.2267 806.324 14.4054C803.302 14.4275 800.281 14.4496 797.259 14.4718ZM792.771 14.4474C790.885 14.3431 795.301 14.3086 796.602 14.3546C796.616 14.4538 793.045 14.4626 792.771 14.4474ZM685.864 13.9259C684.976 13.9619 687.707 14.177 687.096 14.2188C686.704 14.2449 684.721 14.1642 684.088 14.2315C683.908 14.2529 685.932 14.4551 686.517 14.4464C687.349 14.4347 686.542 14.2756 687.45 14.2745C690.462 14.2711 693.133 14.3846 695.957 14.3819C696.211 14.3814 694.234 14.269 696.409 14.2706C696.745 14.2706 698.765 14.438 701.367 14.4132C707.113 13.8948 711.333 14.4038 718.625 14.2169C718.35 14.1681 712.897 14.0371 712.575 14.0323C706.48 13.9471 695.559 13.9377 689.175 13.9366C687.537 13.9361 688.332 14.0459 687.627 14.0499C687.069 14.0528 687.732 13.8497 685.864 13.9259ZM75.6205 14.4102C74.8541 14.2073 72.1656 14.3358 70.4484 14.3253C71.0528 14.5083 73.9425 14.3653 75.6205 14.4102ZM753.102 14.2901C752.241 14.298 749.573 14.2368 749.352 14.2979C749.068 14.3777 752.92 14.428 753.102 14.2901ZM337.888 14.2237C337.972 14.2182 340.042 14.229 340.121 14.2354C341.971 14.3983 335.76 14.3649 337.888 14.2237ZM387.422 14.2628C388.992 14.2377 390.576 14.1743 391.104 14.339C390.103 14.3137 387.238 14.3774 387.422 14.2628ZM455.759 14.2579C455.434 14.0423 460.161 14.1819 461.053 14.2013C460.723 14.2971 455.996 14.4132 455.759 14.2579ZM784.754 13.9591C787.643 13.9718 787.033 13.6452 788.868 13.793C789.167 13.818 790.135 14.498 786.959 14.2432C786.387 14.1974 788.623 14.0358 784.754 13.9591ZM625.452 14.2862C626.187 14.1436 628.484 14.1859 630.036 14.1973C629.688 14.3033 626.556 14.276 625.452 14.2862ZM57.7834 14.2003C56.4283 13.9989 50.1671 14.1483 51.7164 14.2813C51.9367 14.2987 56.9051 14.1927 57.7834 14.2003ZM263.478 14.2794C266.054 14.1208 260.718 14.0717 259.034 14.2266C259.796 14.2165 263.304 14.2898 263.478 14.2794ZM439.344 14.1407C439.468 14.1342 442.199 14.1495 442.321 14.1573C444.56 14.3229 436.831 14.2805 439.344 14.1407ZM371.133 14.001C372.117 13.8706 378.588 13.9759 380.038 14.1065C378.642 14.2973 369.912 14.164 371.133 14.001ZM772.865 14.0518C774.926 14.0451 776.882 14.0853 778.775 14.1417C778.377 14.2515 773.083 14.1339 772.865 14.0518ZM449.372 14.127C449.518 14.1279 449.661 14.1403 449.8 14.1417C449.654 14.137 449.511 14.1317 449.372 14.127ZM726.727 13.9747C725 13.9313 725.359 14.1326 725.465 14.1387C726.765 14.2039 728.683 14.0237 726.727 13.9747ZM73.6469 14.1114C73.0481 13.9297 70.1427 14.0706 68.4714 14.0274C68.9563 14.1709 72.3006 14.1305 73.6469 14.1114ZM585.8 14.129C583.63 13.932 592.46 13.7032 594.321 13.8301C594.458 13.9518 586.118 14.1559 585.8 14.129ZM255.478 14.0069C255.305 13.8646 251.597 14.0363 252.385 14.1036C252.884 14.1464 255.582 14.0953 255.478 14.0069ZM598.761 13.9132C599.591 13.8697 601.525 14.0102 600.844 14.0958C599.97 14.2055 598.547 13.9256 598.761 13.9132ZM673.196 13.7989C672.833 13.7771 667.955 13.9232 669.97 14.0684C671.368 14.1693 671.591 13.9636 671.92 13.963C672.287 13.9636 680.118 14.2154 673.196 13.7989ZM536.345 14.005C538.186 13.9502 540.411 14.0138 542.337 14.0098C541.553 14.0979 537.128 14.1219 536.345 14.005ZM269.776 13.9688C269.329 13.9113 257.153 13.8766 264.07 14.0538C264.473 14.0638 271.134 14.1432 269.776 13.9688ZM784.754 13.9591C784.389 13.9574 783.969 13.9507 783.481 13.9366C783.966 13.9421 784.387 13.9518 784.754 13.9591ZM751.938 13.9376C752.603 13.8339 749.252 13.8062 748.263 13.8614C747.959 13.988 751.847 13.9521 751.938 13.9376ZM542.484 13.8653C543.594 13.806 545.608 13.8693 546.982 13.8624C546.75 13.9587 542.964 13.9632 542.484 13.8653ZM464.544 13.7569C466.748 13.8141 469.46 13.7878 469.502 13.67C469.548 13.6884 469.655 13.7079 469.832 13.7276C470.011 13.7471 472.373 13.6923 473.398 13.7325C479.54 13.9714 449.683 13.8728 466.988 13.5401C466.173 13.6124 465.359 13.6846 464.544 13.7569ZM362.378 13.7237C361.127 13.5803 357.624 13.76 358.533 13.8165C359.166 13.8552 363.63 13.8681 362.378 13.7237ZM410.513 13.6387C410.139 13.6131 406.718 13.7136 406.63 13.7891C408.597 13.8687 412.216 13.7577 410.513 13.6387ZM352.762 13.5557C351.977 13.5341 350.975 13.7654 351.067 13.7755C351.865 13.8599 354.08 13.6845 352.762 13.5557ZM778.768 13.336C777.6 13.2698 773.876 13.4372 773.066 13.5899C772.915 13.5604 772.508 13.5219 771.762 13.4756C771.765 13.4756 771.767 13.4756 771.769 13.4756C770.762 13.4139 740.665 13.3465 760.853 13.6407C761.485 13.6501 760.622 13.513 763.194 13.5372C763.364 13.5389 763.449 13.6509 763.974 13.6563C765.182 13.6681 771.616 13.7386 772.909 13.6485C772.92 13.6692 773.004 13.689 773.181 13.7071C774.767 13.8685 779.675 13.3871 778.768 13.336ZM417.294 13.6182C416.606 13.5767 414.427 13.6161 414.201 13.7149C415.282 13.7633 418.892 13.715 417.294 13.6182ZM269.399 13.5635C267.996 13.4823 264.442 13.6342 265.516 13.7149C266.175 13.7646 271.016 13.6568 269.399 13.5635ZM395.469 13.671C403.511 13.7877 397.389 13.6615 398.62 13.5167C397.57 13.5681 396.52 13.6195 395.469 13.671ZM815.987 13.71C814.705 13.6767 816.212 13.3909 817.624 13.546C818.067 13.5952 816.705 13.7281 815.987 13.71ZM873.891 13.6212C872.797 13.3677 878.142 13.5166 876.059 13.6905C875.962 13.6963 873.97 13.6308 873.891 13.6212ZM833.43 13.5176C832.559 13.6902 831.993 13.7107 829.54 13.668C833.171 13.6194 829.804 13.4668 833.43 13.5176ZM469.478 13.6514C469.492 13.6584 469.505 13.6636 469.502 13.67C469.486 13.6636 469.48 13.6576 469.478 13.6514ZM345.201 13.6006C344.194 13.4545 341.373 13.4652 342.213 13.6124C342.295 13.626 344.788 13.7087 345.201 13.6006ZM773.066 13.5899C773.199 13.6161 773.131 13.633 772.909 13.6485C772.899 13.629 772.956 13.6105 773.066 13.5899ZM360.35 13.4815C360.249 13.5906 364.543 13.633 364.715 13.6202C367.18 13.431 362.123 13.4749 360.35 13.4815ZM241.006 13.4102C240.785 13.4216 242.213 13.7031 243.089 13.5928C243.767 13.5072 241.836 13.3669 241.006 13.4102ZM841.756 13.4473C843.116 13.4475 845.03 13.4474 845.384 13.5811C844.472 13.5606 841.728 13.5454 841.756 13.4473ZM871.799 13.4376C870.192 13.5948 866.521 13.5943 864.177 13.5684C864.133 13.3615 870.291 13.4862 871.799 13.4376ZM782.457 13.4131C782.345 13.4047 778.935 13.343 779.401 13.4815C780.082 13.6846 783.419 13.4885 782.457 13.4131ZM247.628 13.5596C249.153 13.4642 245.644 13.171 244.035 13.3975C243.208 13.5135 247.371 13.5756 247.628 13.5596ZM336.391 13.4092C334.379 13.4894 339.366 13.6322 340.063 13.4874C339.136 13.4757 337.106 13.3808 336.391 13.4092ZM404.857 13.2627C398.516 12.845 401.97 13.6071 403.095 13.5401C403.253 13.5305 405.012 13.2726 404.857 13.2627ZM42.0493 13.3653C41.1516 13.4233 44.4983 13.6336 44.9314 13.4952C45.199 13.4085 42.6234 13.3283 42.0493 13.3653ZM500.341 13.5342C500.073 13.5356 499.808 13.5369 499.545 13.5381C499.742 13.5313 500.001 13.5291 500.341 13.5342ZM318.125 12.8496C322.589 13.4395 322.12 12.9849 322.508 12.9873C323.346 12.9937 325.294 13.1532 326.874 13.127C325.065 13.1934 323.256 13.2598 321.447 13.3262C322.876 13.3688 335.291 13.5859 335.551 13.4903C335.924 13.3541 332.017 13.3968 331.903 13.3848C331.739 13.3677 331.129 12.989 330.767 12.9746C330.17 12.9516 319.789 12.9438 318.125 12.8496ZM391.597 13.3282C392.617 13.3732 392.906 13.5232 393.38 13.4874C393.541 13.4751 393.568 13.332 394.118 13.295C393.278 13.306 392.437 13.3171 391.597 13.3282ZM310.132 13.3799C308.869 13.2051 314.534 13.2715 314.716 13.2911C315.685 13.4096 311.165 13.5228 310.132 13.3799ZM358.206 13.3545C357.999 13.3443 353.649 13.2897 353.684 13.3868C354.835 13.4607 360.652 13.4823 358.206 13.3545ZM394.799 13.2852C396.327 13.3019 399.217 13.446 398.886 13.2305C398.883 13.2305 398.881 13.2305 398.879 13.2305C397.519 13.2487 396.159 13.267 394.799 13.2852ZM252.848 13.1045C250.015 12.7613 251.357 13.195 253.865 13.3057C254.625 13.1516 253.312 13.1604 252.848 13.1045ZM243.783 12.8487C242.995 12.7869 234.874 12.8546 236.113 13.0362C236.554 13.1009 241.223 12.9377 241.438 12.9502C241.765 12.9688 240.275 13.1697 242.765 13.1299C242.62 13.0619 244.053 12.8693 243.783 12.8487ZM250.503 12.8848C247.688 12.6238 247.056 13.1052 249.173 13.1065C250 13.1073 250.905 12.9225 250.503 12.8848ZM262.001 12.9258C260.988 12.8802 258.29 12.8136 256.431 12.9737C258.919 12.9873 261.408 13.001 263.896 13.0147C264.183 12.924 262.887 12.9659 261.994 12.9258C261.996 12.9258 261.999 12.9258 262.001 12.9258ZM888.714 12.2041C886.477 12.0676 891.63 12.0153 891.848 12.0488C892.495 12.1602 889.714 12.2651 888.714 12.2041ZM24.5797 8.99207C23.9583 8.93765 23.552 8.75861 22.1842 8.85242C23.56 8.98458 24.9359 9.11675 26.3117 9.24891C27.3809 8.94608 25.2589 9.05209 24.5797 8.99207ZM19.3259 7.88558C19.5203 7.87825 18.4586 7.41258 20.9694 7.72347C22.6659 7.93338 13.4406 8.13796 11.7753 7.93148C13.6153 7.83554 17.6529 7.94537 19.3259 7.88558ZM3.16641 5.86988C3.06003 5.83275 6.56496 5.77827 6.97065 5.80445C9.10084 5.94245 3.7419 6.06884 3.16641 5.86988ZM14.3477 5.95875C12.704 5.86832 16.3454 5.81003 17.4306 5.86207C17.5359 5.94874 14.6017 5.97192 14.3477 5.95875ZM866.065 5.45971C864.287 5.14322 862.696 5.82452 865.432 5.68726C865.563 5.6808 866.141 5.47521 866.065 5.45971ZM6.59295 5.40014C8.23668 5.49057 4.59529 5.54886 3.51008 5.49682C3.40916 5.41024 6.34267 5.38691 6.59295 5.40014ZM864.813 4.70577C862.451 4.47803 863.283 5.24238 863.578 5.27318C864.794 5.39482 868.963 5.09482 869.815 5.02024C863.574 5.13494 865.925 4.81309 864.813 4.70577ZM853.918 5.16478C851.726 5.24632 857.327 5.40227 858.396 5.18919C857.306 5.19939 854.541 5.14121 853.918 5.16478ZM840.616 4.91965C839.438 4.89227 835.933 4.82673 835.346 4.94699C836.632 4.92522 840.119 5.0434 840.616 4.91965ZM837.949 4.55928C836.107 4.39587 835.665 4.872 837.789 4.73019C837.871 4.7247 838.016 4.56837 837.949 4.55928ZM827.594 4.3874C826.386 4.19805 825.007 4.65916 826.965 4.67159C827.546 4.67444 827.722 4.40911 827.594 4.3874ZM861.856 3.88348C860.126 3.80217 857.897 4.13238 861.591 4.16864C860.293 4.2191 858.996 4.26956 857.698 4.32002C862.537 4.50511 862.182 4.04717 863.571 4.0661C865.512 4.09301 865.359 4.4709 864.97 4.58956C866.561 4.35804 873.324 4.35433 877.233 4.31025C873.798 4.21309 868.223 4.04465 864.833 3.98309C863.866 3.96527 862.926 4.0689 862.101 4.05731C860.778 4.03817 861.953 3.88895 861.863 3.88348C861.861 3.88348 861.858 3.88348 861.856 3.88348ZM813.983 4.38057C810.432 4.16607 812.678 4.62917 814.684 4.54659C814.77 4.54023 814.072 4.38581 813.983 4.38057ZM1.88358 3.99286C6.62851 4.18643 3.17954 4.44298 13.1057 4.0534C8.93551 4.3292 12.8751 4.25174 12.0611 4.36299C11.4081 4.451 8.9613 4.37811 10.3836 4.55538C8.5141 4.36244 0.397748 4.4158 0.0359065 4.38447C0.0393092 4.38447 0.0427119 4.38447 0.0461146 4.38447C-0.171211 4.36591 0.369487 3.9313 1.88358 3.99286ZM840.599 3.70867C839.415 3.14676 838.95 4.03863 836.622 3.57292C833.521 4.24919 845.186 3.57302 846.598 4.14423C833.93 4.07786 854.968 4.71023 846.125 3.85516C853.41 4.1655 848.512 3.74926 849.637 3.6403C850.84 3.52424 854.96 3.65038 854.751 3.44108C854.749 3.44108 854.747 3.44108 854.744 3.44108C852.224 3.45573 849.704 3.47038 847.184 3.48502C849.65 3.93651 844.5 3.80113 842.753 3.43326C842.035 3.52507 841.317 3.61687 840.599 3.70867ZM854.864 4.13251C854.615 4.12217 849.133 4.18545 849.487 4.27607C850.219 4.33387 857.999 4.26457 854.864 4.13251ZM878.989 4.03387C877.021 4.03277 873.977 3.94469 872.905 4.11493C874.873 4.11607 877.917 4.20421 878.989 4.03387ZM777.639 4.00165C775.13 4.14135 782.854 4.18273 780.62 4.01727C780.51 4.00948 777.762 3.99512 777.639 4.00165ZM834.893 3.79363C832.342 3.62191 833.548 4.1685 835.437 4.02606C835.547 4.01766 835.011 3.80146 834.893 3.79363ZM5.72865 3.92645C5.89928 3.79253 12.7837 3.88659 14.0041 3.88543C13.3107 4.00991 5.53291 4.07997 5.72865 3.92645ZM882.453 3.53288C878.537 3.05135 873.222 3.60753 872.639 3.59538C872.06 3.583 872.969 3.3725 872.837 3.36686C872.535 3.35505 866.364 3.37271 866.065 3.38736C865.851 3.39879 866.968 3.69459 865.694 3.78777C868.179 3.61969 879.462 3.72484 880.047 3.69206C880.501 3.66589 877.082 3.35526 882.446 3.53288C882.448 3.53288 882.451 3.53288 882.453 3.53288ZM871.183 3.53092C872.725 3.65492 868.401 3.67043 867.355 3.62468C865.03 3.52229 870.985 3.51623 871.183 3.53092ZM860.784 3.41666C860.291 3.38885 855.835 3.36359 855.456 3.50163C857.565 3.68069 861.904 3.48146 860.784 3.41666ZM811.2 3.43522C810.042 3.4529 806.86 3.34683 806.678 3.46745C807.836 3.44985 811.018 3.55585 811.2 3.43522ZM29.2176 2.87367C27.295 2.77274 31.7495 2.73151 33.0491 2.77992C33.1196 2.86038 29.3813 2.88234 29.2176 2.87367ZM834.461 2.64027C833.776 2.60359 819.796 2.69511 817.835 2.7516C819.753 2.84282 833.608 2.84983 834.236 2.80531C834.42 2.79198 834.548 2.64604 834.461 2.64027ZM864.694 2.5846C865.976 2.40697 866.812 2.62001 866.974 2.62269C868.559 2.64987 871.846 2.60982 871.125 2.7809C868.328 2.71187 862.142 2.93734 864.694 2.5846ZM810.206 2.63148C805.459 2.69739 814.577 2.88453 813.381 2.69886C813.304 2.68764 810.697 2.62456 810.206 2.63148ZM836.023 2.58851C837.07 2.44498 851.053 2.56876 853.298 2.56897C851.287 2.8337 849.667 2.63263 846.966 2.64613C846.237 2.65008 846.431 2.76021 846.353 2.76039C845.091 2.76549 846.036 2.63829 845.258 2.63636C844.766 2.63549 834.549 2.79073 836.023 2.58851ZM865.426 2.46155C866.207 2.35972 874.939 2.31632 875.29 2.34338C877.918 2.54463 866.104 2.49699 865.426 2.46155ZM834.74 2.35315C836.243 2.04548 843.188 2.25152 838.435 2.40491C837.981 2.41886 836.059 2.28549 834.74 2.35315ZM810.713 2.3385C810.48 2.32945 805.531 2.26795 805.442 2.36584C806.157 2.40388 813.371 2.43801 810.713 2.3385ZM813.279 2.00743C813.159 2.00978 814.32 2.19832 811.999 2.17443C811.806 2.17218 811.445 1.96005 808.529 2.0377C807.937 2.0537 807.02 2.19403 807.086 2.20275C810.123 2.53565 819.271 1.89806 813.279 2.00743ZM865.585 2.28967C865.115 2.20013 866.25 1.93437 867.273 2.06896C867.712 2.12707 866.893 2.28656 865.585 2.28967ZM795.02 2.25256C797.896 2.09138 788.865 2.06091 788.405 2.10216C788.695 2.20255 794.732 2.2683 795.02 2.25256ZM33.7194 1.62949C33.7172 1.62949 33.7149 1.62949 33.7126 1.62949C36.1327 1.66601 34.6337 1.80009 34.747 1.8043C39.9019 2.00123 38.5346 1.69755 39.3407 1.66171C41.0692 1.5842 40.7907 1.9535 43.7064 1.80039C38.8868 2.0265 43.2738 1.93171 43.4104 2.0631C43.9505 2.59926 36.9935 1.81204 34.5905 1.92442C34.2557 1.93998 36.7278 2.1111 35.8699 2.15978C33.0809 2.31751 24.4331 1.48983 33.7194 1.62949ZM868.063 2.04552C869.185 1.88803 877.701 2.04078 875.443 2.17052C875.08 2.19132 866.413 2.27507 868.063 2.04552ZM470.251 1.81309C472.298 1.67679 467.554 1.51657 466.675 1.62265C466.238 1.6755 469.352 1.8729 470.251 1.81309ZM436.993 1.23006C434.561 1.25772 431.997 1.82609 435.022 1.73789C435.344 1.72825 437.271 1.3089 436.993 1.23006ZM596.689 1.52206C594.15 1.31894 594.301 1.69633 596.165 1.69101C596.823 1.68919 596.769 1.52849 596.689 1.52206ZM499.766 1.57089C499.512 1.55772 496.576 1.58181 496.683 1.66855C497.768 1.72059 501.41 1.66132 499.766 1.57089ZM597.495 1.46835C595.99 1.53636 598.581 1.80932 600.422 1.54257C599.487 1.56445 597.65 1.4614 597.495 1.46835ZM829.493 1.51913C828.232 1.6741 824.665 1.62727 822.616 1.6539C822.395 1.45313 828.029 1.55553 829.493 1.51913ZM447.316 1.45858C445.014 1.60008 449.947 1.71592 449.494 1.5289C449.431 1.51873 447.407 1.45255 447.316 1.45858ZM678.62 1.44784C676.946 1.5676 682.26 1.72865 680.797 1.51815C680.725 1.50957 678.711 1.44118 678.62 1.44784ZM701.823 1.51718C700.553 1.47678 695.139 1.48921 697.246 1.60605C697.573 1.624 701.727 1.62687 701.823 1.51718ZM39.4836 1.51718C38.7995 1.31094 42.7704 1.36003 43.3389 1.39608C43.5622 1.41107 40.3759 1.7855 39.4836 1.51718ZM580.196 1.48983C578.882 1.51563 575.474 1.4666 574.874 1.5748C576.482 1.5524 580.628 1.70536 580.196 1.48983ZM457.814 1.4576C455.809 1.2335 452.383 1.25562 453.23 1.54843C457.014 1.52881 452.763 1.28524 457.814 1.4576ZM605.958 1.22713C604.904 1.21003 604.097 1.49123 604.216 1.50448C605.358 1.63052 607.005 1.33653 605.958 1.22713ZM526.889 1.45858C526.828 1.33841 523.451 1.39295 523.901 1.4703C524.049 1.49627 526.938 1.55583 526.889 1.45858ZM785.258 1.45077C783.71 1.34108 788.436 1.23385 789.834 1.3619C790.514 1.54641 785.453 1.46337 785.258 1.45077ZM635.177 1.29744C635.334 1.1191 630.055 1.21993 632.135 1.36776C632.656 1.40474 635.122 1.35707 635.177 1.29744ZM685.718 1.08357C682.176 1.29624 697.047 1.44722 693.139 1.1822C692.86 1.16332 686.026 1.06561 685.718 1.08357ZM710.003 1.21638C709.392 1.19295 709.697 0.593681 712.225 0.824767C712.557 0.854736 711.004 1.01315 711.276 1.04939C711.435 1.07003 716.933 1.1542 717.186 1.14021C717.459 1.12432 717.138 0.932252 717.414 0.910707C717.725 0.886629 721.11 1.05535 722.882 1.0572C726.222 1.06036 726.583 0.900495 726.857 0.899965C727.655 0.898906 728.996 1.01241 730.613 1.01227C738.766 1.011 751.236 0.875488 757.699 1.21443C751.947 1.07832 746.466 1.22273 740.743 1.26717C742.419 0.933466 732.324 1.52428 738.229 1.13923C735.51 1.22275 712.005 1.28955 710.01 1.21638C710.008 1.21638 710.005 1.21638 710.003 1.21638ZM427.394 1.06208C428.888 0.857471 421.222 0.903496 420.571 1.14021C421.583 1.17306 427.208 1.08527 427.394 1.06208ZM462.761 0.563039C463.473 0.52772 464.149 0.127773 467.883 0.330607C467.886 0.330607 467.889 0.330607 467.893 0.330607C468.984 0.389843 467.74 0.487296 467.94 0.522021C468.013 0.536201 471.418 0.735152 468.59 0.767148C464.278 0.816236 468.184 0.469613 465.885 0.465379C465.604 0.465051 461.253 0.68154 461.506 0.72906C461.532 0.734596 462.841 0.688799 463.057 0.708551C463.874 0.782801 463.477 0.907694 463.592 0.913637C463.968 0.928868 470.849 0.716094 471.85 0.901918C472.175 0.96184 460.881 1.10007 460.441 1.06892C460.162 1.04928 460.28 0.702607 459.992 0.668511C459.843 0.651528 455.3 0.781439 454.711 0.749569C454.539 0.740351 454.408 0.730414 454.312 0.722224C455 0.829481 450.886 0.821758 451.012 0.700739C451.083 0.653173 453.915 0.680705 454.016 0.68902C454.061 0.692539 454.1 0.697392 454.135 0.700739C453.549 0.570026 463.136 0.575922 461.067 0.381391C463.846 0.274824 460.673 0.666762 462.761 0.563039ZM476.12 0.349163C475.833 0.385623 475.547 0.422083 475.26 0.458542C480.125 0.369303 485.739 0.544814 491.344 0.543507C492.766 0.54344 491.13 0.320458 492.995 0.381391C494.488 0.430223 496.141 0.637046 495.329 0.68316C495.131 0.694666 492.09 0.559957 490.568 0.573781C486.076 0.614709 487.211 0.805929 486.948 0.811094C486.658 0.81653 483.83 0.682055 482.286 0.688044C478.404 0.703521 476.63 0.820921 471.326 0.667535C474.387 0.541509 472.71 0.267728 476.12 0.349163ZM657.475 0.756405C657.66 0.636046 660.844 0.742831 662.001 0.725154C661.819 0.84581 658.633 0.738718 657.475 0.756405ZM183.014 0.600149C182.036 0.797657 189.366 0.846562 187.434 0.682183C187.006 0.645702 183.935 0.601554 183.014 0.600149ZM215.942 0.720271C216.922 0.665665 212.974 0.523462 212.981 0.676324C212.987 0.725343 215.816 0.727372 215.942 0.720271ZM539.013 0.543507C539.198 0.537322 541.896 0.581312 541.98 0.59136C543.767 0.801075 534.889 0.679865 539.013 0.543507ZM255.971 0.477098C252.554 0.606556 262.841 0.662665 259.697 0.497606C259.541 0.489567 256.136 0.470806 255.971 0.477098ZM270.27 0.440964C269.45 0.447902 265.812 0.383623 265.764 0.443893C265.692 0.541125 269.856 0.607562 270.27 0.440964ZM606.669 0.481004C606.274 0.258464 611.072 0.426993 612.74 0.39897C613.136 0.621664 608.336 0.452901 606.669 0.481004ZM576.388 0.316936C596.613 0.141505 592.154 0.616973 575.184 0.425338C575.159 0.282571 575.112 0.327984 576.388 0.316936ZM602.286 0.343304C601.551 0.48587 599.255 0.443595 597.703 0.432174C597.982 0.333054 601.167 0.368926 602.286 0.343304ZM174.286 0.294474C175.554 0.114378 181.171 0.336405 180.172 0.410688C179.94 0.426731 173.82 0.393514 174.286 0.294474ZM540.708 0.353069C540.236 0.136642 546.31 0.224924 546.775 0.272988C548.649 0.466318 541.199 0.305301 540.708 0.353069ZM635.375 0.290567C636.447 0.121043 639.493 0.208236 641.452 0.210486C640.56 0.355442 637.037 0.293617 635.375 0.290567ZM621.233 0.157749C621.356 0.151242 624.088 0.166548 624.21 0.174352C626.449 0.33993 618.72 0.297525 621.233 0.157749ZM30.3643 0.00149345C30.4554 -0.00396919 32.5244 0.00683975 32.5965 0.0132132C34.4433 0.175972 28.2334 0.142715 30.3643 0.00149345Z" fill="var(--stroke-0, #EE583F)"/>
</svg>
